<?xml version="1.0" standalone="no"?>
<!DOCTYPE svg PUBLIC "-//W3C//DTD SVG 1.1//EN" "http://www.w3.org/Graphics/SVG/1.1/DTD/svg11.dtd" >
<svg xmlns="http://www.w3.org/2000/svg" xmlns:xlink="http://www.w3.org/1999/xlink" version="1.1">
<metadata>
Created by FontForge 20170731 at Fri Feb 22 03:07:34 2008
 By Aleksey,,,
Copyright (c) 2007 by Dino dos Santos _DSType. All rights reserved.
</metadata>
<defs>
<font id="Prelo-Medium" horiz-adv-x="600" >
  <font-face 
    font-family="Prelo Medium"
    font-weight="400"
    font-stretch="normal"
    units-per-em="1000"
    panose-1="2 0 5 6 0 0 0 2 0 4"
    ascent="750"
    descent="-250"
    x-height="500"
    cap-height="680"
    bbox="-80 -290 1115 960"
    underline-thickness="50"
    underline-position="-150"
    unicode-range="U+0020-FB04"
  />
<missing-glyph horiz-adv-x="590" 
d="M520 500v-500h-450v500h450zM81 485v-469l206 233zM509 18v465l-205 -234zM296 259l202 229h-405zM95 12h401l-200 228z" />
    <glyph glyph-name="ff" unicode="ff" horiz-adv-x="635" 
d="M185 435v-435h-90v435h-75v59l75 6v62q0 35 7 61t23.5 43t44.5 25.5t70 8.5q20 0 39.5 -2.5t40.5 -5.5l-9 -72q-25 3 -40.5 4t-32.5 1q-30 0 -41.5 -17.5t-11.5 -52.5v-55h200v62q0 35 7 61t23.5 43t44.5 25.5t70 8.5q20 0 39.5 -2.5t40.5 -5.5l-9 -72q-25 3 -40.5 4
t-32.5 1q-30 0 -41.5 -17.5t-11.5 -52.5v-55h120v-65h-120v-435h-90v435h-200z" />
    <glyph glyph-name="fi" unicode="fi" horiz-adv-x="535" 
d="M390 435h-205v-435h-90v435h-75v59l75 6v34q0 85 44 125.5t146 40.5q53 0 96.5 -10.5t78.5 -27.5l-10 -65q-35 14 -76 22t-79 8q-35 0 -56.5 -6.5t-33.5 -18.5t-16 -30.5t-4 -42.5v-29h295v-500h-90v435z" />
    <glyph glyph-name="fl" unicode="fl" horiz-adv-x="535" 
d="M185 0h-90v435h-75v59l75 6v34q0 88 46 127t144 39q25 0 60 -4.5t70 -18.5h65v-677h-90v607q-36 14 -59 17t-36 3q-62 0 -86 -24t-24 -74v-29h130v-65h-130v-435z" />
    <glyph glyph-name="ffi" unicode="ffi" horiz-adv-x="825" 
d="M385 534q0 85 44 125.5t146 40.5q53 0 96.5 -10.5t78.5 -27.5l-10 -65q-35 14 -76 22t-79 8q-35 0 -56.5 -6.5t-33.5 -18.5t-16 -30.5t-4 -42.5v-29h295v-500h-90v435h-205v-435h-90v435h-200v-435h-90v435h-75v59l75 6v62q0 35 7 61t23.5 43t44.5 25.5t70 8.5
q20 0 39.5 -2.5t40.5 -5.5l-9 -72q-25 3 -40.5 4t-32.5 1q-30 0 -41.5 -17.5t-11.5 -52.5v-55h200v34z" />
    <glyph glyph-name="ffl" unicode="ffl" horiz-adv-x="825" 
d="M185 435v-435h-90v435h-75v59l75 6v62q0 35 7 61t23.5 43t44.5 25.5t70 8.5q20 0 39.5 -2.5t40.5 -5.5l-9 -72q-25 3 -40.5 4t-32.5 1q-30 0 -41.5 -17.5t-11.5 -52.5v-55h200v34q0 88 46 127t144 39q25 0 60 -4.5t70 -18.5h65v-677h-90v607q-36 14 -59 17t-36 3
q-62 0 -86 -24t-24 -74v-29h130v-65h-130v-435h-90v435h-200z" />
    <glyph glyph-name="T_h" unicode="Th" horiz-adv-x="1030" 
d="M555 0v595h-227v-595h-96v595h-187v85h600v-250h2q36 36 80.5 58t97.5 22q75 0 112.5 -43t37.5 -122v-345h-90v325q0 49 -22 79.5t-78 30.5q-21 0 -41.5 -6t-38.5 -14.5t-33.5 -18.5t-26.5 -19v-377h-90z" />
    <glyph glyph-name="T_h.caron" unicode="&#x164;h" horiz-adv-x="1030" 
d="M555 0v595h-227v-595h-96v595h-187v85h600v-250h2q36 36 80.5 58t97.5 22q75 0 112.5 -43t37.5 -122v-345h-90v325q0 49 -22 79.5t-78 30.5q-21 0 -41.5 -6t-38.5 -14.5t-33.5 -18.5t-26.5 -19v-377h-90zM353 870h60l-106 -140h-59l-105 140h60l75 -69z" />
    <glyph glyph-name="T_h.commaaccent" unicode="&#x162;h" horiz-adv-x="1030" 
d="M555 0v595h-227v-595h-96v595h-187v85h600v-250h2q36 36 80.5 58t97.5 22q75 0 112.5 -43t37.5 -122v-345h-90v325q0 49 -22 79.5t-78 30.5q-21 0 -41.5 -6t-38.5 -14.5t-33.5 -18.5t-26.5 -19v-377h-90zM251 -250q5 26 10 52.5t10 52.5h-35v105h90v-105l-45 -105h-30z
" />
    <glyph glyph-name="f_f_j" unicode="ffj" horiz-adv-x="825" 
d="M475 435v-435h-90v435h-200v-435h-90v435h-75v59l75 6v62q0 35 7 61t23.5 43t44.5 25.5t70 8.5q20 0 39.5 -2.5t40.5 -5.5l-9 -72q-25 3 -40.5 4t-32.5 1q-30 0 -41.5 -17.5t-11.5 -52.5v-55h200v34q0 85 44 125.5t146 40.5q53 0 96.5 -10.5t78.5 -27.5l-10 -65
q-35 14 -76 22t-79 8q-35 0 -56.5 -6.5t-33.5 -18.5t-16 -30.5t-4 -42.5v-29h295v-572q0 -71 -31.5 -104.5t-113.5 -33.5q-37 0 -80 8l9 70q16 -3 28 -4t23 -1q43 0 59 15.5t16 57.5v499h-205z" />
    <glyph glyph-name="f_j" unicode="fj" horiz-adv-x="535" 
d="M390 435h-205v-435h-90v435h-75v59l75 6v34q0 85 44 125.5t146 40.5q53 0 96.5 -10.5t78.5 -27.5l-10 -65q-35 14 -76 22t-79 8q-35 0 -56.5 -6.5t-33.5 -18.5t-16 -30.5t-4 -42.5v-29h295v-572q0 -71 -31.5 -104.5t-113.5 -33.5q-37 0 -80 8l9 70q16 -3 28 -4t23 -1
q43 0 59 15.5t16 57.5v499z" />
    <glyph glyph-name=".notdef" horiz-adv-x="590" 
d="M520 500v-500h-450v500h450zM81 485v-469l206 233zM509 18v465l-205 -234zM296 259l202 229h-405zM95 12h401l-200 228z" />
    <glyph glyph-name=".null" horiz-adv-x="0" 
 />
    <glyph glyph-name="nonmarkingreturn" horiz-adv-x="333" 
 />
    <glyph glyph-name="space" unicode=" " horiz-adv-x="180" 
 />
    <glyph glyph-name="exclam" unicode="!" horiz-adv-x="200" 
d="M55 130h90v-130h-90v130zM55 700h90l-5 -480h-80z" />
    <glyph glyph-name="quotedbl" unicode="&#x22;" horiz-adv-x="400" 
d="M55 680h90l-10 -150h-70zM255 680h90l-10 -150h-70z" />
    <glyph glyph-name="numbersign" unicode="#" horiz-adv-x="613" 
d="M263 500l-13 -115h140l13 115h65l-13 -115h100l-6 -60h-100l-16 -150h100l-6 -60h-100l-12 -115h-65l12 115h-140l-12 -115h-65l12 115h-100l6 60h100l16 150h-100l6 60h100l13 115h65zM244 325l-16 -150h140l16 150h-140z" />
    <glyph glyph-name="dollar" unicode="$" horiz-adv-x="610" 
d="M292 -100v91q-68 2 -131.5 21.5t-105.5 52.5l43 70q22 -14 49 -25.5t55 -19t56 -11.5t52 -4q39 0 67 9.5t45 25t25 35t8 40.5q0 31 -18.5 51t-45 33.5t-55.5 21.5t-51 14q-42 10 -80 27.5t-67 42.5t-46 58.5t-17 76.5q0 46 16.5 79t46 55t69 32.5t85.5 12.5v91h41v-91
q63 -3 116 -19.5t91 -39.5l-38 -75q-53 28 -101 39t-91 11q-39 0 -65 -8t-41.5 -21t-22 -30t-6.5 -36q0 -30 19 -51t46 -35.5t57 -23.5t53 -15q42 -9 79 -24t65 -38.5t44.5 -56t16.5 -76.5q0 -47 -17 -83t-46.5 -60.5t-70 -38t-88.5 -16.5v-92h-41z" />
    <glyph glyph-name="percent" unicode="%" horiz-adv-x="760" 
d="M225 0h-60l370 680h60zM181 629q-39 0 -59 -24t-20 -69t20 -69.5t59 -24.5t59 24.5t20 69.5t-20 69t-59 24zM181 396q-67 0 -101.5 37t-34.5 103q0 65 34.5 102t101.5 37t101.5 -37t34.5 -102q0 -66 -34.5 -103t-101.5 -37zM579 238q-39 0 -59 -24.5t-20 -69.5t20 -69
t59 -24t59 24t20 69t-20 69.5t-59 24.5zM579 5q-67 0 -101.5 37t-34.5 102q0 66 34.5 103t101.5 37t101.5 -37t34.5 -103q0 -65 -34.5 -102t-101.5 -37z" />
    <glyph glyph-name="ampersand" unicode="&#x26;" horiz-adv-x="705" 
d="M500 534q0 -21 -6.5 -42t-24 -43t-48 -45t-77.5 -46l174 -171q52 65 67 163h85q-7 -54 -29 -113.5t-64 -110.5l83 -86l-59 -64l-88 91q-42 -35 -98.5 -56t-129.5 -21q-60 0 -104 13.5t-72.5 38t-42.5 58.5t-14 74q0 27 7.5 52t26 49t50.5 47.5t81 47.5q-14 17 -28.5 34.5
t-26.5 36.5t-19.5 40t-7.5 45q0 42 16.5 73t43 51t60.5 30t70 10q81 0 128 -40.5t47 -115.5zM295 68q42 0 84.5 13t77.5 45l-193 197q-50 -25 -83 -56t-33 -79q0 -20 7 -41t24 -38.5t45.5 -29t70.5 -11.5zM223 531q0 -35 20 -63.5t49 -59.5q53 26 87.5 57t34.5 72
q0 28 -10 46t-24.5 27.5t-30.5 13t-27 3.5q-30 0 -49.5 -10t-30.5 -25t-15 -31.5t-4 -29.5z" />
    <glyph glyph-name="quotesingle" unicode="'" horiz-adv-x="200" 
d="M55 680h90l-10 -150h-70z" />
    <glyph glyph-name="parenleft" unicode="(" horiz-adv-x="330" 
d="M295 820q-74 -124 -108 -241.5t-34 -238.5q0 -120 34 -236.5t108 -243.5h-61q-83 106 -127.5 231t-44.5 249q0 126 44.5 250t127.5 230h61z" />
    <glyph glyph-name="parenright" unicode=")" horiz-adv-x="330" 
d="M96 820q83 -106 127.5 -230t44.5 -250q0 -124 -44.5 -249t-127.5 -231h-61q74 127 108 243.5t34 236.5q0 121 -34 238.5t-108 241.5h61z" />
    <glyph glyph-name="asterisk" unicode="*" horiz-adv-x="410" 
d="M232 680l-7 -127l132 40l16 -52l-136 -20l89 -107l-42 -33l-80 121l-79 -121l-42 33l89 107l-136 20l16 52l133 -40l-7 127h54z" />
    <glyph glyph-name="plus" unicode="+" horiz-adv-x="500" 
d="M288 303h157v-76h-157v-157h-76v157h-157v76h157v157h76v-157z" />
    <glyph glyph-name="comma" unicode="," horiz-adv-x="200" 
d="M70 -130l20 130h-35v130h90v-130l-45 -130h-30z" />
    <glyph glyph-name="hyphen" unicode="-" horiz-adv-x="500" 
d="M445 303v-76h-390v76h390z" />
    <glyph glyph-name="period" unicode="." horiz-adv-x="200" 
d="M55 130h90v-130h-90v130z" />
    <glyph glyph-name="slash" unicode="/" horiz-adv-x="540" 
d="M125 0h-80l370 680h80z" />
    <glyph glyph-name="zero" unicode="0" horiz-adv-x="590" 
d="M295 615q-44 0 -72.5 -22t-44.5 -59t-22 -86t-6 -103t6 -104.5t22 -89.5t44.5 -62.5t72.5 -23.5t72 23.5t44.5 62.5t22.5 89.5t6 104.5t-6 103t-22.5 86t-44.5 59t-72 22zM295 -10q-72 0 -118.5 28.5t-73.5 77t-37.5 113t-10.5 136.5q0 71 10.5 134t37.5 110t73.5 74
t118.5 27t118.5 -27t73.5 -74t37.5 -110t10.5 -134q0 -72 -10.5 -136.5t-37.5 -113t-73.5 -77t-118.5 -28.5z" />
    <glyph glyph-name="one" unicode="1" horiz-adv-x="380" 
d="M225 577l-159 -81l-32 69q60 26 118.5 57.5t97.5 62.5h65v-685h-90v577z" />
    <glyph glyph-name="two" unicode="2" horiz-adv-x="550" 
d="M250 607q-37 0 -75.5 -7.5t-92.5 -31.5l-27 72q27 12 52.5 21.5t51 15.5t52.5 9.5t59 3.5q55 0 96 -16t67 -44t39 -64.5t13 -78.5q0 -105 -76 -202t-226 -203v-2h312v-80h-440v88q107 71 173 128.5t102 104t48 82.5t12 64q0 47 -15.5 74.5t-37.5 42t-46 19t-41 4.5z" />
    <glyph glyph-name="three" unicode="3" horiz-adv-x="570" 
d="M272 615q-47 0 -87.5 -10.5t-85.5 -31.5l-28 69q53 26 108 37t109 11q46 0 84.5 -12t65.5 -34.5t42 -55.5t15 -76q0 -62 -36.5 -102.5t-92.5 -58.5v-2q72 -14 110.5 -60t38.5 -109q0 -91 -60 -140.5t-177 -49.5q-61 0 -116 10.5t-107 37.5l28 69q45 -22 92 -32t97 -10
q49 0 78.5 13t45.5 31.5t21 39t5 36.5q0 54 -39 85.5t-123 31.5h-85v76h81q40 0 68.5 11t46.5 28.5t26 39.5t8 45q0 17 -5.5 36.5t-20 36.5t-40.5 28.5t-67 11.5z" />
    <glyph glyph-name="four" unicode="4" horiz-adv-x="590" 
d="M360 250l-2 312q-46 -89 -101.5 -164t-118.5 -148h222zM450 680v-430h95v-75h-95v-175h-90v175h-315v75q83 91 160.5 200t131.5 230h113z" />
    <glyph glyph-name="five" unicode="5" horiz-adv-x="570" 
d="M270 -10q-60 0 -110 12t-105 38l27 69q54 -26 96 -35t87 -9q70 0 112.5 40.5t42.5 109.5q0 25 -7 50.5t-23 46t-42 33t-63 12.5q-79 0 -130 -66l-66 6l16 383h370v-80h-292l-14 -228l2 -1q26 27 63 45.5t82 18.5q91 0 145 -56t54 -159q0 -113 -66 -171.5t-179 -58.5z" />
    <glyph glyph-name="six" unicode="6" horiz-adv-x="570" 
d="M147 367q29 39 70.5 63.5t89.5 24.5q98 0 153 -61t55 -174q0 -54 -17 -96.5t-46.5 -72.5t-70 -45.5t-88.5 -15.5q-68 0 -114 26t-73.5 69.5t-39 99t-11.5 115.5q0 112 22.5 187t61.5 120t90.5 64t109.5 19q49 0 84.5 -7.5t70.5 -18.5l-12 -69q-41 11 -72 15.5t-64 4.5
q-53 0 -91 -23.5t-62.5 -60t-36 -80t-11.5 -83.5zM152 296q0 -8 -0.5 -17t-0.5 -17q0 -39 6 -74.5t21.5 -62.5t41.5 -43.5t67 -16.5q27 0 51 10t42 29.5t29 48.5t11 67q0 25 -5.5 53t-20.5 50.5t-41.5 37.5t-68.5 15q-41 0 -74.5 -23t-57.5 -57z" />
    <glyph glyph-name="seven" unicode="7" horiz-adv-x="500" 
d="M356 600h-311v80h410v-65q-37 -62 -75.5 -132.5t-72 -147.5t-60.5 -161t-42 -174h-100q11 71 37 151t60.5 159.5t74.5 154t79 133.5v2z" />
    <glyph glyph-name="eight" unicode="8" horiz-adv-x="590" 
d="M306 392q24 9 46 20t38 25.5t25.5 33t9.5 41.5q0 31 -12.5 52t-32 34t-43 18.5t-45.5 5.5q-20 0 -42.5 -5.5t-41 -17.5t-31 -32t-12.5 -50q0 -26 11.5 -45.5t31 -35t45 -26.5t53.5 -18zM282 311q-25 -9 -49 -21t-43 -28t-30.5 -36.5t-11.5 -47.5q0 -23 8 -44.5
t25.5 -38.5t46 -27t70.5 -10q40 0 68 9.5t44.5 25t24 35.5t7.5 42q0 31 -14.5 53t-38 38t-52 27.5t-55.5 22.5zM292 -10q-52 0 -95.5 11t-75 33.5t-49 56t-17.5 78.5q0 34 12 61t33 48.5t50 38t63 28.5v2q-30 13 -55.5 29t-44 36t-28.5 46t-10 58q0 42 17.5 74.5t47.5 54.5
t70.5 33.5t87.5 11.5q44 0 83.5 -11t69 -33t47 -53.5t17.5 -72.5q0 -31 -10 -54.5t-28 -42.5t-43.5 -34.5t-57.5 -29.5v-2q35 -15 64.5 -32.5t50.5 -39t32.5 -48t11.5 -59.5q0 -46 -18 -81t-50 -59t-76.5 -36t-98.5 -12z" />
    <glyph glyph-name="nine" unicode="9" horiz-adv-x="570" 
d="M423 313q-29 -40 -70.5 -64t-90.5 -24q-97 0 -152 61t-55 174q0 54 16.5 96.5t46.5 72.5t70.5 45.5t88.5 15.5q68 0 114 -26t73.5 -69.5t39 -99t11.5 -115.5q0 -113 -22.5 -188t-61.5 -120t-90.5 -63.5t-109.5 -18.5q-49 0 -84.5 7t-70.5 18l11 70q41 -11 72.5 -15.5
t63.5 -4.5q53 0 91 23.5t62.5 60t36 80t12.5 83.5zM417 383q1 9 1 17.5v16.5q0 39 -6 75t-21.5 63.5t-42 43.5t-66.5 16q-27 0 -51 -10t-42 -29.5t-28.5 -48.5t-10.5 -67q0 -26 5.5 -53.5t20.5 -50.5t41.5 -38t68.5 -15q41 0 74 23t57 57z" />
    <glyph glyph-name="colon" unicode=":" horiz-adv-x="200" 
d="M55 130h90v-130h-90v130zM55 460h90v-130h-90v130z" />
    <glyph glyph-name="semicolon" unicode=";" horiz-adv-x="200" 
d="M145 460v-130h-90v130h90zM70 -130l20 130h-35v130h90v-130l-45 -130h-30z" />
    <glyph glyph-name="less" unicode="&#x3c;" horiz-adv-x="480" 
d="M425 465v-80l-275 -135l275 -135v-80l-370 187v56z" />
    <glyph glyph-name="equal" unicode="=" horiz-adv-x="500" 
d="M445 403v-76h-390v76h390zM445 203v-76h-390v76h390z" />
    <glyph glyph-name="greater" unicode="&#x3e;" horiz-adv-x="480" 
d="M425 278v-56l-370 -187v80l275 135l-275 135v80z" />
    <glyph glyph-name="question" unicode="?" horiz-adv-x="480" 
d="M240 690q56 0 93.5 -15t60 -39.5t31.5 -55t9 -60.5q0 -40 -13.5 -69.5t-34 -53t-44.5 -42t-44.5 -36.5t-34 -37t-13.5 -42v-30h-80v30q0 37 12.5 62t32 44.5t41.5 35t41.5 32.5t32 39t12.5 53q0 34 -13 54t-32 30t-40 12.5t-37 2.5q-25 0 -64.5 -7.5t-84.5 -23.5l-26 77
q42 17 93 28t102 11zM255 130v-130h-90v130h90z" />
    <glyph glyph-name="at" unicode="@" horiz-adv-x="830" 
d="M566 119q52 0 86 21t54 51.5t28 66t8 65.5q0 63 -24.5 114t-66.5 87t-98 55.5t-119 19.5q-75 0 -138.5 -25t-109.5 -70.5t-72 -109.5t-26 -141q0 -70 23.5 -129t65.5 -102t100 -67t127 -24l-5 -51q-81 0 -149 28.5t-116.5 78.5t-76 118t-27.5 148q0 87 30.5 160.5
t84.5 126.5t128 82.5t161 29.5q76 0 142.5 -23.5t116 -66.5t78.5 -103t29 -133q0 -53 -15.5 -100.5t-46.5 -83t-77 -56t-107 -20.5h-60v39h-1q-26 -25 -55 -35.5t-67 -10.5q-58 0 -91 31t-33 82q0 33 12.5 56t34.5 37.5t52 20.5t65 6h83v36q0 37 -18.5 57.5t-66.5 20.5
q-22 0 -56 -5.5t-72 -16.5l-13 48q38 13 78 21t81 8q33 0 58.5 -6t43.5 -21t27.5 -40t9.5 -62v-213zM494 249h-71q-21 0 -40 -3t-33.5 -10.5t-23 -21.5t-8.5 -36q0 -30 20.5 -47t58.5 -17q39 0 62.5 11t34.5 21v103z" />
    <glyph glyph-name="A" unicode="A" horiz-adv-x="650" 
d="M35 0l234 685h117l229 -685h-106l-56 172h-259l-58 -172h-101zM325 566l-111 -313h219l-107 313h-1z" />
    <glyph glyph-name="B" unicode="B" horiz-adv-x="610" 
d="M160 305v-220h185q57 0 88.5 26t31.5 84q0 110 -130 110h-175zM160 595v-205h170q115 0 115 102q0 49 -29 76t-86 27h-170zM434 349q63 -15 97 -58t34 -108q0 -85 -51.5 -134t-153.5 -49h-295v680h275q102 0 153.5 -46.5t51.5 -126.5q0 -57 -28.5 -98.5t-82.5 -57.5v-2z
" />
    <glyph glyph-name="C" unicode="C" horiz-adv-x="620" 
d="M155 345q0 -58 8.5 -107.5t31 -85.5t61 -56.5t97.5 -20.5q21 0 41 1t43.5 4.5t53 9.5t68.5 15l21 -80q-64 -19 -120 -27t-115 -8q-87 0 -143.5 28t-89 76.5t-45 113t-12.5 137.5q0 71 12.5 134t45 110t89 74t143.5 27q59 0 115 -8t120 -27l-21 -80q-39 9 -68.5 15
t-53 9.5t-43.5 4.5t-41 1q-59 0 -97.5 -20t-61 -55.5t-31 -83t-8.5 -101.5z" />
    <glyph glyph-name="D" unicode="D" horiz-adv-x="650" 
d="M307 680q84 0 139.5 -25.5t88.5 -70.5t46.5 -106.5t13.5 -132.5q0 -72 -13.5 -135t-46.5 -109.5t-88.5 -73.5t-139.5 -27h-242v680h242zM160 595v-510h147q57 0 93.5 20t57.5 55.5t29 83t8 101.5t-8 100t-29 79.5t-57.5 52t-93.5 18.5h-147z" />
    <glyph glyph-name="E" unicode="E" horiz-adv-x="560" 
d="M505 85v-85h-440v680h435v-85h-340v-200h295v-85h-295v-225h345z" />
    <glyph glyph-name="F" unicode="F" horiz-adv-x="535" 
d="M65 0v680h425v-85h-330v-220h285v-85h-285v-290h-95z" />
    <glyph glyph-name="G" unicode="G" horiz-adv-x="640" 
d="M345 -10q-87 0 -143.5 28t-89 76.5t-45 113t-12.5 137.5q0 71 12.5 134t45 110t89 74t143.5 27q59 0 115 -8t120 -27l-21 -80q-39 9 -68.5 15t-53 9.5t-43.5 4.5t-41 1q-59 0 -97.5 -20t-61 -55.5t-31 -83t-8.5 -101.5q0 -58 8.5 -107.5t31 -85.5t61 -56.5t97.5 -20.5
q37 0 68 9t59 25v156h-130v85h225v-306q-52 -22 -105 -38t-125 -16z" />
    <glyph glyph-name="H" unicode="H" horiz-adv-x="640" 
d="M160 310v-310h-95v680h95v-285h320v285h95v-680h-95v310h-320z" />
    <glyph glyph-name="I" unicode="I" horiz-adv-x="225" 
d="M65 0v680h95v-680h-95z" />
    <glyph glyph-name="J" unicode="J" horiz-adv-x="335" 
d="M175 680h95v-509q0 -50 -11 -84.5t-31.5 -56t-50.5 -31t-67 -9.5q-50 0 -93 8l9 80q17 -3 30.5 -4t28.5 -1q45 0 67.5 23t22.5 80v504z" />
    <glyph glyph-name="K" unicode="K" horiz-adv-x="628" 
d="M271 322l-111 -125v-197h-95v680h95v-352l311 352h114l-244 -282l249 -398h-119z" />
    <glyph glyph-name="L" unicode="L" horiz-adv-x="540" 
d="M495 85v-85h-430v680h95v-595h335z" />
    <glyph glyph-name="M" unicode="M" horiz-adv-x="800" 
d="M404 163l206 517h125v-680h-95v505h-2l-205 -505h-71l-202 505h-2v-505h-93v680h125l212 -517h2z" />
    <glyph glyph-name="N" unicode="N" horiz-adv-x="650" 
d="M485 0l-325 494h-2v-494h-93v680h95l330 -504h2v504h93v-680h-100z" />
    <glyph glyph-name="O" unicode="O" horiz-adv-x="690" 
d="M345 610q-61 0 -98 -21t-57.5 -57t-27.5 -84.5t-7 -102.5t7 -104t27.5 -88t57.5 -60.5t98 -22.5t98 22.5t57.5 60.5t27.5 88t7 104t-7 102.5t-27.5 84.5t-57.5 57t-98 21zM345 -10q-87 0 -143.5 28.5t-89 77t-45 113t-12.5 136.5q0 71 12.5 134t45 110t89 74t143.5 27
t143.5 -27t89 -74t45 -110t12.5 -134q0 -72 -12.5 -136.5t-45 -113t-89 -77t-143.5 -28.5z" />
    <glyph glyph-name="P" unicode="P" 
d="M160 270v-270h-95v680h280q51 0 90 -15t65.5 -42.5t40.5 -65t14 -82.5q0 -94 -54 -149.5t-156 -55.5h-185zM160 355h175q57 0 89.5 28.5t32.5 91.5q0 58 -32.5 89t-89.5 31h-175v-240z" />
    <glyph glyph-name="Q" unicode="Q" horiz-adv-x="690" 
d="M55 345q0 71 12.5 134t45 110t89 74t143.5 27t143 -27t89 -74t45.5 -110t12.5 -134q0 -69 -12.5 -126.5t-39.5 -100t-70.5 -68t-105.5 -28.5v-2q23 -19 64 -28t91 -9q28 0 58 3v-86q-17 -2 -33.5 -3t-33.5 -1q-77 0 -137.5 23t-91.5 71q-80 4 -131.5 33.5t-82.5 77.5
t-43 111t-12 133zM345 610q-61 0 -98.5 -21t-57.5 -57t-27 -84.5t-7 -102.5t7 -104t27 -88t57.5 -60.5t98.5 -22.5t98 22.5t57.5 60.5t27.5 88t7 104t-7 102.5t-27.5 84.5t-57.5 57t-98 21z" />
    <glyph glyph-name="R" unicode="R" horiz-adv-x="615" 
d="M305 265h-145v-265h-95v680h280q51 0 90 -15.5t65.5 -43t40.5 -66t14 -83.5q0 -72 -38 -125t-113 -67l174 -280h-112zM160 350h170q57 0 92 30t35 92q0 59 -32.5 91t-89.5 32h-175v-245z" />
    <glyph glyph-name="S" unicode="S" 
d="M300 75q37 0 64.5 9t45.5 24t26.5 34.5t8.5 40.5q0 31 -16.5 51t-41.5 33.5t-55 21.5t-57 16q-42 11 -80 28t-67 42t-46 58.5t-17 76.5q0 48 18.5 82.5t50.5 56t74.5 31.5t91.5 10q57 0 111.5 -8t118.5 -27l-21 -80q-39 9 -69 15t-54 9.5t-44.5 4.5t-41.5 1
q-38 0 -63.5 -8t-41.5 -21.5t-23 -31t-7 -37.5q0 -29 17 -49t42.5 -34t56.5 -23t59 -16q42 -9 79 -24t65 -38.5t44.5 -56t16.5 -76.5q0 -51 -18.5 -88.5t-51.5 -62t-78 -37t-97 -12.5q-57 0 -119 8t-126 27l16 80q78 -19 132.5 -24.5t96.5 -5.5z" />
    <glyph glyph-name="T" unicode="T" horiz-adv-x="560" 
d="M328 595v-595h-96v595h-187v85h470v-85h-187z" />
    <glyph glyph-name="U" unicode="U" horiz-adv-x="640" 
d="M322 70q52 0 83.5 16t48 41t21.5 55t5 58v440h95v-440q0 -131 -67 -190.5t-188 -59.5q-122 0 -188.5 59.5t-66.5 190.5v440h95v-440q0 -36 8 -67t26.5 -54t49.5 -36t78 -13z" />
    <glyph glyph-name="V" unicode="V" horiz-adv-x="650" 
d="M330 114l184 566h101l-229 -685h-117l-234 685h106l188 -566h1z" />
    <glyph glyph-name="W" unicode="W" horiz-adv-x="940" 
d="M469 527l-134 -532h-123l-177 685h106l137 -562h1l137 562h113l139 -562h1l135 562h101l-177 -685h-123l-134 532h-2z" />
    <glyph glyph-name="X" unicode="X" horiz-adv-x="650" 
d="M498 0l-181 278l-173 -278h-107l222 355l-204 325h111l158 -247l154 247h112l-205 -325l227 -355h-114v0z" />
    <glyph glyph-name="Y" unicode="Y" horiz-adv-x="620" 
d="M314 338l167 342h104l-227 -440v-240h-96v240l-227 440h109l168 -342h2z" />
    <glyph glyph-name="Z" unicode="Z" horiz-adv-x="560" 
d="M173 85h347v-85h-480v70l341 523v2h-321v85h450v-70l-337 -523v-2z" />
    <glyph glyph-name="bracketleft" unicode="[" horiz-adv-x="300" 
d="M265 -85v-55h-210v960h210v-55h-115v-850h115z" />
    <glyph glyph-name="backslash" unicode="\" horiz-adv-x="540" 
d="M45 680h80l370 -680h-80z" />
    <glyph glyph-name="bracketright" unicode="]" horiz-adv-x="300" 
d="M150 -85v850h-115v55h210v-960h-210v55h115z" />
    <glyph glyph-name="asciicircum" unicode="^" horiz-adv-x="380" 
d="M190 649l-85 -139h-50l105 190h59l106 -190h-50z" />
    <glyph glyph-name="underscore" unicode="_" horiz-adv-x="500" 
d="M445 -60v-55h-390v55h390z" />
    <glyph glyph-name="grave" unicode="`" horiz-adv-x="290" 
d="M160 560l-78 140h88l50 -140h-60v0z" />
    <glyph glyph-name="a" unicode="a" horiz-adv-x="505" 
d="M72 489q51 10 101 15.5t92 5.5q45 0 79.5 -7.5t58 -26.5t35.5 -50.5t12 -80.5v-345h-90v50h-2q-36 -32 -72.5 -46t-85.5 -14q-75 0 -117.5 41t-42.5 107q0 42 16.5 71t45 47t66.5 26t82 8h110v50q0 50 -26.5 72.5t-88.5 22.5q-29 0 -66 -4t-93 -15zM360 235h-105
q-69 0 -97 -23.5t-28 -66.5q0 -39 28 -62t77 -23q43 0 75.5 14.5t49.5 28.5v132z" />
    <glyph glyph-name="b" unicode="b" horiz-adv-x="530" 
d="M145 450h2q26 26 67 43t86 17q52 0 87.5 -20t57.5 -55.5t31 -83t9 -101.5t-10 -101.5t-32.5 -83t-59 -55.5t-88.5 -20q-43 0 -83.5 15.5t-69.5 41.5h-2l-16 -49h-69v702h90v-250zM390 250q0 37 -6 71t-20 59t-38.5 40t-60.5 15q-42 0 -73.5 -15t-46.5 -28v-285
q15 -12 46.5 -27t73.5 -15q36 0 60.5 15t38.5 40t20 58.5t6 71.5z" />
    <glyph glyph-name="c" unicode="c" horiz-adv-x="480" 
d="M45 250q0 58 12.5 106t41.5 82t75.5 53t115.5 19q47 0 86 -6t84 -17l-17 -72q-30 7 -52.5 11.5t-40.5 6t-32.5 2t-27.5 0.5q-75 0 -112.5 -49.5t-37.5 -135.5q0 -40 8.5 -74t26.5 -58.5t46.5 -38.5t68.5 -14q13 0 27.5 0.5t32.5 2t40.5 5.5t52.5 12l17 -73
q-45 -11 -84 -16.5t-86 -5.5q-69 0 -115.5 19t-75.5 53t-41.5 82t-12.5 106z" />
    <glyph glyph-name="d" unicode="d" horiz-adv-x="530" 
d="M385 50h-2q-27 -26 -67.5 -43t-85.5 -17q-53 0 -88 20t-57 55.5t-31 83t-9 101.5t10 101.5t32.5 83t58.5 55.5t89 20q43 0 82 -16t66 -42h2v248h90v-700h-90v50zM140 250q0 -38 5.5 -71.5t20 -58.5t38.5 -40t61 -15q42 0 73 15t47 27v285q-16 13 -47 28t-73 15
q-37 0 -61 -15t-38.5 -40t-20 -59t-5.5 -71z" />
    <glyph glyph-name="e" unicode="e" horiz-adv-x="530" 
d="M142 235q1 -38 10.5 -69t29 -53.5t50.5 -35t75 -12.5q37 0 74.5 3t81.5 17l12 -73q-48 -13 -89.5 -17.5t-90.5 -4.5q-69 0 -117 19t-77.5 53t-42.5 82t-13 106t13 106t42 82t75.5 53t114.5 19q51 0 86.5 -11.5t59 -32t36 -47.5t17 -57.5t2.5 -63t-7 -63.5h-342zM285 440
q-38 0 -64 -11.5t-42.5 -31t-25 -47t-11.5 -58.5h258q4 27 1.5 53.5t-15.5 47.5t-37 34t-64 13z" />
    <glyph glyph-name="f" unicode="f" horiz-adv-x="345" 
d="M185 500h120v-65h-120v-435h-90v435h-75v59l75 6v62q0 35 7 61t23.5 43t44.5 25.5t70 8.5q20 0 39.5 -2.5t40.5 -5.5l-9 -72q-25 3 -40.5 4t-32.5 1q-30 0 -41.5 -17.5t-11.5 -52.5v-55z" />
    <glyph glyph-name="g" unicode="g" horiz-adv-x="555" 
d="M116 33q-23 13 -32 34t-4.5 44.5t21 46.5t44.5 40v2q-38 19 -60.5 55t-22.5 85q0 83 54.5 126.5t148.5 43.5q20 0 37.5 -2.5t31.5 -7.5h176v-55h-97v-2q27 -19 38.5 -48t11.5 -55q0 -42 -15 -73t-41.5 -51.5t-63 -30.5t-78.5 -10q-15 0 -35 2.5t-37 8.5
q-14 -14 -21.5 -30.5t-7 -30.5t9 -23.5t26.5 -10.5l179 -11q78 -5 112 -34t34 -81q0 -87 -70 -131t-220 -44q-102 0 -153.5 31.5t-51.5 98.5q0 34 20.5 61t65.5 50v2zM105 -65q0 -42 38 -63.5t110 -21.5q36 0 68 6t56 18t38.5 30.5t14.5 43.5q0 22 -18 39.5t-65 19.5
l-185 10q-24 -17 -40.5 -35t-16.5 -47zM265 235q53 0 84 27.5t31 77.5q0 51 -31.5 80.5t-83.5 29.5q-58 0 -87.5 -29.5t-29.5 -80.5t31.5 -78t85.5 -27z" />
    <glyph glyph-name="h" unicode="h" horiz-adv-x="530" 
d="M145 0h-90v700h90v-270h2q36 35 80.5 57.5t97.5 22.5q75 0 112.5 -43t37.5 -122v-345h-90v325q0 23 -5.5 43t-17.5 35t-31 23.5t-46 8.5q-22 0 -42.5 -6t-38.5 -14.5t-33 -18.5t-26 -19v-377z" />
    <glyph glyph-name="i" unicode="i" horiz-adv-x="200" 
d="M55 500h90v-500h-90v500zM55 700h90v-125h-90v125z" />
    <glyph glyph-name="j" unicode="j" horiz-adv-x="240" 
d="M95 700h90v-125h-90v125zM95 500h90v-572q0 -71 -31.5 -104.5t-113.5 -33.5q-37 0 -80 8l9 70q16 -3 28 -4t23 -1q43 0 59 15.5t16 57.5v564z" />
    <glyph glyph-name="k" unicode="k" horiz-adv-x="540" 
d="M145 0h-90v700h90v-404l240 204h110l-190 -173l200 -327h-107l-156 266l-97 -81v-185z" />
    <glyph glyph-name="l" unicode="l" horiz-adv-x="200" 
d="M55 700h90v-700h-90v700z" />
    <glyph glyph-name="m" unicode="m" horiz-adv-x="830" 
d="M145 0h-90v500h90v-70h2q30 32 70 56t93 24q106 0 137 -88q35 39 80.5 63.5t97.5 24.5q75 0 112.5 -43t37.5 -122v-345h-90v325q0 47 -23.5 78.5t-76.5 31.5q-20 0 -38 -6t-34 -14.5t-30 -19l-26 -19.5q3 -26 3 -55v-321h-90v328q0 46 -23.5 76.5t-76.5 30.5
q-40 0 -71 -20t-54 -38v-377z" />
    <glyph glyph-name="n" unicode="n" horiz-adv-x="530" 
d="M145 0h-90v500h90v-70h2q36 35 80.5 57.5t97.5 22.5q75 0 112.5 -43t37.5 -122v-345h-90v325q0 48 -22.5 79t-77.5 31q-22 0 -42.5 -6t-38.5 -14.5t-33 -18.5t-26 -19v-377z" />
    <glyph glyph-name="o" unicode="o" horiz-adv-x="550" 
d="M275 435q-39 0 -65 -14t-41.5 -39t-22 -59t-6.5 -73t6.5 -73t22 -59t41.5 -39t65 -14t65 14t41.5 39t22 59t6.5 73t-6.5 73t-22 59t-41.5 39t-65 14zM275 -10q-63 0 -107 19t-71 53t-39.5 82t-12.5 106t12.5 106t39.5 82t71 53t107 19t106.5 -19t71 -53t40 -82t12.5 -106
t-12.5 -106t-40 -82t-71 -53t-106.5 -19z" />
    <glyph glyph-name="p" unicode="p" horiz-adv-x="530" 
d="M145 450h2q26 26 67 43t86 17q52 0 87.5 -20t57.5 -55.5t31 -83t9 -101.5t-10 -101.5t-32.5 -83t-59 -55.5t-88.5 -20q-43 0 -82.5 15.5t-65.5 41.5h-2v-247h-90v700h90v-50zM390 250q0 37 -6 71t-20 59t-38.5 40t-60.5 15q-42 0 -73.5 -15t-46.5 -28v-285
q15 -12 46.5 -27t73.5 -15q36 0 60.5 15t38.5 40t20 58.5t6 71.5z" />
    <glyph glyph-name="q" unicode="q" horiz-adv-x="530" 
d="M385 50h-2q-27 -26 -67.5 -43t-85.5 -17q-53 0 -88 20t-57 55.5t-31 83t-9 101.5t10 101.5t32.5 83t58.5 55.5t89 20q43 0 83.5 -16t69.5 -42h2l16 50h69v-702h-90v250zM140 250q0 -38 5.5 -71.5t20 -58.5t38.5 -40t61 -15q42 0 73 15t47 27v285q-16 13 -47 28t-73 15
q-37 0 -61 -15t-38.5 -40t-20 -59t-5.5 -71z" />
    <glyph glyph-name="r" unicode="r" horiz-adv-x="370" 
d="M145 0h-90v500h90v-80h2q15 17 35 33t44 29t51.5 20.5t57.5 7.5v-85q-28 0 -55.5 -5.5t-52.5 -14t-46 -18.5t-36 -20v-367z" />
    <glyph glyph-name="s" unicode="s" horiz-adv-x="480" 
d="M245 63q34 0 55 9t32 21t14.5 24.5t3.5 19.5q0 12 -5 23t-18 20t-35 17t-55 14q-40 7 -74 18.5t-59 29.5t-39.5 45t-14.5 66q0 72 48 106t137 34q59 0 107 -6t93 -17l-16 -72q-60 15 -106.5 18.5t-72.5 3.5q-34 0 -53.5 -8t-30 -18.5t-13.5 -21.5t-3 -17q0 -12 4 -22.5
t15.5 -20t32.5 -18t55 -15.5q39 -8 74 -18.5t61.5 -28t42 -43t15.5 -63.5q0 -76 -48 -114.5t-137 -38.5q-59 0 -114.5 6t-100.5 17l16 72q60 -15 111.5 -18.5t77.5 -3.5z" />
    <glyph glyph-name="t" unicode="t" horiz-adv-x="375" 
d="M95 435h-75v59l75 6l11 140h79v-140h140v-65h-140v-275q0 -43 18 -70.5t67 -27.5q11 0 23 1.5l28 3.5l9 -69q-20 -2 -42 -5t-42 -3q-74 0 -112.5 34.5t-38.5 120.5v290z" />
    <glyph glyph-name="u" unicode="u" horiz-adv-x="530" 
d="M385 500h90v-500h-90v70h-2q-36 -36 -80.5 -58t-97.5 -22q-75 0 -112.5 43t-37.5 122v345h90v-325q0 -48 23 -79t77 -31q21 0 41.5 6t38.5 14.5t33.5 18.5t26.5 18v378z" />
    <glyph glyph-name="v" unicode="v" horiz-adv-x="560" 
d="M225 -5l-185 505h101l140 -404h2l141 404h96l-186 -505h-109z" />
    <glyph glyph-name="w" unicode="w" horiz-adv-x="790" 
d="M393 361l-100 -366h-101l-152 505h100l111 -404h2l100 404h88l106 -404h2l106 404h95l-150 -505h-100l-105 366h-2z" />
    <glyph glyph-name="x" unicode="x" horiz-adv-x="545" 
d="M403 0l-138 194l-133 -194h-97l183 260l-168 240h104l123 -175l121 175h94l-168 -237l186 -263h-107v0z" />
    <glyph glyph-name="y" unicode="y" horiz-adv-x="560" 
d="M40 500h101l145 -409h2l136 409h96l-188 -530q-34 -98 -81.5 -139t-120.5 -41q-18 0 -38.5 2t-36.5 6l8 75q13 -3 25 -4t22 -1q25 0 44.5 11t34.5 28.5t26 39.5t19 44z" />
    <glyph glyph-name="z" unicode="z" horiz-adv-x="470" 
d="M433 435l-288 -363v-2h298v-70h-416v65l290 363v2h-275v70h391v-65z" />
    <glyph glyph-name="braceleft" unicode="{" horiz-adv-x="340" 
d="M55 365q26 4 40.5 14t21 25.5t7.5 36t1 44.5q0 45 -5 94t-5 95q0 49 14.5 78t40 44t60 19.5t75.5 4.5v-40q-18 0 -35 -2t-30.5 -12.5t-21.5 -32.5t-8 -63q0 -23 2 -50t4 -55t4 -55.5t2 -50.5q0 -30 -6.5 -50t-18.5 -33.5t-28.5 -21.5t-36.5 -13v-2q20 -5 36.5 -13
t28.5 -21.5t18.5 -33.5t6.5 -50q0 -23 -2 -50.5t-4 -55.5t-4 -55t-2 -50q0 -41 8 -63t21.5 -32.5t30.5 -12.5t35 -2v-40q-41 0 -75.5 4.5t-60 19.5t-40 44t-14.5 78q0 46 5 95t5 94q0 24 -1 44.5t-7.5 36t-21 25.5t-40.5 14v50z" />
    <glyph glyph-name="bar" unicode="|" horiz-adv-x="170" 
d="M55 -100v880h60v-880h-60z" />
    <glyph glyph-name="braceright" unicode="}" horiz-adv-x="340" 
d="M285 315q-26 -4 -40.5 -14t-21 -25.5t-7.5 -36t-1 -44.5q0 -45 5 -94t5 -95q0 -49 -14.5 -78t-40 -44t-60 -19.5t-75.5 -4.5v40q18 0 35 2t30.5 12.5t21.5 32.5t8 63q0 23 -2 50t-4 55t-4 55.5t-2 50.5q0 30 6.5 50t18.5 33.5t28.5 21.5t36.5 13v2q-20 5 -36.5 13
t-28.5 21.5t-18.5 33.5t-6.5 50q0 23 2 50.5t4 55.5t4 55t2 50q0 41 -8 63t-21.5 32.5t-30.5 12.5t-35 2v40q41 0 75.5 -4.5t60 -19.5t40 -44t14.5 -78q0 -46 -5 -95t-5 -94q0 -24 1 -44.5t7.5 -36t21 -25.5t40.5 -14v-50z" />
    <glyph glyph-name="asciitilde" unicode="~" horiz-adv-x="460" 
d="M151 320q-14 0 -31 -7.5t-49 -40.5l-29 23q29 48 55 67.5t52 19.5q18 0 43.5 -8t52 -18t49.5 -18t36 -8q14 0 29.5 5.5t35.5 35.5l25 -28q-17 -34 -37 -53.5t-47 -19.5q-18 0 -43 8t-51.5 17t-50.5 17t-40 8z" />
    <glyph glyph-name="exclamdown" unicode="&#xa1;" horiz-adv-x="200" 
d="M55 500h90v-130h-90v130zM60 280h80l5 -480h-90z" />
    <glyph glyph-name="cent" unicode="&#xa2;" horiz-adv-x="510" 
d="M287 -100v91q-54 2 -97 21.5t-73 53.5t-46 80.5t-16 103.5q0 56 16 103t46 81t73 53.5t97 21.5v91h40v-92q41 -2 73.5 -11t69.5 -25l-11 -70q-38 14 -67 22t-65 10v-369q36 2 65 10t67 22l11 -70q-37 -16 -69.5 -24.5t-73.5 -10.5v-92h-40zM150 250q0 -38 9 -70
t26.5 -56.5t43 -39t58.5 -17.5v365q-33 -3 -58.5 -17.5t-43 -39t-26.5 -56.5t-9 -69z" />
    <glyph glyph-name="sterling" unicode="&#xa3;" horiz-adv-x="620" 
d="M105 380v130q0 48 17.5 82.5t48.5 56t73 31.5t91 10q70 0 131.5 -17t103.5 -43l-38 -75q-53 28 -101 39t-91 11q-39 0 -67 -8.5t-45 -22.5t-25 -34t-8 -42v-118h230v-70h-230v-230h350v-80h-490v80h50v230h-50v70h50z" />
    <glyph glyph-name="currency" unicode="&#xa4;" horiz-adv-x="513" 
d="M100 249q0 34 12.5 63t35.5 51l-78 90l8 8l79 -90q20 17 45.5 26.5t54.5 9.5q28 0 53.5 -9.5t45.5 -26.5l78 90l9 -8l-78 -89q23 -22 36.5 -51.5t13.5 -63.5t-13 -63.5t-36 -50.5l76 -86l-9 -9l-77 87q-20 -17 -45.5 -26t-53.5 -9q-29 0 -54.5 9t-45.5 26l-76 -87l-9 9
l76 86q-23 22 -35.5 51t-12.5 63zM112 249q0 -30 11.5 -56t31.5 -46t46 -31.5t56 -11.5t56.5 11.5t46.5 31.5t31.5 46t11.5 56t-11.5 56.5t-31.5 46.5t-46.5 31.5t-56.5 11.5t-56 -11.5t-46 -31.5t-31.5 -46.5t-11.5 -56.5z" />
    <glyph glyph-name="yen" unicode="&#xa5;" horiz-adv-x="660" 
d="M545 270v-55h-167v-215h-96v215h-167v55h153l-213 410h109l168 -342h2l167 342h104l-213 -410h153z" />
    <glyph glyph-name="brokenbar" unicode="&#xa6;" horiz-adv-x="170" 
d="M55 380v400h60v-400h-60zM55 -100v400h60v-400h-60z" />
    <glyph glyph-name="section" unicode="&#xa7;" 
d="M545 340q0 -57 -24.5 -97t-66.5 -63q38 -26 62 -62.5t24 -87.5q0 -48 -18.5 -82.5t-50.5 -56t-74.5 -31.5t-91.5 -10q-70 0 -129 17t-101 43l37 75q53 -28 101.5 -39t91.5 -11q66 0 100.5 27t34.5 68q0 30 -19 51t-46 35.5t-57 23.5t-53 15q-42 10 -79 25t-65 38
t-44.5 55t-16.5 77q0 56 24 96t66 63q-38 26 -61.5 63t-23.5 88q0 48 18.5 82.5t50.5 56t74.5 31.5t91.5 10q70 0 129 -17t101 -43l-38 -75q-53 28 -101 39t-91 11q-73 0 -104 -27.5t-31 -67.5q0 -30 19 -51t46 -35.5t57 -23.5t53 -15q41 -10 78.5 -25t65.5 -38.5
t44.5 -55.5t16.5 -76zM232 467q-37 -17 -54.5 -49.5t-17.5 -62.5q0 -28 14 -47t34.5 -32t44 -20.5t42.5 -12.5t38 -10.5t38 -12.5q38 17 56 49t18 66q0 30 -17 50t-42 32.5t-52.5 20.5t-48.5 14z" />
    <glyph glyph-name="dieresis" unicode="&#xa8;" horiz-adv-x="480" 
d="M155 580h-80v120h80v-120zM405 580h-80v120h80v-120z" />
    <glyph glyph-name="copyright" unicode="&#xa9;" horiz-adv-x="765" 
d="M30 340q0 73 27.5 137t75.5 111t112 74.5t137 27.5t137.5 -27.5t112.5 -74.5t75.5 -111t27.5 -137t-27.5 -137t-75.5 -111t-112.5 -74.5t-137.5 -27.5t-137 27.5t-112 74.5t-75.5 111t-27.5 137zM73 340q0 -64 24 -120.5t66 -98.5t98.5 -66.5t120.5 -24.5t120.5 24.5
t98.5 66.5t66.5 98.5t24.5 120.5t-24.5 120t-66.5 97.5t-98.5 65.5t-120.5 24t-120.5 -24t-98.5 -65.5t-66 -97.5t-24 -120zM389 467q-57 0 -84 -31.5t-27 -91.5q0 -64 27 -98.5t84 -34.5q23 0 49 6.5t52 23.5l21 -41q-18 -13 -48.5 -25.5t-76.5 -12.5q-81 0 -124.5 47
t-43.5 135q0 84 43.5 128t124.5 44q46 0 76.5 -12.5t48.5 -25.5l-20 -42q-27 17 -53 24t-49 7z" />
    <glyph glyph-name="ordfeminine" unicode="&#xaa;" horiz-adv-x="295" 
d="M61 675q26 5 51 7.5t46 2.5q45 0 68.5 -16.5t23.5 -65.5v-173h-45v25h-1q-18 -16 -36 -23t-43 -7q-38 0 -59 20.5t-21 53.5q0 42 30.5 59t74.5 17h55v25q0 25 -13 36.5t-44 11.5q-14 0 -33 -2t-47 -8zM205 548h-52q-35 0 -49 -12t-14 -33q0 -20 14 -31.5t39 -11.5
q21 0 37.5 7.5t24.5 14.5v66z" />
    <glyph glyph-name="guillemotleft" unicode="&#xab;" horiz-adv-x="730" 
d="M325 450v-95l-175 -105l175 -105v-95l-270 172v56zM675 450v-95l-175 -105l175 -105v-95l-270 172v56z" />
    <glyph glyph-name="logicalnot" unicode="&#xac;" horiz-adv-x="590" 
d="M515 303v-183h-75v107h-365v76h440z" />
    <glyph glyph-name="uni00AD" unicode="&#xad;" horiz-adv-x="540" 
d="M465 303v-76h-390v76h390z" />
    <glyph glyph-name="registered" unicode="&#xae;" horiz-adv-x="765" 
d="M467 168l-88 113h-68v-113h-55v344h138q58 0 93.5 -29t35.5 -85q0 -45 -22.5 -73t-61.5 -35l96 -122h-68zM311 331h81q34 0 54.5 16t20.5 51q0 32 -19.5 48t-53.5 16h-83v-131zM30 340q0 73 27.5 137t75.5 111t112 74.5t137 27.5t137.5 -27.5t112.5 -74.5t75.5 -111
t27.5 -137t-27.5 -137t-75.5 -111t-112.5 -74.5t-137.5 -27.5t-137 27.5t-112 74.5t-75.5 111t-27.5 137zM72 340q0 -64 24.5 -120.5t66.5 -98.5t98.5 -66.5t120.5 -24.5t120.5 24.5t98.5 66.5t66.5 98.5t24.5 120.5t-24.5 120t-66.5 97.5t-98.5 65.5t-120.5 24t-120.5 -24
t-98.5 -65.5t-66.5 -97.5t-24.5 -120z" />
    <glyph glyph-name="glyph112" unicode="&#xaf;" horiz-adv-x="440" 
d="M375 650v-65h-310v65h310z" />
    <glyph glyph-name="degree" unicode="&#xb0;" horiz-adv-x="260" 
d="M39 580q0 38 26.5 64.5t64.5 26.5t64.5 -26.5t26.5 -64.5t-26.5 -64.5t-64.5 -26.5t-64.5 26.5t-26.5 64.5zM75 580q0 -23 16 -39t39 -16t39 16t16 39t-16 39t-39 16t-39 -16t-16 -39z" />
    <glyph glyph-name="plusminus" unicode="&#xb1;" horiz-adv-x="500" 
d="M212 115v120h-157v75h157v158h76v-158h157v-75h-157v-120h157v-75h-390v75h157z" />
    <glyph glyph-name="twosuperior" unicode="&#xb2;" horiz-adv-x="311" 
d="M143 842q-19 0 -38.5 -5.5t-45.5 -18.5l-14 37q26 14 52.5 22t58.5 8q54 0 80 -30t26 -72q0 -53 -38 -100.5t-112 -99.5v-1h155v-42h-222v46q53 35 86 63.5t51 51.5t24 40.5t6 31.5q0 23 -7.5 37t-18.5 21t-23 9t-20 2z" />
    <glyph glyph-name="threesuperior" unicode="&#xb3;" horiz-adv-x="321" 
d="M158 841q-26 0 -48 -8t-42 -19l-15 37q24 14 52.5 21.5t57.5 7.5q46 0 75 -23t29 -66q0 -31 -18 -51t-46 -29v-1q36 -8 55 -31t19 -53q0 -46 -30.5 -71t-89.5 -25q-30 0 -59 7t-53 22l14 37q22 -11 45.5 -19t51.5 -8q22 0 36 5.5t22 14t11 18t3 17.5q0 28 -18 44.5
t-62 16.5h-42v40h40q40 0 56.5 19t16.5 42q0 9 -3 18.5t-9.5 17.5t-18.5 13.5t-30 5.5z" />
    <glyph glyph-name="acute" unicode="&#xb4;" horiz-adv-x="290" 
d="M205 700l-77 -140h-60l50 140h87v0z" />
    <glyph glyph-name="mu" unicode="&#xb5;" horiz-adv-x="530" 
d="M55 500h90v-325q0 -48 23 -79t77 -31q21 0 41.5 6t38.5 14.5t33.5 18.5t26.5 18v378h90v-500h-90v70h-2q-36 -36 -80.5 -58t-97.5 -22q-32 0 -60 10v-72q0 -71 -31.5 -104.5t-113.5 -33.5q-37 0 -80 8l9 70q16 -3 28 -4t23 -1q43 0 59 15.5t16 57.5v564z" />
    <glyph glyph-name="paragraph" unicode="&#xb6;" horiz-adv-x="565" 
d="M428 645v-645h-40v645h-65v-350h-92q-45 0 -82 14t-63.5 39.5t-41 61t-14.5 78.5q0 45 14.5 80.5t41 60.5t63.5 38t82 13h279v-35h-82z" />
    <glyph glyph-name="periodcentered.cap.aalt" unicode="&#xb7;" horiz-adv-x="200" 
d="M55 315h90v-130h-90v130z" />
    <glyph glyph-name="cedilla" unicode="&#xb8;" horiz-adv-x="294" 
d="M113 0h36v-55q14 -1 28.5 -5t26.5 -12.5t20 -21.5t8 -33q0 -35 -25.5 -59t-71.5 -24q-36 0 -75 12l6 36q12 -3 24 -5.5t28 -2.5q33 0 45 16.5t12 31.5t-13 30t-49 17v75z" />
    <glyph glyph-name="onesuperior" unicode="&#xb9;" horiz-adv-x="301" 
d="M139 579v250l-82 -42l-12 36q29 13 58.5 28.5t49.5 31.5h33v-304h70v-39h-187v39h70z" />
    <glyph glyph-name="ordmasculine" unicode="&#xba;" horiz-adv-x="320" 
d="M160 643q-39 0 -53 -26.5t-14 -66.5q0 -39 14 -65.5t53 -26.5t53.5 26.5t14.5 65.5q0 40 -14.5 66.5t-53.5 26.5zM160 420q-63 0 -89 36t-26 94q0 59 26 94.5t89 35.5t89 -35.5t26 -94.5q0 -58 -26 -94t-89 -36z" />
    <glyph glyph-name="guillemotright" unicode="&#xbb;" horiz-adv-x="730" 
d="M325 278v-56l-270 -172v95l175 105l-175 105v95zM675 278v-56l-270 -172v95l175 105l-175 105v95z" />
    <glyph glyph-name="onequarter" unicode="&#xbc;" horiz-adv-x="800" 
d="M267 0h-30l370 680h30zM149 379v250l-82 -42l-12 36q29 13 58.5 28.5t49.5 31.5h33v-304h70v-39h-187v39h70zM651 126v152h-1q-23 -44 -49.5 -80t-58.5 -72h109zM698 340v-214h47v-40h-47v-86h-47v86h-158v40q42 45 80.5 99.5t65.5 114.5h59z" />
    <glyph glyph-name="onehalf" unicode="&#xbd;" horiz-adv-x="800" 
d="M237 0h-30l370 680h30zM149 379v250l-82 -42l-12 36q29 13 58.5 28.5t49.5 31.5h33v-304h70v-39h-187v39h70zM621 302q-18 0 -38 -5.5t-46 -18.5l-14 37q26 14 52.5 22t58.5 8q54 0 80 -30t26 -72q0 -53 -38 -100.5t-112 -99.5v-1h155v-42h-222v45q54 35 86.5 63.5
t50.5 51.5t24 41t6 32q0 23 -7.5 37t-18.5 21t-23 9t-20 2z" />
    <glyph glyph-name="threequarters" unicode="&#xbe;" horiz-adv-x="800" 
d="M267 0h-30l370 680h30zM651 126v152h-1q-23 -44 -49.5 -80t-58.5 -72h109zM698 340v-214h47v-40h-47v-86h-47v86h-158v40q42 45 80.5 99.5t65.5 114.5h59zM168 641q-26 0 -48 -8t-42 -19l-15 37q24 14 52.5 21.5t57.5 7.5q46 0 75 -23t29 -66q0 -31 -18 -51t-46 -29v-1
q36 -8 55 -31t19 -53q0 -46 -30.5 -71t-89.5 -25q-30 0 -59 7t-53 22l14 37q22 -11 45.5 -19t51.5 -8q22 0 36 5.5t22 14t11 18t3 17.5q0 28 -18 44.5t-62 16.5h-42v40h40q40 0 56.5 19t16.5 42q0 9 -3 18.5t-9.5 17.5t-18.5 13.5t-30 5.5z" />
    <glyph glyph-name="questiondown" unicode="&#xbf;" horiz-adv-x="500" 
d="M250 -190q-59 0 -97 16.5t-60 42t-30 56.5t-8 60q0 44 13.5 74.5t34.5 52.5t44.5 38.5t44.5 32t34.5 33.5t13.5 44v30h80v-30q0 -37 -12.5 -62t-32 -44.5t-41.5 -35t-41.5 -32.5t-32 -39t-12.5 -53q0 -34 13 -54t32 -30t40 -12.5t37 -2.5q25 0 64.5 7.5t84.5 23.5l26 -77
q-42 -17 -93 -28t-102 -11zM325 370h-90v130h90v-130z" />
    <glyph glyph-name="Agrave" unicode="&#xc0;" horiz-adv-x="650" 
d="M279 730l-78 140h88l50 -140h-60zM35 0l234 685h117l229 -685h-106l-56 172h-259l-58 -172h-101zM325 566l-111 -313h219l-107 313h-1z" />
    <glyph glyph-name="Aacute" unicode="&#xc1;" horiz-adv-x="650" 
d="M365 730h-60l50 140h87zM35 0l234 685h117l229 -685h-106l-56 172h-259l-58 -172h-101zM325 566l-111 -313h219l-107 313h-1z" />
    <glyph glyph-name="Acircumflex" unicode="&#xc2;" horiz-adv-x="650" 
d="M321 799l-75 -69h-60l105 140h59l106 -140h-60zM35 0l234 685h117l229 -685h-106l-56 172h-259l-58 -172h-101zM325 566l-111 -313h219l-107 313h-1z" />
    <glyph glyph-name="Atilde" unicode="&#xc3;" horiz-adv-x="650" 
d="M267 780q-9 0 -16.5 -1t-16.5 -5t-20.5 -11.5t-26.5 -20.5l-29 23q29 48 55 67.5t52 19.5q18 0 36 -6.5t35 -14.5t32 -14.5t28 -6.5q14 0 28.5 3t36.5 28l25 -28q-17 -34 -37.5 -53.5t-46.5 -19.5q-16 0 -33.5 6t-35 13.5t-34.5 14t-32 6.5zM35 0l234 685h117l229 -685
h-106l-56 172h-259l-58 -172h-101zM325 566l-111 -313h219l-107 313h-1z" />
    <glyph glyph-name="Adieresis" unicode="&#xc4;" horiz-adv-x="650" 
d="M238 750h-80v120h80v-120zM488 750h-80v120h80v-120zM35 0l234 685h117l229 -685h-106l-56 172h-259l-58 -172h-101zM325 566l-111 -313h219l-107 313h-1z" />
    <glyph glyph-name="Aring" unicode="&#xc5;" horiz-adv-x="650" 
d="M230 820q0 38 26.5 64.5t64.5 26.5t64.5 -26.5t26.5 -64.5t-26.5 -64.5t-64.5 -26.5t-64.5 26.5t-26.5 64.5zM266 820q0 -23 16 -39t39 -16t39 16t16 39t-16 39t-39 16t-39 -16t-16 -39zM35 0l234 685h117l229 -685h-106l-56 172h-259l-58 -172h-101zM325 566l-111 -313
h219l-107 313h-1z" />
    <glyph glyph-name="AE" unicode="&#xc6;" horiz-adv-x="926" 
d="M35 0l347 680h484v-85h-340v-200h295v-85h-295v-225h345v-85h-440v242h-175l-125 -242h-96zM429 594l-140 -277h142v277h-2z" />
    <glyph glyph-name="Ccedilla" unicode="&#xc7;" horiz-adv-x="620" 
d="M155 345q0 -58 8.5 -107.5t31 -85.5t61 -56.5t97.5 -20.5q21 0 41 1t43.5 4.5t53 9.5t68.5 15l21 -80q-61 -18 -115.5 -26t-108.5 -9v-45q14 -1 28.5 -5t26.5 -12.5t20 -21.5t8 -33q0 -35 -25.5 -59t-72.5 -24q-35 0 -74 12l6 36q12 -3 24 -5.5t28 -2.5q33 0 45 16.5
t12 31.5t-13 30t-49 17v66q-80 4 -131 33t-81 77t-41.5 110.5t-11.5 133.5t12.5 134t45 110t89 74t143.5 27q59 0 115 -8t120 -27l-21 -80q-39 9 -68.5 15t-53 9.5t-43.5 4.5t-41 1q-59 0 -97.5 -20t-61 -55.5t-31 -83t-8.5 -101.5z" />
    <glyph glyph-name="Egrave" unicode="&#xc8;" horiz-adv-x="560" 
d="M267 730l-78 140h88l50 -140h-60zM505 85v-85h-440v680h435v-85h-340v-200h295v-85h-295v-225h345z" />
    <glyph glyph-name="Eacute" unicode="&#xc9;" horiz-adv-x="560" 
d="M302 730h-60l50 140h87zM505 85v-85h-440v680h435v-85h-340v-200h295v-85h-295v-225h345z" />
    <glyph glyph-name="Ecircumflex" unicode="&#xca;" horiz-adv-x="560" 
d="M294 799l-75 -69h-60l105 140h59l106 -140h-60zM505 85v-85h-440v680h435v-85h-340v-200h295v-85h-295v-225h345z" />
    <glyph glyph-name="Edieresis" unicode="&#xcb;" horiz-adv-x="560" 
d="M196 750h-80v120h80v-120zM446 750h-80v120h80v-120zM505 85v-85h-440v680h435v-85h-340v-200h295v-85h-295v-225h345z" />
    <glyph glyph-name="Igrave" unicode="&#xcc;" horiz-adv-x="225" 
d="M83 730l-78 140h88l50 -140h-60zM65 0v680h95v-680h-95z" />
    <glyph glyph-name="Iacute" unicode="&#xcd;" horiz-adv-x="225" 
d="M147 730h-60l50 140h87zM65 0v680h95v-680h-95z" />
    <glyph glyph-name="Icircumflex" unicode="&#xce;" horiz-adv-x="225" 
d="M113 799l-75 -69h-60l105 140h59l106 -140h-60zM64 0v680h95v-680h-95z" />
    <glyph glyph-name="Idieresis" unicode="&#xcf;" horiz-adv-x="225" 
d="M28 750h-80v120h80v-120zM278 750h-80v120h80v-120zM66 0v680h95v-680h-95z" />
    <glyph glyph-name="Eth" unicode="&#xd0;" horiz-adv-x="660" 
d="M318 680q83 0 138.5 -25.5t88.5 -70.5t46.5 -106.5t13.5 -132.5q0 -72 -13.5 -135t-46.5 -109.5t-88.5 -73.5t-138.5 -27h-243v317h-60v56h60v307h243zM170 595v-222h120v-56h-120v-232h148q57 0 93.5 20t57 55.5t28.5 83t8 101.5t-8 100t-28.5 79.5t-57 52t-93.5 18.5
h-148z" />
    <glyph glyph-name="Ntilde" unicode="&#xd1;" horiz-adv-x="650" 
d="M280 780q-9 0 -16.5 -1t-16.5 -5t-20.5 -11.5t-26.5 -20.5l-29 23q29 48 55 67.5t52 19.5q18 0 36 -6.5t35 -14.5t32 -14.5t28 -6.5q14 0 28.5 3t36.5 28l25 -28q-17 -34 -37.5 -53.5t-46.5 -19.5q-16 0 -33.5 6t-35 13.5t-34.5 14t-32 6.5zM485 0l-325 494h-2v-494h-93
v680h95l330 -504h2v504h93v-680h-100z" />
    <glyph glyph-name="Ograve" unicode="&#xd2;" horiz-adv-x="690" 
d="M253 870h88l50 -140h-60zM345 610q-61 0 -98 -21t-57.5 -57t-27.5 -84.5t-7 -102.5t7 -104t27.5 -88t57.5 -60.5t98 -22.5t98 22.5t57.5 60.5t27.5 88t7 104t-7 102.5t-27.5 84.5t-57.5 57t-98 21zM345 -10q-87 0 -143.5 28.5t-89 77t-45 113t-12.5 136.5q0 71 12.5 134
t45 110t89 74t143.5 27t143.5 -27t89 -74t45 -110t12.5 -134q0 -72 -12.5 -136.5t-45 -113t-89 -77t-143.5 -28.5z" />
    <glyph glyph-name="Oacute" unicode="&#xd3;" horiz-adv-x="690" 
d="M374 730h-60l50 140h87zM345 610q-61 0 -98 -21t-57.5 -57t-27.5 -84.5t-7 -102.5t7 -104t27.5 -88t57.5 -60.5t98 -22.5t98 22.5t57.5 60.5t27.5 88t7 104t-7 102.5t-27.5 84.5t-57.5 57t-98 21zM345 -10q-87 0 -143.5 28.5t-89 77t-45 113t-12.5 136.5q0 71 12.5 134
t45 110t89 74t143.5 27t143.5 -27t89 -74t45 -110t12.5 -134q0 -72 -12.5 -136.5t-45 -113t-89 -77t-143.5 -28.5z" />
    <glyph glyph-name="Ocircumflex" unicode="&#xd4;" horiz-adv-x="690" 
d="M346 799l-75 -69h-60l105 140h59l106 -140h-60zM345 610q-61 0 -98 -21t-57.5 -57t-27.5 -84.5t-7 -102.5t7 -104t27.5 -88t57.5 -60.5t98 -22.5t98 22.5t57.5 60.5t27.5 88t7 104t-7 102.5t-27.5 84.5t-57.5 57t-98 21zM345 -10q-87 0 -143.5 28.5t-89 77t-45 113
t-12.5 136.5q0 71 12.5 134t45 110t89 74t143.5 27t143.5 -27t89 -74t45 -110t12.5 -134q0 -72 -12.5 -136.5t-45 -113t-89 -77t-143.5 -28.5z" />
    <glyph glyph-name="Otilde" unicode="&#xd5;" horiz-adv-x="690" 
d="M290 780q-9 0 -16.5 -1t-16.5 -5t-20.5 -11.5t-26.5 -20.5l-29 23q29 48 55 67.5t52 19.5q18 0 36 -6.5t35 -14.5t32 -14.5t28 -6.5q14 0 28.5 3t36.5 28l25 -28q-17 -34 -37.5 -53.5t-46.5 -19.5q-16 0 -33.5 6t-35 13.5t-34.5 14t-32 6.5zM345 610q-61 0 -98 -21
t-57.5 -57t-27.5 -84.5t-7 -102.5t7 -104t27.5 -88t57.5 -60.5t98 -22.5t98 22.5t57.5 60.5t27.5 88t7 104t-7 102.5t-27.5 84.5t-57.5 57t-98 21zM345 -10q-87 0 -143.5 28.5t-89 77t-45 113t-12.5 136.5q0 71 12.5 134t45 110t89 74t143.5 27t143.5 -27t89 -74t45 -110
t12.5 -134q0 -72 -12.5 -136.5t-45 -113t-89 -77t-143.5 -28.5z" />
    <glyph glyph-name="Odieresis" unicode="&#xd6;" horiz-adv-x="690" 
d="M264 750h-80v120h80v-120zM514 750h-80v120h80v-120zM345 610q-61 0 -98 -21t-57.5 -57t-27.5 -84.5t-7 -102.5t7 -104t27.5 -88t57.5 -60.5t98 -22.5t98 22.5t57.5 60.5t27.5 88t7 104t-7 102.5t-27.5 84.5t-57.5 57t-98 21zM345 -10q-87 0 -143.5 28.5t-89 77t-45 113
t-12.5 136.5q0 71 12.5 134t45 110t89 74t143.5 27t143.5 -27t89 -74t45 -110t12.5 -134q0 -72 -12.5 -136.5t-45 -113t-89 -77t-143.5 -28.5z" />
    <glyph glyph-name="multiply" unicode="&#xd7;" horiz-adv-x="526" 
d="M316 265l140 -139l-54 -54l-139 140l-139 -140l-54 54l140 139l-140 139l54 54l139 -140l139 140l54 -54z" />
    <glyph glyph-name="Oslash" unicode="&#xd8;" horiz-adv-x="690" 
d="M345 -10q-71 0 -120 19t-82 53l-73 -93l-30 24l77 96q-35 49 -48.5 115t-13.5 141q0 71 12.5 134t45 110t89 74t143.5 27q68 0 116 -17.5t80 -47.5l79 99l30 -24l-81 -101q38 -48 52 -113t14 -141q0 -72 -12.5 -136.5t-45 -113t-89 -77t-143.5 -28.5zM535 345q0 48 -6 92
t-26 79l-302 -382q21 -30 55.5 -47t88.5 -17q61 0 98 22.5t57.5 60.5t27.5 88t7 104zM345 610q-61 0 -98 -21t-57.5 -57t-27.5 -84.5t-7 -102.5q0 -47 5.5 -91.5t23.5 -79.5l302 380q-22 26 -56 41t-85 15z" />
    <glyph glyph-name="Ugrave" unicode="&#xd9;" horiz-adv-x="640" 
d="M208 870h88l50 -140h-60zM322 70q52 0 83.5 16t48 41t21.5 55t5 58v440h95v-440q0 -131 -67 -190.5t-188 -59.5q-122 0 -188.5 59.5t-66.5 190.5v440h95v-440q0 -36 8 -67t26.5 -54t49.5 -36t78 -13z" />
    <glyph glyph-name="Uacute" unicode="&#xda;" horiz-adv-x="640" 
d="M350 730h-60l50 140h87zM322 70q52 0 83.5 16t48 41t21.5 55t5 58v440h95v-440q0 -131 -67 -190.5t-188 -59.5q-122 0 -188.5 59.5t-66.5 190.5v440h95v-440q0 -36 8 -67t26.5 -54t49.5 -36t78 -13z" />
    <glyph glyph-name="Ucircumflex" unicode="&#xdb;" horiz-adv-x="640" 
d="M320 799l-75 -69h-60l105 140h59l106 -140h-60zM322 70q52 0 83.5 16t48 41t21.5 55t5 58v440h95v-440q0 -131 -67 -190.5t-188 -59.5q-122 0 -188.5 59.5t-66.5 190.5v440h95v-440q0 -36 8 -67t26.5 -54t49.5 -36t78 -13z" />
    <glyph glyph-name="Udieresis" unicode="&#xdc;" horiz-adv-x="640" 
d="M234 750h-80v120h80v-120zM484 750h-80v120h80v-120zM322 70q52 0 83.5 16t48 41t21.5 55t5 58v440h95v-440q0 -131 -67 -190.5t-188 -59.5q-122 0 -188.5 59.5t-66.5 190.5v440h95v-440q0 -36 8 -67t26.5 -54t49.5 -36t78 -13z" />
    <glyph glyph-name="Yacute" unicode="&#xdd;" horiz-adv-x="620" 
d="M352 730h-60l50 140h87zM314 338l167 342h104l-227 -440v-240h-96v240l-227 440h109l168 -342h2z" />
    <glyph glyph-name="Thorn" unicode="&#xde;" 
d="M160 140v-140h-95v680h95v-130h180q51 0 90.5 -15t67.5 -42.5t42.5 -65t14.5 -82.5q0 -94 -56.5 -149.5t-158.5 -55.5h-180zM160 225h170q57 0 92 29t35 91q0 58 -35 89t-92 31h-170v-240z" />
    <glyph glyph-name="germandbls" unicode="&#xdf;" horiz-adv-x="645" 
d="M320 700q93 0 149 -36.5t56 -113.5q0 -44 -19.5 -72t-42.5 -48t-42.5 -35.5t-19.5 -33.5q0 -19 14.5 -28.5t31.5 -16.5q89 -32 123.5 -72t34.5 -93q0 -45 -17 -75.5t-45.5 -49.5t-64.5 -27.5t-74 -8.5t-69 5.5t-60 14.5l12 70q32 -11 60 -15.5t53 -4.5q37 0 58.5 10.5
t33 25t15 30t3.5 24.5q0 28 -15 47.5t-35 32.5t-40.5 20.5t-32.5 13.5q-40 19 -56 37t-16 50q0 27 16.5 45.5t36.5 37.5t36.5 42t16.5 58q0 28 -10.5 46.5t-27 29t-35.5 14.5t-36 4q-39 0 -63.5 -12.5t-39 -34t-19.5 -49t-5 -57.5v-475h-90v435h-75v59l75 6q0 59 19 98
t50.5 61.5t72 31.5t83.5 9z" />
    <glyph glyph-name="agrave" unicode="&#xe0;" horiz-adv-x="505" 
d="M72 489q51 10 101 15.5t92 5.5q45 0 79.5 -7.5t58 -26.5t35.5 -50.5t12 -80.5v-345h-90v50h-2q-36 -32 -72.5 -46t-85.5 -14q-75 0 -117.5 41t-42.5 107q0 42 16.5 71t45 47t66.5 26t82 8h110v50q0 50 -26.5 72.5t-88.5 22.5q-29 0 -66 -4t-93 -15zM360 235h-105
q-69 0 -97 -23.5t-28 -66.5q0 -39 28 -62t77 -23q43 0 75.5 14.5t49.5 28.5v132zM245 560l-78 140h88l50 -140h-60v0z" />
    <glyph glyph-name="aacute" unicode="&#xe1;" horiz-adv-x="505" 
d="M72 489q51 10 101 15.5t92 5.5q45 0 79.5 -7.5t58 -26.5t35.5 -50.5t12 -80.5v-345h-90v50h-2q-36 -32 -72.5 -46t-85.5 -14q-75 0 -117.5 41t-42.5 107q0 42 16.5 71t45 47t66.5 26t82 8h110v50q0 50 -26.5 72.5t-88.5 22.5q-29 0 -66 -4t-93 -15zM360 235h-105
q-69 0 -97 -23.5t-28 -66.5q0 -39 28 -62t77 -23q43 0 75.5 14.5t49.5 28.5v132zM371 700l-77 -140h-60l50 140h87v0z" />
    <glyph glyph-name="acircumflex" unicode="&#xe2;" horiz-adv-x="505" 
d="M72 489q51 10 101 15.5t92 5.5q45 0 79.5 -7.5t58 -26.5t35.5 -50.5t12 -80.5v-345h-90v50h-2q-36 -32 -72.5 -46t-85.5 -14q-75 0 -117.5 41t-42.5 107q0 42 16.5 71t45 47t66.5 26t82 8h110v50q0 50 -26.5 72.5t-88.5 22.5q-29 0 -66 -4t-93 -15zM360 235h-105
q-69 0 -97 -23.5t-28 -66.5q0 -39 28 -62t77 -23q43 0 75.5 14.5t49.5 28.5v132zM270 629l-75 -69h-60l105 140h59l106 -140h-60z" />
    <glyph glyph-name="atilde" unicode="&#xe3;" horiz-adv-x="505" 
d="M72 489q51 10 101 15.5t92 5.5q45 0 79.5 -7.5t58 -26.5t35.5 -50.5t12 -80.5v-345h-90v50h-2q-36 -32 -72.5 -46t-85.5 -14q-75 0 -117.5 41t-42.5 107q0 42 16.5 71t45 47t66.5 26t82 8h110v50q0 50 -26.5 72.5t-88.5 22.5q-29 0 -66 -4t-93 -15zM360 235h-105
q-69 0 -97 -23.5t-28 -66.5q0 -39 28 -62t77 -23q43 0 75.5 14.5t49.5 28.5v132zM211 610q-9 0 -16.5 -1t-16.5 -5t-20.5 -11.5t-26.5 -20.5l-29 23q29 48 55 67.5t52 19.5q18 0 36 -6.5t35 -14.5t32 -14.5t28 -6.5q14 0 28.5 3t36.5 28l25 -28q-17 -34 -37.5 -53.5
t-46.5 -19.5q-16 0 -33.5 6t-35 13.5t-34.5 14t-32 6.5z" />
    <glyph glyph-name="adieresis" unicode="&#xe4;" horiz-adv-x="505" 
d="M72 489q51 10 101 15.5t92 5.5q45 0 79.5 -7.5t58 -26.5t35.5 -50.5t12 -80.5v-345h-90v50h-2q-36 -32 -72.5 -46t-85.5 -14q-75 0 -117.5 41t-42.5 107q0 42 16.5 71t45 47t66.5 26t82 8h110v50q0 50 -26.5 72.5t-88.5 22.5q-29 0 -66 -4t-93 -15zM360 235h-105
q-69 0 -97 -23.5t-28 -66.5q0 -39 28 -62t77 -23q43 0 75.5 14.5t49.5 28.5v132zM184 580h-80v120h80v-120zM434 580h-80v120h80v-120z" />
    <glyph glyph-name="aring" unicode="&#xe5;" horiz-adv-x="505" 
d="M72 489q51 10 101 15.5t92 5.5q45 0 79.5 -7.5t58 -26.5t35.5 -50.5t12 -80.5v-345h-90v50h-2q-36 -32 -72.5 -46t-85.5 -14q-75 0 -117.5 41t-42.5 107q0 42 16.5 71t45 47t66.5 26t82 8h110v50q0 50 -26.5 72.5t-88.5 22.5q-29 0 -66 -4t-93 -15zM360 235h-105
q-69 0 -97 -23.5t-28 -66.5q0 -39 28 -62t77 -23q43 0 75.5 14.5t49.5 28.5v132zM179 650q0 38 26.5 64.5t64.5 26.5t64.5 -26.5t26.5 -64.5t-26.5 -64.5t-64.5 -26.5t-64.5 26.5t-26.5 64.5zM215 650q0 -23 16 -39t39 -16t39 16t16 39t-16 39t-39 16t-39 -16t-16 -39z" />
    <glyph glyph-name="ae" unicode="&#xe6;" horiz-adv-x="845" 
d="M457 235q1 -38 10.5 -69t29 -53.5t50.5 -35t75 -12.5q37 0 74.5 3t81.5 17l12 -73q-48 -13 -89.5 -17.5t-90.5 -4.5q-80 0 -131 24t-79 68q-26 -29 -52 -46.5t-51 -28t-49 -14t-48 -3.5q-75 0 -117.5 41t-42.5 107q0 42 16.5 71t45 47t66.5 26t82 8h110v50
q0 50 -26.5 72.5t-88.5 22.5q-29 0 -66 -4t-93 -15l-14 73q51 10 101 15.5t92 5.5q58 0 98.5 -13t62.5 -47q29 29 73 44.5t106 15.5q51 0 86.5 -11.5t59 -32t36 -47.5t17 -57.5t2.5 -63t-7 -63.5h-342zM235 60q38 0 77.5 15.5t68.5 43.5q-19 51 -21 116h-105
q-69 0 -97 -23.5t-28 -66.5q0 -39 28 -62t77 -23zM600 440q-38 0 -64 -11.5t-42.5 -31t-25 -47t-11.5 -58.5h258q4 27 1.5 53.5t-15.5 47.5t-37 34t-64 13z" />
    <glyph glyph-name="ccedilla" unicode="&#xe7;" horiz-adv-x="480" 
d="M45 250q0 58 12.5 106t41.5 82t75.5 53t115.5 19q47 0 86 -6t84 -17l-17 -72q-30 7 -52.5 11.5t-40.5 6t-32.5 2t-27.5 0.5q-39 0 -67.5 -13.5t-47 -38t-27 -58.5t-8.5 -75q0 -39 8.5 -73t27 -59t47 -39t67.5 -14q13 0 27.5 0.5t32.5 2t40.5 5.5t52.5 12l17 -73
q-45 -11 -83 -16t-83 -6v-45q14 -1 28.5 -5t26.5 -12.5t20 -21.5t8 -33q0 -35 -25.5 -59t-71.5 -24q-36 0 -75 12l6 36q12 -3 24 -5.5t29 -2.5q33 0 45 16.5t12 31.5t-13.5 30t-48.5 17v67q-60 3 -100.5 23t-66 54t-36.5 80t-11 101z" />
    <glyph glyph-name="egrave" unicode="&#xe8;" horiz-adv-x="530" 
d="M142 235q1 -38 10.5 -69t29 -53.5t50.5 -35t75 -12.5q37 0 74.5 3t81.5 17l12 -73q-48 -13 -89.5 -17.5t-90.5 -4.5q-69 0 -117 19t-77.5 53t-42.5 82t-13 106t13 106t42 82t75.5 53t114.5 19q51 0 86.5 -11.5t59 -32t36 -47.5t17 -57.5t2.5 -63t-7 -63.5h-342zM285 440
q-38 0 -64 -11.5t-42.5 -31t-25 -47t-11.5 -58.5h258q4 27 1.5 53.5t-15.5 47.5t-37 34t-64 13zM255 560l-78 140h88l50 -140h-60v0z" />
    <glyph glyph-name="eacute" unicode="&#xe9;" horiz-adv-x="530" 
d="M142 235q1 -38 10.5 -69t29 -53.5t50.5 -35t75 -12.5q37 0 74.5 3t81.5 17l12 -73q-48 -13 -89.5 -17.5t-90.5 -4.5q-69 0 -117 19t-77.5 53t-42.5 82t-13 106t13 106t42 82t75.5 53t114.5 19q51 0 86.5 -11.5t59 -32t36 -47.5t17 -57.5t2.5 -63t-7 -63.5h-342zM285 440
q-38 0 -64 -11.5t-42.5 -31t-25 -47t-11.5 -58.5h258q4 27 1.5 53.5t-15.5 47.5t-37 34t-64 13zM411 700l-77 -140h-60l50 140h87v0z" />
    <glyph glyph-name="ecircumflex" unicode="&#xea;" horiz-adv-x="530" 
d="M142 235q1 -38 10.5 -69t29 -53.5t50.5 -35t75 -12.5q37 0 74.5 3t81.5 17l12 -73q-48 -13 -89.5 -17.5t-90.5 -4.5q-69 0 -117 19t-77.5 53t-42.5 82t-13 106t13 106t42 82t75.5 53t114.5 19q51 0 86.5 -11.5t59 -32t36 -47.5t17 -57.5t2.5 -63t-7 -63.5h-342zM285 440
q-38 0 -64 -11.5t-42.5 -31t-25 -47t-11.5 -58.5h258q4 27 1.5 53.5t-15.5 47.5t-37 34t-64 13zM289 629l-75 -69h-60l105 140h59l106 -140h-60z" />
    <glyph glyph-name="edieresis" unicode="&#xeb;" horiz-adv-x="530" 
d="M142 235q1 -38 10.5 -69t29 -53.5t50.5 -35t75 -12.5q37 0 74.5 3t81.5 17l12 -73q-48 -13 -89.5 -17.5t-90.5 -4.5q-69 0 -117 19t-77.5 53t-42.5 82t-13 106t13 106t42 82t75.5 53t114.5 19q51 0 86.5 -11.5t59 -32t36 -47.5t17 -57.5t2.5 -63t-7 -63.5h-342zM285 440
q-38 0 -64 -11.5t-42.5 -31t-25 -47t-11.5 -58.5h258q4 27 1.5 53.5t-15.5 47.5t-37 34t-64 13zM199 580h-80v120h80v-120zM449 580h-80v120h80v-120z" />
    <glyph glyph-name="igrave" unicode="&#xec;" horiz-adv-x="200" 
d="M55 500h90v-500h-90v500zM69 560l-78 140h88l50 -140h-60v0z" />
    <glyph glyph-name="iacute" unicode="&#xed;" horiz-adv-x="200" 
d="M55 500h90v-500h-90v500zM213 700l-77 -140h-60l50 140h87v0z" />
    <glyph glyph-name="icircumflex" unicode="&#xee;" horiz-adv-x="200" 
d="M100 629l-75 -69h-60l105 140h59l106 -140h-60zM55 500h90v-500h-90v500z" />
    <glyph glyph-name="idieresis" unicode="&#xef;" horiz-adv-x="200" 
d="M56 500h90v-500h-90v500zM15 580h-80v120h80v-120zM265 580h-80v120h80v-120z" />
    <glyph glyph-name="eth" unicode="&#xf0;" horiz-adv-x="550" 
d="M450 719l32 -32l-70 -70q43 -45 68 -122t25 -195q0 -60 -11.5 -115.5t-39 -99t-73.5 -69.5t-114 -26q-48 0 -88.5 15.5t-70.5 45.5t-46.5 72.5t-16.5 96.5q0 113 55 174t152 61q49 0 90.5 -24.5t70.5 -63.5l2 1q-1 19 -4 44t-9.5 51t-18 51t-29.5 45l-68 -69l-32 33
l60 60q-20 14 -45 23t-56 9q-32 0 -63.5 -5.5t-72.5 -19.5l-11 69q19 7 37 13t36 10t38 6t44 2q42 0 81.5 -11t72.5 -35zM407 296q-24 34 -57 57t-74 23q-42 0 -68.5 -15t-41.5 -37.5t-20.5 -50.5t-5.5 -53q0 -38 10.5 -67t28.5 -48.5t42 -29.5t51 -10q40 0 66.5 16.5
t42 43.5t21.5 62.5t6 74.5v17t-1 17z" />
    <glyph glyph-name="ntilde" unicode="&#xf1;" horiz-adv-x="530" 
d="M145 0h-90v500h90v-70h2q36 35 80.5 57.5t97.5 22.5q75 0 112.5 -43t37.5 -122v-345h-90v325q0 48 -22.5 79t-77.5 31q-22 0 -42.5 -6t-38.5 -14.5t-33 -18.5t-26 -19v-377zM213 610q-9 0 -16.5 -1t-16.5 -5t-20.5 -11.5t-26.5 -20.5l-29 23q29 48 55 67.5t52 19.5
q18 0 36 -6.5t35 -14.5t32 -14.5t28 -6.5q14 0 28.5 3t36.5 28l25 -28q-17 -34 -37.5 -53.5t-46.5 -19.5q-16 0 -33.5 6t-35 13.5t-34.5 14t-32 6.5z" />
    <glyph glyph-name="ograve" unicode="&#xf2;" horiz-adv-x="550" 
d="M275 435q-39 0 -65 -14t-41.5 -39t-22 -59t-6.5 -73t6.5 -73t22 -59t41.5 -39t65 -14t65 14t41.5 39t22 59t6.5 73t-6.5 73t-22 59t-41.5 39t-65 14zM275 -10q-63 0 -107 19t-71 53t-39.5 82t-12.5 106t12.5 106t39.5 82t71 53t107 19t106.5 -19t71 -53t40 -82t12.5 -106
t-12.5 -106t-40 -82t-71 -53t-106.5 -19zM249 560l-78 140h88l50 -140h-60v0z" />
    <glyph glyph-name="oacute" unicode="&#xf3;" horiz-adv-x="550" 
d="M275 435q-39 0 -65 -14t-41.5 -39t-22 -59t-6.5 -73t6.5 -73t22 -59t41.5 -39t65 -14t65 14t41.5 39t22 59t6.5 73t-6.5 73t-22 59t-41.5 39t-65 14zM275 -10q-63 0 -107 19t-71 53t-39.5 82t-12.5 106t12.5 106t39.5 82t71 53t107 19t106.5 -19t71 -53t40 -82t12.5 -106
t-12.5 -106t-40 -82t-71 -53t-106.5 -19zM388 700l-77 -140h-60l50 140h87v0z" />
    <glyph glyph-name="ocircumflex" unicode="&#xf4;" horiz-adv-x="550" 
d="M275 435q-39 0 -65 -14t-41.5 -39t-22 -59t-6.5 -73t6.5 -73t22 -59t41.5 -39t65 -14t65 14t41.5 39t22 59t6.5 73t-6.5 73t-22 59t-41.5 39t-65 14zM275 -10q-63 0 -107 19t-71 53t-39.5 82t-12.5 106t12.5 106t39.5 82t71 53t107 19t106.5 -19t71 -53t40 -82t12.5 -106
t-12.5 -106t-40 -82t-71 -53t-106.5 -19zM275 629l-75 -69h-60l105 140h59l106 -140h-60z" />
    <glyph glyph-name="otilde" unicode="&#xf5;" horiz-adv-x="550" 
d="M275 435q-39 0 -65 -14t-41.5 -39t-22 -59t-6.5 -73t6.5 -73t22 -59t41.5 -39t65 -14t65 14t41.5 39t22 59t6.5 73t-6.5 73t-22 59t-41.5 39t-65 14zM275 -10q-63 0 -107 19t-71 53t-39.5 82t-12.5 106t12.5 106t39.5 82t71 53t107 19t106.5 -19t71 -53t40 -82t12.5 -106
t-12.5 -106t-40 -82t-71 -53t-106.5 -19zM222 610q-9 0 -16.5 -1t-16.5 -5t-20.5 -11.5t-26.5 -20.5l-29 23q29 48 55 67.5t52 19.5q18 0 36 -6.5t35 -14.5t32 -14.5t28 -6.5q14 0 28.5 3t36.5 28l25 -28q-17 -34 -37.5 -53.5t-46.5 -19.5q-16 0 -33.5 6t-35 13.5t-34.5 14
t-32 6.5z" />
    <glyph glyph-name="odieresis" unicode="&#xf6;" horiz-adv-x="550" 
d="M275 435q-39 0 -65 -14t-41.5 -39t-22 -59t-6.5 -73t6.5 -73t22 -59t41.5 -39t65 -14t65 14t41.5 39t22 59t6.5 73t-6.5 73t-22 59t-41.5 39t-65 14zM275 -10q-63 0 -107 19t-71 53t-39.5 82t-12.5 106t12.5 106t39.5 82t71 53t107 19t106.5 -19t71 -53t40 -82t12.5 -106
t-12.5 -106t-40 -82t-71 -53t-106.5 -19zM190 580h-80v120h80v-120zM440 580h-80v120h80v-120z" />
    <glyph glyph-name="divide" unicode="&#xf7;" horiz-adv-x="500" 
d="M445 293v-56h-390v56h390zM210 165h80v-120h-80v120zM210 485h80v-120h-80v120z" />
    <glyph glyph-name="oslash" unicode="&#xf8;" horiz-adv-x="550" 
d="M275 -10q-51 0 -89 13.5t-65 37.5l-62 -72l-29 24l63 73q-26 35 -37 81t-11 103q0 58 12.5 106t39.5 82t71 53t107 19q51 0 89 -13.5t64 -38.5l62 73l30 -23l-64 -75q26 -34 37.5 -80.5t11.5 -102.5q0 -58 -12.5 -106t-40 -82t-71 -53t-106.5 -19zM275 65q39 0 65 14
t41.5 39t22 57.5t6.5 70.5q0 30 -5 57.5t-16 50.5l-212 -248q16 -20 39.5 -30.5t58.5 -10.5zM275 435q-38 0 -63 -13t-41 -35.5t-23 -53t-8 -65.5q0 -29 3.5 -63t16.5 -60l212 248q-16 20 -39.5 31t-57.5 11z" />
    <glyph glyph-name="ugrave" unicode="&#xf9;" horiz-adv-x="530" 
d="M385 500h90v-500h-90v70h-2q-36 -36 -80.5 -58t-97.5 -22q-75 0 -112.5 43t-37.5 122v345h90v-325q0 -48 23 -79t77 -31q21 0 41.5 6t38.5 14.5t33.5 18.5t26.5 18v378zM224 560l-78 140h88l50 -140h-60v0z" />
    <glyph glyph-name="uacute" unicode="&#xfa;" horiz-adv-x="530" 
d="M385 500h90v-500h-90v70h-2q-36 -36 -80.5 -58t-97.5 -22q-75 0 -112.5 43t-37.5 122v345h90v-325q0 -48 23 -79t77 -31q21 0 41.5 6t38.5 14.5t33.5 18.5t26.5 18v378zM378 700l-77 -140h-60l50 140h87v0z" />
    <glyph glyph-name="ucircumflex" unicode="&#xfb;" horiz-adv-x="530" 
d="M385 500h90v-500h-90v70h-2q-36 -36 -80.5 -58t-97.5 -22q-75 0 -112.5 43t-37.5 122v345h90v-325q0 -48 23 -79t77 -31q21 0 41.5 6t38.5 14.5t33.5 18.5t26.5 18v378zM266 629l-75 -69h-60l105 140h59l106 -140h-60z" />
    <glyph glyph-name="udieresis" unicode="&#xfc;" horiz-adv-x="530" 
d="M385 500h90v-500h-90v70h-2q-36 -36 -80.5 -58t-97.5 -22q-75 0 -112.5 43t-37.5 122v345h90v-325q0 -48 23 -79t77 -31q21 0 41.5 6t38.5 14.5t33.5 18.5t26.5 18v378zM180 580h-80v120h80v-120zM430 580h-80v120h80v-120z" />
    <glyph glyph-name="yacute" unicode="&#xfd;" horiz-adv-x="560" 
d="M40 500h101l145 -409h2l136 409h96l-188 -530q-34 -98 -81.5 -139t-120.5 -41q-18 0 -38.5 2t-36.5 6l8 75q13 -3 25 -4t22 -1q25 0 44.5 11t34.5 28.5t26 39.5t19 44zM397 700l-77 -140h-60l50 140h87v0z" />
    <glyph glyph-name="thorn" unicode="&#xfe;" horiz-adv-x="530" 
d="M145 450h2q26 26 67 43t86 17q52 0 87.5 -20t57.5 -55.5t31 -83t9 -101.5t-10 -101.5t-32.5 -83t-59 -55.5t-88.5 -20q-43 0 -82.5 15.5t-65.5 41.5h-2v-247h-90v900h90v-250zM390 250q0 37 -6 71t-20 59t-38.5 40t-60.5 15q-42 0 -73.5 -15t-46.5 -28v-285
q15 -12 46.5 -27t73.5 -15q36 0 60.5 15t38.5 40t20 58.5t6 71.5z" />
    <glyph glyph-name="ydieresis" unicode="&#xff;" horiz-adv-x="560" 
d="M40 500h101l145 -409h2l136 409h96l-188 -530q-34 -98 -81.5 -139t-120.5 -41q-18 0 -38.5 2t-36.5 6l8 75q13 -3 25 -4t22 -1q25 0 44.5 11t34.5 28.5t26 39.5t19 44zM199 580h-80v120h80v-120zM449 580h-80v120h80v-120z" />
    <glyph glyph-name="Amacron" unicode="&#x100;" horiz-adv-x="650" 
d="M475 820v-65h-310v65h310zM35 0l234 685h117l229 -685h-106l-56 172h-259l-58 -172h-101zM325 566l-111 -313h219l-107 313h-1z" />
    <glyph glyph-name="amacron" unicode="&#x101;" horiz-adv-x="505" 
d="M72 489q51 10 101 15.5t92 5.5q45 0 79.5 -7.5t58 -26.5t35.5 -50.5t12 -80.5v-345h-90v50h-2q-36 -32 -72.5 -46t-85.5 -14q-75 0 -117.5 41t-42.5 107q0 42 16.5 71t45 47t66.5 26t82 8h110v50q0 50 -26.5 72.5t-88.5 22.5q-29 0 -66 -4t-93 -15zM360 235h-105
q-69 0 -97 -23.5t-28 -66.5q0 -39 28 -62t77 -23q43 0 75.5 14.5t49.5 28.5v132zM421 650v-65h-310v65h310z" />
    <glyph glyph-name="Abreve" unicode="&#x102;" horiz-adv-x="650" 
d="M321 808q22 0 39.5 7t29.5 17.5t20 23.5t12 24h39q-9 -67 -45.5 -101t-94.5 -34q-57 0 -93.5 34t-45.5 101h39q4 -11 12 -24t20 -23.5t29 -17.5t39 -7zM35 0l234 685h117l229 -685h-106l-56 172h-259l-58 -172h-101zM325 566l-111 -313h219l-107 313h-1z" />
    <glyph glyph-name="abreve" unicode="&#x103;" horiz-adv-x="505" 
d="M72 489q51 10 101 15.5t92 5.5q45 0 79.5 -7.5t58 -26.5t35.5 -50.5t12 -80.5v-345h-90v50h-2q-36 -32 -72.5 -46t-85.5 -14q-75 0 -117.5 41t-42.5 107q0 42 16.5 71t45 47t66.5 26t82 8h110v50q0 50 -26.5 72.5t-88.5 22.5q-29 0 -66 -4t-93 -15zM360 235h-105
q-69 0 -97 -23.5t-28 -66.5q0 -39 28 -62t77 -23q43 0 75.5 14.5t49.5 28.5v132zM272 638q22 0 39.5 7t29.5 17.5t20 23.5t12 24h39q-9 -67 -45.5 -101t-94.5 -34q-57 0 -93.5 34t-45.5 101h39q4 -11 12 -24t20 -23.5t29 -17.5t39 -7z" />
    <glyph glyph-name="Aogonek" unicode="&#x104;" horiz-adv-x="650" 
d="M633 -181q-17 -14 -41.5 -21.5t-48.5 -7.5q-18 0 -34.5 6t-28.5 17t-19.5 26t-7.5 33q0 36 24 69t62 59h-30l-56 172h-259l-58 -172h-101l234 685h117l229 -685h-30q-30 -23 -50 -53.5t-20 -56.5t15 -40t43 -14q20 0 32.5 6t23.5 11zM325 566l-111 -313h219l-107 313h-1z
" />
    <glyph glyph-name="aogonek" unicode="&#x105;" horiz-adv-x="505" 
d="M476 -181q-17 -14 -41.5 -21.5t-48.5 -7.5q-18 0 -34.5 6t-28.5 17t-19.5 26t-7.5 33q0 36 24 69t62 59h-22v50h-2q-36 -32 -72.5 -46t-85.5 -14q-75 0 -117.5 41t-42.5 107q0 42 16.5 71t45 47t66.5 26t82 8h110v50q0 50 -26.5 72.5t-88.5 22.5q-29 0 -66 -4t-93 -15
l-14 73q51 10 101 15.5t92 5.5q45 0 79.5 -7.5t58 -26.5t35.5 -50.5t12 -80.5v-345h-22q-30 -23 -50 -53.5t-20 -56.5t15 -40t43 -14q20 0 32.5 6t23.5 11zM360 235h-105q-69 0 -97 -23.5t-28 -66.5q0 -39 28 -62t77 -23q43 0 75.5 14.5t49.5 28.5v132z" />
    <glyph glyph-name="Cacute" unicode="&#x106;" horiz-adv-x="620" 
d="M380 730h-60l50 140h87zM155 345q0 -58 8.5 -107.5t31 -85.5t61 -56.5t97.5 -20.5q21 0 41 1t43.5 4.5t53 9.5t68.5 15l21 -80q-64 -19 -120 -27t-115 -8q-87 0 -143.5 28t-89 76.5t-45 113t-12.5 137.5q0 71 12.5 134t45 110t89 74t143.5 27q59 0 115 -8t120 -27
l-21 -80q-39 9 -68.5 15t-53 9.5t-43.5 4.5t-41 1q-59 0 -97.5 -20t-61 -55.5t-31 -83t-8.5 -101.5z" />
    <glyph glyph-name="cacute" unicode="&#x107;" horiz-adv-x="480" 
d="M45 250q0 58 12.5 106t41.5 82t75.5 53t115.5 19q47 0 86 -6t84 -17l-17 -72q-30 7 -52.5 11.5t-40.5 6t-32.5 2t-27.5 0.5q-75 0 -112.5 -49.5t-37.5 -135.5q0 -40 8.5 -74t26.5 -58.5t46.5 -38.5t68.5 -14q13 0 27.5 0.5t32.5 2t40.5 5.5t52.5 12l17 -73
q-45 -11 -84 -16.5t-86 -5.5q-69 0 -115.5 19t-75.5 53t-41.5 82t-12.5 106zM389 700l-77 -140h-60l50 140h87v0z" />
    <glyph glyph-name="Ccircumflex" unicode="&#x108;" horiz-adv-x="620" 
d="M366 799l-75 -69h-60l105 140h59l106 -140h-60zM155 345q0 -58 8.5 -107.5t31 -85.5t61 -56.5t97.5 -20.5q21 0 41 1t43.5 4.5t53 9.5t68.5 15l21 -80q-64 -19 -120 -27t-115 -8q-87 0 -143.5 28t-89 76.5t-45 113t-12.5 137.5q0 71 12.5 134t45 110t89 74t143.5 27
q59 0 115 -8t120 -27l-21 -80q-39 9 -68.5 15t-53 9.5t-43.5 4.5t-41 1q-59 0 -97.5 -20t-61 -55.5t-31 -83t-8.5 -101.5z" />
    <glyph glyph-name="ccircumflex" unicode="&#x109;" horiz-adv-x="480" 
d="M45 250q0 58 12.5 106t41.5 82t75.5 53t115.5 19q47 0 86 -6t84 -17l-17 -72q-30 7 -52.5 11.5t-40.5 6t-32.5 2t-27.5 0.5q-75 0 -112.5 -49.5t-37.5 -135.5q0 -40 8.5 -74t26.5 -58.5t46.5 -38.5t68.5 -14q13 0 27.5 0.5t32.5 2t40.5 5.5t52.5 12l17 -73
q-45 -11 -84 -16.5t-86 -5.5q-69 0 -115.5 19t-75.5 53t-41.5 82t-12.5 106zM276 629l-75 -69h-60l105 140h59l106 -140h-60z" />
    <glyph glyph-name="Cdotaccent" unicode="&#x10a;" horiz-adv-x="620" 
d="M307 870h80v-120h-80v120zM155 345q0 -58 8.5 -107.5t31 -85.5t61 -56.5t97.5 -20.5q21 0 41 1t43.5 4.5t53 9.5t68.5 15l21 -80q-64 -19 -120 -27t-115 -8q-87 0 -143.5 28t-89 76.5t-45 113t-12.5 137.5q0 71 12.5 134t45 110t89 74t143.5 27q59 0 115 -8t120 -27
l-21 -80q-39 9 -68.5 15t-53 9.5t-43.5 4.5t-41 1q-59 0 -97.5 -20t-61 -55.5t-31 -83t-8.5 -101.5z" />
    <glyph glyph-name="cdotaccent" unicode="&#x10b;" horiz-adv-x="480" 
d="M45 250q0 58 12.5 106t41.5 82t75.5 53t115.5 19q47 0 86 -6t84 -17l-17 -72q-30 7 -52.5 11.5t-40.5 6t-32.5 2t-27.5 0.5q-75 0 -112.5 -49.5t-37.5 -135.5q0 -40 8.5 -74t26.5 -58.5t46.5 -38.5t68.5 -14q13 0 27.5 0.5t32.5 2t40.5 5.5t52.5 12l17 -73
q-45 -11 -84 -16.5t-86 -5.5q-69 0 -115.5 19t-75.5 53t-41.5 82t-12.5 106zM233 700h80v-120h-80v120z" />
    <glyph glyph-name="Ccaron" unicode="&#x10c;" horiz-adv-x="620" 
d="M433 870h60l-106 -140h-59l-105 140h60l75 -69zM155 345q0 -58 8.5 -107.5t31 -85.5t61 -56.5t97.5 -20.5q21 0 41 1t43.5 4.5t53 9.5t68.5 15l21 -80q-64 -19 -120 -27t-115 -8q-87 0 -143.5 28t-89 76.5t-45 113t-12.5 137.5q0 71 12.5 134t45 110t89 74t143.5 27
q59 0 115 -8t120 -27l-21 -80q-39 9 -68.5 15t-53 9.5t-43.5 4.5t-41 1q-59 0 -97.5 -20t-61 -55.5t-31 -83t-8.5 -101.5z" />
    <glyph glyph-name="ccaron" unicode="&#x10d;" horiz-adv-x="480" 
d="M45 250q0 58 12.5 106t41.5 82t75.5 53t115.5 19q47 0 86 -6t84 -17l-17 -72q-30 7 -52.5 11.5t-40.5 6t-32.5 2t-27.5 0.5q-75 0 -112.5 -49.5t-37.5 -135.5q0 -40 8.5 -74t26.5 -58.5t46.5 -38.5t68.5 -14q13 0 27.5 0.5t32.5 2t40.5 5.5t52.5 12l17 -73
q-45 -11 -84 -16.5t-86 -5.5q-69 0 -115.5 19t-75.5 53t-41.5 82t-12.5 106zM364 700h60l-106 -140h-59l-105 140h60l75 -69z" />
    <glyph glyph-name="Dcaron" unicode="&#x10e;" horiz-adv-x="650" 
d="M387 870h60l-106 -140h-59l-105 140h60l75 -69zM307 680q84 0 139.5 -25.5t88.5 -70.5t46.5 -106.5t13.5 -132.5q0 -72 -13.5 -135t-46.5 -109.5t-88.5 -73.5t-139.5 -27h-242v680h242zM160 595v-510h147q57 0 93.5 20t57.5 55.5t29 83t8 101.5t-8 100t-29 79.5t-57.5 52
t-93.5 18.5h-147z" />
    <glyph glyph-name="dcaron" unicode="&#x10f;" horiz-adv-x="580" 
d="M385 50h-2q-27 -26 -67.5 -43t-85.5 -17q-53 0 -88 20t-57 55.5t-31 83t-9 101.5t10 101.5t32.5 83t58.5 55.5t89 20q43 0 82 -16t66 -42h2v248h90v-700h-90v50zM140 250q0 -38 5.5 -71.5t20 -58.5t38.5 -40t61 -15q42 0 73 15t47 27v285q-16 13 -47 28t-73 15
q-37 0 -61 -15t-38.5 -40t-20 -59t-5.5 -71zM535 490q5 26 10 52.5t10 52.5h-35v105h90v-105l-45 -105h-30z" />
    <glyph glyph-name="Dcroat" unicode="&#x110;" horiz-adv-x="660" 
d="M318 680q83 0 138.5 -25.5t88.5 -70.5t46.5 -106.5t13.5 -132.5q0 -72 -13.5 -135t-46.5 -109.5t-88.5 -73.5t-138.5 -27h-243v317h-60v56h60v307h243zM170 595v-222h120v-56h-120v-232h148q57 0 93.5 20t57 55.5t28.5 83t8 101.5t-8 100t-28.5 79.5t-57 52t-93.5 18.5
h-148z" />
    <glyph glyph-name="dcroat" unicode="&#x111;" horiz-adv-x="530" 
d="M385 50h-2q-28 -26 -69.5 -42t-89.5 -16h-9t-9 1q-46 4 -77 25.5t-49.5 56t-26.5 79.5t-8 96t9 95.5t28.5 79t51 56.5t77.5 26q6 1 11.5 1.5t11.5 0.5q43 0 82.5 -15.5t66.5 -41.5h2v110h-110v55h110v83h90v-83h70v-55h-70v-562h-90v50zM140 250q0 -38 5.5 -71.5
t20 -58.5t38.5 -40t61 -15q42 0 73 15t47 27v285q-16 13 -47 28t-73 15q-37 0 -61 -15t-38.5 -40t-20 -59t-5.5 -71z" />
    <glyph glyph-name="Emacron" unicode="&#x112;" horiz-adv-x="560" 
d="M452 820v-65h-310v65h310zM505 85v-85h-440v680h435v-85h-340v-200h295v-85h-295v-225h345z" />
    <glyph glyph-name="emacron" unicode="&#x113;" horiz-adv-x="530" 
d="M142 235q1 -38 10.5 -69t29 -53.5t50.5 -35t75 -12.5q37 0 74.5 3t81.5 17l12 -73q-48 -13 -89.5 -17.5t-90.5 -4.5q-69 0 -117 19t-77.5 53t-42.5 82t-13 106t13 106t42 82t75.5 53t114.5 19q51 0 86.5 -11.5t59 -32t36 -47.5t17 -57.5t2.5 -63t-7 -63.5h-342zM285 440
q-38 0 -64 -11.5t-42.5 -31t-25 -47t-11.5 -58.5h258q4 27 1.5 53.5t-15.5 47.5t-37 34t-64 13zM438 650v-65h-310v65h310z" />
    <glyph glyph-name="Ebreve" unicode="&#x114;" horiz-adv-x="560" 
d="M304 808q22 0 39.5 7t29.5 17.5t20 23.5t12 24h39q-9 -67 -45.5 -101t-94.5 -34q-57 0 -93.5 34t-45.5 101h39q4 -11 12 -24t20 -23.5t29 -17.5t39 -7zM505 85v-85h-440v680h435v-85h-340v-200h295v-85h-295v-225h345z" />
    <glyph glyph-name="ebreve" unicode="&#x115;" horiz-adv-x="530" 
d="M142 235q1 -38 10.5 -69t29 -53.5t50.5 -35t75 -12.5q37 0 74.5 3t81.5 17l12 -73q-48 -13 -89.5 -17.5t-90.5 -4.5q-69 0 -117 19t-77.5 53t-42.5 82t-13 106t13 106t42 82t75.5 53t114.5 19q51 0 86.5 -11.5t59 -32t36 -47.5t17 -57.5t2.5 -63t-7 -63.5h-342zM285 440
q-38 0 -64 -11.5t-42.5 -31t-25 -47t-11.5 -58.5h258q4 27 1.5 53.5t-15.5 47.5t-37 34t-64 13zM286 638q22 0 39.5 7t29.5 17.5t20 23.5t12 24h39q-9 -67 -45.5 -101t-94.5 -34q-57 0 -93.5 34t-45.5 101h39q4 -11 12 -24t20 -23.5t29 -17.5t39 -7z" />
    <glyph glyph-name="Edotaccent" unicode="&#x116;" horiz-adv-x="560" 
d="M230 870h80v-120h-80v120zM505 85v-85h-440v680h435v-85h-340v-200h295v-85h-295v-225h345z" />
    <glyph glyph-name="edotaccent" unicode="&#x117;" horiz-adv-x="530" 
d="M142 235q1 -38 10.5 -69t29 -53.5t50.5 -35t75 -12.5q37 0 74.5 3t81.5 17l12 -73q-48 -13 -89.5 -17.5t-90.5 -4.5q-69 0 -117 19t-77.5 53t-42.5 82t-13 106t13 106t42 82t75.5 53t114.5 19q51 0 86.5 -11.5t59 -32t36 -47.5t17 -57.5t2.5 -63t-7 -63.5h-342zM285 440
q-38 0 -64 -11.5t-42.5 -31t-25 -47t-11.5 -58.5h258q4 27 1.5 53.5t-15.5 47.5t-37 34t-64 13zM235 700h80v-120h-80v120z" />
    <glyph glyph-name="Eogonek" unicode="&#x118;" horiz-adv-x="560" 
d="M553 -181q-17 -14 -41.5 -21.5t-48.5 -7.5q-36 0 -63 20t-27 62q0 36 24 69t62 59h-394v680h435v-85h-340v-200h295v-85h-295v-225h345v-85q-30 -23 -50 -53.5t-20 -56.5t15 -40t43 -14q20 0 32.5 6t23.5 11z" />
    <glyph glyph-name="eogonek" unicode="&#x119;" horiz-adv-x="530" 
d="M523 -169q-17 -14 -41.5 -21.5t-48.5 -7.5q-18 0 -34.5 6t-28.5 17t-19.5 26t-7.5 33q0 32 18 61t49 53q-28 -5 -56 -6.5t-59 -1.5q-69 0 -117 19t-77.5 53t-42.5 82t-13 106t13 106t42 82t75.5 53t114.5 19q51 0 86.5 -11.5t59 -32t36 -47.5t17 -57.5t2.5 -63t-7 -63.5
h-342q1 -38 10.5 -69t29 -53.5t50.5 -35t75 -12.5q37 0 74.5 3t81.5 17l12 -73q-30 -23 -50 -53.5t-20 -56.5t15 -40t43 -14q20 0 32.5 6t23.5 11zM285 440q-38 0 -64 -11.5t-42.5 -31t-25 -47t-11.5 -58.5h258q4 27 1.5 53.5t-15.5 47.5t-37 34t-64 13z" />
    <glyph glyph-name="Ecaron" unicode="&#x11a;" horiz-adv-x="560" 
d="M362 870h60l-106 -140h-59l-105 140h60l75 -69zM505 85v-85h-440v680h435v-85h-340v-200h295v-85h-295v-225h345z" />
    <glyph glyph-name="ecaron" unicode="&#x11b;" horiz-adv-x="530" 
d="M142 235q1 -38 10.5 -69t29 -53.5t50.5 -35t75 -12.5q37 0 74.5 3t81.5 17l12 -73q-48 -13 -89.5 -17.5t-90.5 -4.5q-69 0 -117 19t-77.5 53t-42.5 82t-13 106t13 106t42 82t75.5 53t114.5 19q51 0 86.5 -11.5t59 -32t36 -47.5t17 -57.5t2.5 -63t-7 -63.5h-342zM285 440
q-38 0 -64 -11.5t-42.5 -31t-25 -47t-11.5 -58.5h258q4 27 1.5 53.5t-15.5 47.5t-37 34t-64 13zM357 700h60l-106 -140h-59l-105 140h60l75 -69z" />
    <glyph glyph-name="Gcircumflex" unicode="&#x11c;" horiz-adv-x="640" 
d="M375 799l-75 -69h-60l105 140h59l106 -140h-60zM345 -10q-87 0 -143.5 28t-89 76.5t-45 113t-12.5 137.5q0 71 12.5 134t45 110t89 74t143.5 27q59 0 115 -8t120 -27l-21 -80q-39 9 -68.5 15t-53 9.5t-43.5 4.5t-41 1q-59 0 -97.5 -20t-61 -55.5t-31 -83t-8.5 -101.5
q0 -58 8.5 -107.5t31 -85.5t61 -56.5t97.5 -20.5q37 0 68 9t59 25v156h-130v85h225v-306q-52 -22 -105 -38t-125 -16z" />
    <glyph glyph-name="gcircumflex" unicode="&#x11d;" horiz-adv-x="555" 
d="M116 33q-23 13 -32 34t-4.5 44.5t21 46.5t44.5 40v2q-38 19 -60.5 55t-22.5 85q0 83 54.5 126.5t148.5 43.5q20 0 37.5 -2.5t31.5 -7.5h176v-55h-97v-2q27 -19 38.5 -48t11.5 -55q0 -42 -15 -73t-41.5 -51.5t-63 -30.5t-78.5 -10q-15 0 -35 2.5t-37 8.5
q-14 -14 -21.5 -30.5t-7 -30.5t9 -23.5t26.5 -10.5l179 -11q78 -5 112 -34t34 -81q0 -87 -70 -131t-220 -44q-102 0 -153.5 31.5t-51.5 98.5q0 34 20.5 61t65.5 50v2zM105 -65q0 -42 38 -63.5t110 -21.5q36 0 68 6t56 18t38.5 30.5t14.5 43.5q0 22 -18 39.5t-65 19.5
l-185 10q-24 -17 -40.5 -35t-16.5 -47zM265 235q53 0 84 27.5t31 77.5q0 51 -31.5 80.5t-83.5 29.5q-58 0 -87.5 -29.5t-29.5 -80.5t31.5 -78t85.5 -27zM280 629l-75 -69h-60l105 140h59l106 -140h-60z" />
    <glyph glyph-name="Gbreve" unicode="&#x11e;" horiz-adv-x="640" 
d="M363 808q22 0 39.5 7t29.5 17.5t20 23.5t12 24h39q-9 -67 -45.5 -101t-94.5 -34q-57 0 -93.5 34t-45.5 101h39q4 -11 12 -24t20 -23.5t29 -17.5t39 -7zM345 -10q-87 0 -143.5 28t-89 76.5t-45 113t-12.5 137.5q0 71 12.5 134t45 110t89 74t143.5 27q59 0 115 -8t120 -27
l-21 -80q-39 9 -68.5 15t-53 9.5t-43.5 4.5t-41 1q-59 0 -97.5 -20t-61 -55.5t-31 -83t-8.5 -101.5q0 -58 8.5 -107.5t31 -85.5t61 -56.5t97.5 -20.5q37 0 68 9t59 25v156h-130v85h225v-306q-52 -22 -105 -38t-125 -16z" />
    <glyph glyph-name="gbreve" unicode="&#x11f;" horiz-adv-x="555" 
d="M116 33q-23 13 -32 34t-4.5 44.5t21 46.5t44.5 40v2q-38 19 -60.5 55t-22.5 85q0 83 54.5 126.5t148.5 43.5q20 0 37.5 -2.5t31.5 -7.5h176v-55h-97v-2q27 -19 38.5 -48t11.5 -55q0 -42 -15 -73t-41.5 -51.5t-63 -30.5t-78.5 -10q-15 0 -35 2.5t-37 8.5
q-14 -14 -21.5 -30.5t-7 -30.5t9 -23.5t26.5 -10.5l179 -11q78 -5 112 -34t34 -81q0 -87 -70 -131t-220 -44q-102 0 -153.5 31.5t-51.5 98.5q0 34 20.5 61t65.5 50v2zM105 -65q0 -42 38 -63.5t110 -21.5q36 0 68 6t56 18t38.5 30.5t14.5 43.5q0 22 -18 39.5t-65 19.5
l-185 10q-24 -17 -40.5 -35t-16.5 -47zM265 235q53 0 84 27.5t31 77.5q0 51 -31.5 80.5t-83.5 29.5q-58 0 -87.5 -29.5t-29.5 -80.5t31.5 -78t85.5 -27zM286 638q22 0 39.5 7t29.5 17.5t20 23.5t12 24h39q-9 -67 -45.5 -101t-94.5 -34q-57 0 -93.5 34t-45.5 101h39
q4 -11 12 -24t20 -23.5t29 -17.5t39 -7z" />
    <glyph glyph-name="Gdotaccent" unicode="&#x120;" horiz-adv-x="640" 
d="M309 870h80v-120h-80v120zM345 -10q-87 0 -143.5 28t-89 76.5t-45 113t-12.5 137.5q0 71 12.5 134t45 110t89 74t143.5 27q59 0 115 -8t120 -27l-21 -80q-39 9 -68.5 15t-53 9.5t-43.5 4.5t-41 1q-59 0 -97.5 -20t-61 -55.5t-31 -83t-8.5 -101.5q0 -58 8.5 -107.5
t31 -85.5t61 -56.5t97.5 -20.5q37 0 68 9t59 25v156h-130v85h225v-306q-52 -22 -105 -38t-125 -16z" />
    <glyph glyph-name="gdotaccent" unicode="&#x121;" horiz-adv-x="555" 
d="M116 33q-23 13 -32 34t-4.5 44.5t21 46.5t44.5 40v2q-38 19 -60.5 55t-22.5 85q0 83 54.5 126.5t148.5 43.5q20 0 37.5 -2.5t31.5 -7.5h176v-55h-97v-2q27 -19 38.5 -48t11.5 -55q0 -42 -15 -73t-41.5 -51.5t-63 -30.5t-78.5 -10q-15 0 -35 2.5t-37 8.5
q-14 -14 -21.5 -30.5t-7 -30.5t9 -23.5t26.5 -10.5l179 -11q78 -5 112 -34t34 -81q0 -87 -70 -131t-220 -44q-102 0 -153.5 31.5t-51.5 98.5q0 34 20.5 61t65.5 50v2zM105 -65q0 -42 38 -63.5t110 -21.5q36 0 68 6t56 18t38.5 30.5t14.5 43.5q0 22 -18 39.5t-65 19.5
l-185 10q-24 -17 -40.5 -35t-16.5 -47zM265 235q53 0 84 27.5t31 77.5q0 51 -31.5 80.5t-83.5 29.5q-58 0 -87.5 -29.5t-29.5 -80.5t31.5 -78t85.5 -27zM226 700h80v-120h-80v120z" />
    <glyph glyph-name="Gcommaaccent" unicode="&#x122;" horiz-adv-x="640" 
d="M345 -10q-87 0 -143.5 28t-89 76.5t-45 113t-12.5 137.5q0 71 12.5 134t45 110t89 74t143.5 27q59 0 115 -8t120 -27l-21 -80q-39 9 -68.5 15t-53 9.5t-43.5 4.5t-41 1q-59 0 -97.5 -20t-61 -55.5t-31 -83t-8.5 -101.5q0 -58 8.5 -107.5t31 -85.5t61 -56.5t97.5 -20.5
q37 0 68 9t59 25v156h-130v85h225v-306q-52 -22 -105 -38t-125 -16zM309 -250q5 26 10 52.5t10 52.5h-35v105h90v-105l-45 -105h-30z" />
    <glyph glyph-name="gcommaaccent" unicode="&#x123;" horiz-adv-x="555" 
d="M116 33q-23 13 -32 34t-4.5 44.5t21 46.5t44.5 40v2q-38 19 -60.5 55t-22.5 85q0 83 54.5 126.5t148.5 43.5q20 0 37.5 -2.5t31.5 -7.5h176v-55h-97v-2q27 -19 38.5 -48t11.5 -55q0 -42 -15 -73t-41.5 -51.5t-63 -30.5t-78.5 -10q-15 0 -35 2.5t-37 8.5
q-14 -14 -21.5 -30.5t-7 -30.5t9 -23.5t26.5 -10.5l179 -11q78 -5 112 -34t34 -81q0 -87 -70 -131t-220 -44q-102 0 -153.5 31.5t-51.5 98.5q0 34 20.5 61t65.5 50v2zM105 -65q0 -42 38 -63.5t110 -21.5q36 0 68 6t56 18t38.5 30.5t14.5 43.5q0 22 -18 39.5t-65 19.5
l-185 10q-24 -17 -40.5 -35t-16.5 -47zM265 235q53 0 84 27.5t31 77.5q0 51 -31.5 80.5t-83.5 29.5q-58 0 -87.5 -29.5t-29.5 -80.5t31.5 -78t85.5 -27zM297 850l-20 -130h35v-130h-90v130l45 130h30z" />
    <glyph glyph-name="Hcircumflex" unicode="&#x124;" horiz-adv-x="640" 
d="M315 799l-75 -69h-60l105 140h59l106 -140h-60zM160 310v-310h-95v680h95v-285h320v285h95v-680h-95v310h-320z" />
    <glyph glyph-name="hcircumflex" unicode="&#x125;" horiz-adv-x="530" 
d="M145 0h-90v700h90v-270h2q36 35 80.5 57.5t97.5 22.5q75 0 112.5 -43t37.5 -122v-345h-90v325q0 23 -5.5 43t-17.5 35t-31 23.5t-46 8.5q-22 0 -42.5 -6t-38.5 -14.5t-33 -18.5t-26 -19v-377zM101 819l-75 -69h-60l105 140h59l106 -140h-60z" />
    <glyph glyph-name="Hbar" unicode="&#x126;" horiz-adv-x="660" 
d="M75 578v102h95v-102h320v102h95v-102h70v-56h-70v-522h-95v310h-320v-310h-95v522h-70v56h70zM490 395v127h-320v-127h320z" />
    <glyph glyph-name="hbar" unicode="&#x127;" horiz-adv-x="530" 
d="M145 562v-132h2q36 36 80.5 58t97.5 22q75 0 112.5 -43t37.5 -122v-345h-90v325q0 49 -22 79.5t-78 30.5q-21 0 -41.5 -6t-38.5 -14.5t-33.5 -18.5t-26.5 -19v-377h-90v562h-70v56h70v82h90v-82h110v-56h-110z" />
    <glyph glyph-name="Itilde" unicode="&#x128;" horiz-adv-x="225" 
d="M57 780q-9 0 -16.5 -1t-16.5 -5t-20.5 -11.5t-26.5 -20.5l-29 23q29 48 55 67.5t52 19.5q18 0 36 -6.5t35 -14.5t32 -14.5t28 -6.5q14 0 28.5 3t36.5 28l25 -28q-17 -34 -37.5 -53.5t-46.5 -19.5q-16 0 -33.5 6t-35 13.5t-34.5 14t-32 6.5zM64 0v680h95v-680h-95z" />
    <glyph glyph-name="itilde" unicode="&#x129;" horiz-adv-x="200" 
d="M55 500h90v-500h-90v500zM46 610q-9 0 -16.5 -1t-16.5 -5t-20.5 -11.5t-26.5 -20.5l-29 23q29 48 55 67.5t52 19.5q18 0 36 -6.5t35 -14.5t32 -14.5t28 -6.5q14 0 28.5 3t36.5 28l25 -28q-17 -34 -37.5 -53.5t-46.5 -19.5q-16 0 -33.5 6t-35 13.5t-34.5 14t-32 6.5z" />
    <glyph glyph-name="Imacron" unicode="&#x12a;" horiz-adv-x="225" 
d="M268 820v-65h-310v65h310zM61 0v680h95v-680h-95z" />
    <glyph glyph-name="imacron" unicode="&#x12b;" horiz-adv-x="200" 
d="M55 500h90v-500h-90v500zM256 650v-65h-310v65h310z" />
    <glyph glyph-name="Ibreve" unicode="&#x12c;" horiz-adv-x="225" 
d="M112 808q22 0 39.5 7t29.5 17.5t20 23.5t12 24h39q-9 -67 -45.5 -101t-94.5 -34q-57 0 -93.5 34t-45.5 101h39q4 -11 12 -24t20 -23.5t29 -17.5t39 -7zM67 0v680h95v-680h-95z" />
    <glyph glyph-name="ibreve" unicode="&#x12d;" horiz-adv-x="200" 
d="M55 500h90v-500h-90v500zM101 638q22 0 39.5 7t29.5 17.5t20 23.5t12 24h39q-9 -67 -45.5 -101t-94.5 -34q-57 0 -93.5 34t-45.5 101h39q4 -11 12 -24t20 -23.5t29 -17.5t39 -7z" />
    <glyph glyph-name="Iogonek" unicode="&#x12e;" horiz-adv-x="225" 
d="M187 -181q-17 -14 -41.5 -21.5t-48.5 -7.5q-18 0 -34.5 6t-28.5 17t-19.5 26t-7.5 33q0 36 24 69t62 59h-28v680h95v-680h-21q-30 -23 -50 -53.5t-20 -56.5t15 -40t43 -14q20 0 32.5 6t23.5 11z" />
    <glyph glyph-name="iogonek" unicode="&#x12f;" horiz-adv-x="200" 
d="M55 500h90v-500h-20q-30 -23 -50 -53.5t-20 -56.5t15 -40t43 -14q20 0 32.5 6t23.5 11l4 -34q-17 -14 -41.5 -21.5t-48.5 -7.5q-18 0 -34.5 6t-28.5 17t-19.5 26t-7.5 33q0 36 24 69t62 59h-24v500zM55 700h90v-125h-90v125z" />
    <glyph glyph-name="Idotaccent" unicode="&#x130;" horiz-adv-x="225" 
d="M73 870h80v-120h-80v120zM65 0v680h95v-680h-95z" />
    <glyph glyph-name="dotlessi" unicode="&#x131;" horiz-adv-x="200" 
d="M55 500h90v-500h-90v500z" />
    <glyph glyph-name="IJ" unicode="&#x132;" horiz-adv-x="560" 
d="M65 0v680h95v-680h-95zM400 680h95v-509q0 -50 -11 -84.5t-31.5 -56t-50.5 -31t-67 -9.5q-26 0 -49 2t-43 6l8 80q17 -3 31 -4t28 -1q45 0 67.5 23t22.5 80v504z" />
    <glyph glyph-name="ij" unicode="&#x133;" horiz-adv-x="400" 
d="M55 500h90v-500h-90v500zM55 700h90v-125h-90v125zM255 700h90v-125h-90v125zM255 500h90v-572q0 -71 -31.5 -104.5t-113.5 -33.5q-37 0 -80 8l9 70q16 -3 28 -4t23 -1q43 0 59 15.5t16 57.5v564z" />
    <glyph glyph-name="Jcircumflex" unicode="&#x134;" horiz-adv-x="335" 
d="M222 799l-75 -69h-60l105 140h59l106 -140h-60zM175 680h95v-509q0 -50 -11 -84.5t-31.5 -56t-50.5 -31t-67 -9.5q-50 0 -93 8l9 80q17 -3 30.5 -4t28.5 -1q45 0 67.5 23t22.5 80v504z" />
    <glyph glyph-name="jcircumflex" unicode="&#x135;" horiz-adv-x="240" 
d="M95 500h90v-572q0 -71 -31.5 -104.5t-113.5 -33.5q-37 0 -80 8l9 70q16 -3 28 -4t23 -1q43 0 59 15.5t16 57.5v564zM140 629l-75 -69h-60l105 140h59l106 -140h-60z" />
    <glyph glyph-name="Kcommaaccent" unicode="&#x136;" horiz-adv-x="628" 
d="M261 -243q5 26 10 52.5t10 52.5h-35v105h90v-105l-45 -105h-30zM271 322l-111 -125v-197h-95v680h95v-352l311 352h114l-244 -282l249 -398h-119z" />
    <glyph glyph-name="kcommaaccent" unicode="&#x137;" horiz-adv-x="540" 
d="M145 0h-90v700h90v-404l240 204h110l-190 -173l200 -327h-107l-156 266l-97 -81v-185zM230 -250q5 26 10 52.5t10 52.5h-35v105h90v-105l-45 -105h-30z" />
    <glyph glyph-name="kgreenlandic" unicode="&#x138;" horiz-adv-x="540" 
d="M145 0h-90v500h90v-239l240 239h110l-190 -192l200 -308h-107l-156 246l-97 -96v-150z" />
    <glyph glyph-name="Lacute" unicode="&#x139;" horiz-adv-x="540" 
d="M148 730h-60l50 140h87zM495 85v-85h-430v680h95v-595h335z" />
    <glyph glyph-name="lacute" unicode="&#x13a;" horiz-adv-x="200" 
d="M55 700h90v-700h-90v700zM214 890l-77 -140h-60l50 140h87v0z" />
    <glyph glyph-name="Lcommaaccent" unicode="&#x13b;" horiz-adv-x="540" 
d="M221 -242q5 26 10 52.5t10 52.5h-35v105h90v-105l-45 -105h-30zM495 85v-85h-430v680h95v-595h335z" />
    <glyph glyph-name="lcommaaccent" unicode="&#x13c;" horiz-adv-x="200" 
d="M55 700h90v-700h-90v700zM70 -250q5 26 10 52.5t10 52.5h-35v105h90v-105l-45 -105h-30z" />
    <glyph glyph-name="Lcaron" unicode="&#x13d;" horiz-adv-x="540" 
d="M295 470q5 26 10 52.5t10 52.5h-35v105h90v-105l-45 -105h-30zM495 85v-85h-430v680h95v-595h335z" />
    <glyph glyph-name="lcaron" unicode="&#x13e;" horiz-adv-x="250" 
d="M55 700h90v-700h-90v700zM205 490q5 26 10 52.5t10 52.5h-35v105h90v-105l-45 -105h-30z" />
    <glyph glyph-name="Ldot" unicode="&#x13f;" horiz-adv-x="540" 
d="M280 440h80v-120h-80v120zM495 85v-85h-430v680h95v-595h335z" />
    <glyph glyph-name="ldot" unicode="&#x140;" horiz-adv-x="300" 
d="M55 700h90v-700h-90v700zM200 420h80v-120h-80v120z" />
    <glyph glyph-name="Lslash" unicode="&#x141;" horiz-adv-x="550" 
d="M505 85v-85h-430v339l-70 -17v56l70 16v286h95v-264l110 27v-56l-110 -26v-276h335z" />
    <glyph glyph-name="lslash" unicode="&#x142;" horiz-adv-x="240" 
d="M260 367l-95 -23v-344h-90v321l-95 -24v55l95 24v324h90v-301l95 23v-55v0z" />
    <glyph glyph-name="Nacute" unicode="&#x143;" horiz-adv-x="650" 
d="M356 730h-60l50 140h87zM485 0l-325 494h-2v-494h-93v680h95l330 -504h2v504h93v-680h-100z" />
    <glyph glyph-name="nacute" unicode="&#x144;" horiz-adv-x="530" 
d="M145 0h-90v500h90v-70h2q36 35 80.5 57.5t97.5 22.5q75 0 112.5 -43t37.5 -122v-345h-90v325q0 48 -22.5 79t-77.5 31q-22 0 -42.5 -6t-38.5 -14.5t-33 -18.5t-26 -19v-377zM366 700l-77 -140h-60l50 140h87v0z" />
    <glyph glyph-name="Ncommaaccent" unicode="&#x145;" horiz-adv-x="650" 
d="M289 -250q5 26 10 52.5t10 52.5h-35v105h90v-105l-45 -105h-30zM485 0l-325 494h-2v-494h-93v680h95l330 -504h2v504h93v-680h-100z" />
    <glyph glyph-name="ncommaaccent" unicode="&#x146;" horiz-adv-x="530" 
d="M145 0h-90v500h90v-70h2q36 35 80.5 57.5t97.5 22.5q75 0 112.5 -43t37.5 -122v-345h-90v325q0 48 -22.5 79t-77.5 31q-22 0 -42.5 -6t-38.5 -14.5t-33 -18.5t-26 -19v-377zM235 -250q5 26 10 52.5t10 52.5h-35v105h90v-105l-45 -105h-30z" />
    <glyph glyph-name="Ncaron" unicode="&#x147;" horiz-adv-x="650" 
d="M408 870h60l-106 -140h-59l-105 140h60l75 -69zM485 0l-325 494h-2v-494h-93v680h95l330 -504h2v504h93v-680h-100z" />
    <glyph glyph-name="ncaron" unicode="&#x148;" horiz-adv-x="530" 
d="M145 0h-90v500h90v-70h2q36 35 80.5 57.5t97.5 22.5q75 0 112.5 -43t37.5 -122v-345h-90v325q0 48 -22.5 79t-77.5 31q-22 0 -42.5 -6t-38.5 -14.5t-33 -18.5t-26 -19v-377zM342 700h60l-106 -140h-59l-105 140h60l75 -69z" />
    <glyph glyph-name="napostrophe" unicode="&#x149;" horiz-adv-x="530" 
d="M145 0h-90v500h90v-70h2q36 35 80.5 57.5t97.5 22.5q75 0 112.5 -43t37.5 -122v-345h-90v325q0 48 -22.5 79t-77.5 31q-22 0 -42.5 -6t-38.5 -14.5t-33 -18.5t-26 -19v-377zM84 571q5 26 10 52.5t10 52.5h-35v105h90v-105l-45 -105h-30z" />
    <glyph glyph-name="Eng" unicode="&#x14a;" horiz-adv-x="650" 
d="M490 0l-333 504h-2v-504h-90v680h95l333 -505h2v505h90v-752q0 -71 -31.5 -104.5t-113.5 -33.5q-37 0 -80 8l9 70q16 -3 28 -4t23 -1q43 0 56.5 16t13.5 57v64z" />
    <glyph glyph-name="eng" unicode="&#x14b;" horiz-adv-x="530" 
d="M385 325q0 48 -22.5 79t-77.5 31q-22 0 -42.5 -6t-38.5 -14.5t-33 -18.5t-26 -19v-377h-90v500h90v-70h2q36 35 80.5 57.5t97.5 22.5q75 0 112.5 -43t37.5 -122v-417q0 -71 -31.5 -104.5t-113.5 -33.5q-37 0 -80 8l9 70q16 -3 28 -4t23 -1q43 0 59 15.5t16 57.5v389z" />
    <glyph glyph-name="Omacron" unicode="&#x14c;" horiz-adv-x="690" 
d="M503 820v-65h-310v65h310zM345 610q-61 0 -98 -21t-57.5 -57t-27.5 -84.5t-7 -102.5t7 -104t27.5 -88t57.5 -60.5t98 -22.5t98 22.5t57.5 60.5t27.5 88t7 104t-7 102.5t-27.5 84.5t-57.5 57t-98 21zM345 -10q-87 0 -143.5 28.5t-89 77t-45 113t-12.5 136.5q0 71 12.5 134
t45 110t89 74t143.5 27t143.5 -27t89 -74t45 -110t12.5 -134q0 -72 -12.5 -136.5t-45 -113t-89 -77t-143.5 -28.5z" />
    <glyph glyph-name="omacron" unicode="&#x14d;" horiz-adv-x="550" 
d="M275 435q-39 0 -65 -14t-41.5 -39t-22 -59t-6.5 -73t6.5 -73t22 -59t41.5 -39t65 -14t65 14t41.5 39t22 59t6.5 73t-6.5 73t-22 59t-41.5 39t-65 14zM275 -10q-63 0 -107 19t-71 53t-39.5 82t-12.5 106t12.5 106t39.5 82t71 53t107 19t106.5 -19t71 -53t40 -82t12.5 -106
t-12.5 -106t-40 -82t-71 -53t-106.5 -19zM430 650v-65h-310v65h310z" />
    <glyph glyph-name="Obreve" unicode="&#x14e;" horiz-adv-x="690" 
d="M345 808q22 0 39.5 7t29.5 17.5t20 23.5t12 24h39q-9 -67 -45.5 -101t-94.5 -34q-57 0 -93.5 34t-45.5 101h39q4 -11 12 -24t20 -23.5t29 -17.5t39 -7zM345 610q-61 0 -98 -21t-57.5 -57t-27.5 -84.5t-7 -102.5t7 -104t27.5 -88t57.5 -60.5t98 -22.5t98 22.5t57.5 60.5
t27.5 88t7 104t-7 102.5t-27.5 84.5t-57.5 57t-98 21zM345 -10q-87 0 -143.5 28.5t-89 77t-45 113t-12.5 136.5q0 71 12.5 134t45 110t89 74t143.5 27t143.5 -27t89 -74t45 -110t12.5 -134q0 -72 -12.5 -136.5t-45 -113t-89 -77t-143.5 -28.5z" />
    <glyph glyph-name="obreve" unicode="&#x14f;" horiz-adv-x="550" 
d="M275 435q-39 0 -65 -14t-41.5 -39t-22 -59t-6.5 -73t6.5 -73t22 -59t41.5 -39t65 -14t65 14t41.5 39t22 59t6.5 73t-6.5 73t-22 59t-41.5 39t-65 14zM275 -10q-63 0 -107 19t-71 53t-39.5 82t-12.5 106t12.5 106t39.5 82t71 53t107 19t106.5 -19t71 -53t40 -82t12.5 -106
t-12.5 -106t-40 -82t-71 -53t-106.5 -19zM272 638q22 0 39.5 7t29.5 17.5t20 23.5t12 24h39q-9 -67 -45.5 -101t-94.5 -34q-57 0 -93.5 34t-45.5 101h39q4 -11 12 -24t20 -23.5t29 -17.5t39 -7z" />
    <glyph glyph-name="Ohungarumlaut" unicode="&#x150;" horiz-adv-x="690" 
d="M289 730h-60l50 140h87zM459 730h-60l50 140h87zM345 610q-61 0 -98 -21t-57.5 -57t-27.5 -84.5t-7 -102.5t7 -104t27.5 -88t57.5 -60.5t98 -22.5t98 22.5t57.5 60.5t27.5 88t7 104t-7 102.5t-27.5 84.5t-57.5 57t-98 21zM345 -10q-87 0 -143.5 28.5t-89 77t-45 113
t-12.5 136.5q0 71 12.5 134t45 110t89 74t143.5 27t143.5 -27t89 -74t45 -110t12.5 -134q0 -72 -12.5 -136.5t-45 -113t-89 -77t-143.5 -28.5z" />
    <glyph glyph-name="ohungarumlaut" unicode="&#x151;" horiz-adv-x="550" 
d="M275 435q-39 0 -65 -14t-41.5 -39t-22 -59t-6.5 -73t6.5 -73t22 -59t41.5 -39t65 -14t65 14t41.5 39t22 59t6.5 73t-6.5 73t-22 59t-41.5 39t-65 14zM275 -10q-63 0 -107 19t-71 53t-39.5 82t-12.5 106t12.5 106t39.5 82t71 53t107 19t106.5 -19t71 -53t40 -82t12.5 -106
t-12.5 -106t-40 -82t-71 -53t-106.5 -19zM209 560h-60l50 140h87zM379 560h-60l50 140h87z" />
    <glyph glyph-name="OE" unicode="&#x152;" horiz-adv-x="1035" 
d="M980 85v-85h-440v52q-33 -29 -81 -45.5t-114 -16.5q-87 0 -143.5 28.5t-89 77t-45 113t-12.5 136.5q0 71 12.5 134t45 110t89 74t143.5 27q66 0 114 -15.5t81 -44.5v50h435v-85h-340v-200h295v-85h-295v-225h345zM345 610q-61 0 -98 -21t-57.5 -57t-27.5 -84.5t-7 -102.5
t7 -104t27.5 -88t57.5 -60.5t98 -22.5t98 22.5t57.5 60.5t27.5 88t7 104t-7 102.5t-27.5 84.5t-57.5 57t-98 21z" />
    <glyph glyph-name="oe" unicode="&#x153;" horiz-adv-x="896" 
d="M508 235q1 -38 10.5 -69t29 -53.5t50.5 -35t75 -12.5q37 0 74.5 3t81.5 17l12 -73q-48 -13 -89.5 -17.5t-90.5 -4.5q-75 0 -124 21.5t-78 59.5q-27 -38 -72 -59.5t-112 -21.5q-63 0 -107 19t-71 53t-39.5 82t-12.5 106t12.5 106t39.5 82t71 53t107 19q66 0 111.5 -21.5
t72.5 -59.5q29 38 77 59.5t120 21.5q51 0 86.5 -11.5t59 -32t36 -47.5t17 -57.5t2.5 -63t-7 -63.5h-342zM275 435q-39 0 -65 -14t-41.5 -39t-22 -59t-6.5 -73t6.5 -73t22 -59t41.5 -39t65 -14t65 14t41.5 39t22 59t6.5 73t-6.5 73t-22 59t-41.5 39t-65 14zM651 440
q-38 0 -64 -11.5t-42.5 -31t-25 -47t-11.5 -58.5h258q4 27 1.5 53.5t-15.5 47.5t-37 34t-64 13z" />
    <glyph glyph-name="Racute" unicode="&#x154;" horiz-adv-x="615" 
d="M320 730h-60l50 140h87zM305 265h-145v-265h-95v680h280q51 0 90 -15.5t65.5 -43t40.5 -66t14 -83.5q0 -72 -38 -125t-113 -67l174 -280h-112zM160 350h170q57 0 92 30t35 92q0 59 -32.5 91t-89.5 32h-175v-245z" />
    <glyph glyph-name="racute" unicode="&#x155;" horiz-adv-x="370" 
d="M145 0h-90v500h90v-80h2q15 17 35 33t44 29t51.5 20.5t57.5 7.5v-85q-28 0 -55.5 -5.5t-52.5 -14t-46 -18.5t-36 -20v-367zM214 700l-77 -140h-60l50 140h87v0z" />
    <glyph glyph-name="Rcommaaccent" unicode="&#x156;" horiz-adv-x="615" 
d="M261 -244q5 26 10 52.5t10 52.5h-35v105h90v-105l-45 -105h-30zM305 265h-145v-265h-95v680h280q51 0 90 -15.5t65.5 -43t40.5 -66t14 -83.5q0 -72 -38 -125t-113 -67l174 -280h-112zM160 350h170q57 0 92 30t35 92q0 59 -32.5 91t-89.5 32h-175v-245z" />
    <glyph glyph-name="rcommaaccent" unicode="&#x157;" horiz-adv-x="370" 
d="M145 0h-90v500h90v-80h2q15 17 35 33t44 29t51.5 20.5t57.5 7.5v-85q-28 0 -55.5 -5.5t-52.5 -14t-46 -18.5t-36 -20v-367zM70 -250q5 26 10 52.5t10 52.5h-35v105h90v-105l-45 -105h-30z" />
    <glyph glyph-name="Rcaron" unicode="&#x158;" horiz-adv-x="615" 
d="M368 870h60l-106 -140h-59l-105 140h60l75 -69zM305 265h-145v-265h-95v680h280q51 0 90 -15.5t65.5 -43t40.5 -66t14 -83.5q0 -72 -38 -125t-113 -67l174 -280h-112zM160 350h170q57 0 92 30t35 92q0 59 -32.5 91t-89.5 32h-175v-245z" />
    <glyph glyph-name="rcaron" unicode="&#x159;" horiz-adv-x="370" 
d="M145 0h-90v500h90v-80h2q15 17 35 33t44 29t51.5 20.5t57.5 7.5v-85q-28 0 -55.5 -5.5t-52.5 -14t-46 -18.5t-36 -20v-367zM271 700h60l-106 -140h-59l-105 140h60l75 -69z" />
    <glyph glyph-name="Sacute" unicode="&#x15a;" 
d="M327 730h-60l50 140h87zM300 75q37 0 64.5 9t45.5 24t26.5 34.5t8.5 40.5q0 31 -16.5 51t-41.5 33.5t-55 21.5t-57 16q-42 11 -80 28t-67 42t-46 58.5t-17 76.5q0 48 18.5 82.5t50.5 56t74.5 31.5t91.5 10q57 0 111.5 -8t118.5 -27l-21 -80q-39 9 -69 15t-54 9.5
t-44.5 4.5t-41.5 1q-38 0 -63.5 -8t-41.5 -21.5t-23 -31t-7 -37.5q0 -29 17 -49t42.5 -34t56.5 -23t59 -16q42 -9 79 -24t65 -38.5t44.5 -56t16.5 -76.5q0 -51 -18.5 -88.5t-51.5 -62t-78 -37t-97 -12.5q-57 0 -119 8t-126 27l16 80q78 -19 132.5 -24.5t96.5 -5.5z" />
    <glyph glyph-name="sacute" unicode="&#x15b;" horiz-adv-x="480" 
d="M245 63q34 0 55 9t32 21t14.5 24.5t3.5 19.5q0 12 -5 23t-18 20t-35 17t-55 14q-40 7 -74 18.5t-59 29.5t-39.5 45t-14.5 66q0 72 48 106t137 34q59 0 107 -6t93 -17l-16 -72q-60 15 -106.5 18.5t-72.5 3.5q-34 0 -53.5 -8t-30 -18.5t-13.5 -21.5t-3 -17q0 -12 4 -22.5
t15.5 -20t32.5 -18t55 -15.5q39 -8 74 -18.5t61.5 -28t42 -43t15.5 -63.5q0 -76 -48 -114.5t-137 -38.5q-59 0 -114.5 6t-100.5 17l16 72q60 -15 111.5 -18.5t77.5 -3.5zM349 700l-77 -140h-60l50 140h87v0z" />
    <glyph glyph-name="Scircumflex" unicode="&#x15c;" 
d="M309 799l-75 -69h-60l105 140h59l106 -140h-60zM300 75q37 0 64.5 9t45.5 24t26.5 34.5t8.5 40.5q0 31 -16.5 51t-41.5 33.5t-55 21.5t-57 16q-42 11 -80 28t-67 42t-46 58.5t-17 76.5q0 48 18.5 82.5t50.5 56t74.5 31.5t91.5 10q57 0 111.5 -8t118.5 -27l-21 -80
q-39 9 -69 15t-54 9.5t-44.5 4.5t-41.5 1q-38 0 -63.5 -8t-41.5 -21.5t-23 -31t-7 -37.5q0 -29 17 -49t42.5 -34t56.5 -23t59 -16q42 -9 79 -24t65 -38.5t44.5 -56t16.5 -76.5q0 -51 -18.5 -88.5t-51.5 -62t-78 -37t-97 -12.5q-57 0 -119 8t-126 27l16 80
q78 -19 132.5 -24.5t96.5 -5.5z" />
    <glyph glyph-name="scircumflex" unicode="&#x15d;" horiz-adv-x="480" 
d="M245 63q34 0 55 9t32 21t14.5 24.5t3.5 19.5q0 12 -5 23t-18 20t-35 17t-55 14q-40 7 -74 18.5t-59 29.5t-39.5 45t-14.5 66q0 72 48 106t137 34q59 0 107 -6t93 -17l-16 -72q-60 15 -106.5 18.5t-72.5 3.5q-34 0 -53.5 -8t-30 -18.5t-13.5 -21.5t-3 -17q0 -12 4 -22.5
t15.5 -20t32.5 -18t55 -15.5q39 -8 74 -18.5t61.5 -28t42 -43t15.5 -63.5q0 -76 -48 -114.5t-137 -38.5q-59 0 -114.5 6t-100.5 17l16 72q60 -15 111.5 -18.5t77.5 -3.5zM246 629l-75 -69h-60l105 140h59l106 -140h-60z" />
    <glyph glyph-name="Scedilla" unicode="&#x15e;" 
d="M275 -9q-52 2 -108 9.5t-112 24.5l16 80q78 -19 132.5 -24.5t96.5 -5.5q37 0 64.5 9t45.5 24t26.5 34.5t8.5 40.5q0 31 -16.5 51t-41.5 33.5t-55 21.5t-57 16q-42 11 -80 28t-67 42t-46 58.5t-17 76.5q0 48 18.5 82.5t50.5 56t74.5 31.5t91.5 10q57 0 111.5 -8t118.5 -27
l-21 -80q-39 9 -69 15t-54 9.5t-44.5 4.5t-41.5 1q-38 0 -63.5 -8t-41.5 -21.5t-23 -31t-7 -37.5q0 -29 17 -49t42.5 -34t56.5 -23t59 -16q42 -9 79 -24t65 -38.5t44.5 -56t16.5 -76.5q0 -50 -17.5 -86.5t-49 -61.5t-74.5 -38t-94 -14v-45q14 -1 29 -5t27 -12.5t20 -21.5
t8 -33q0 -35 -26 -59t-72 -24q-36 0 -75 12l6 36q12 -3 24 -5.5t29 -2.5q33 0 45 16.5t12 31.5t-13.5 30t-48.5 17v66z" />
    <glyph glyph-name="scedilla" unicode="&#x15f;" horiz-adv-x="480" 
d="M224 -10q-51 2 -98 7.5t-86 15.5l16 72q60 -15 111.5 -18.5t77.5 -3.5q34 0 55 9t32 21t14.5 24.5t3.5 19.5q0 12 -5 23t-18 20t-35 17t-55 14q-40 7 -74 18.5t-59 29.5t-39.5 45t-14.5 66q0 72 48 106t137 34q59 0 107 -6t93 -17l-16 -72q-60 15 -106.5 18.5t-72.5 3.5
q-34 0 -53.5 -8t-30 -18.5t-13.5 -21.5t-3 -17q0 -12 4 -22.5t15.5 -20t32.5 -18t55 -15.5q39 -8 74 -18.5t61.5 -28t42 -43t15.5 -63.5q0 -75 -46.5 -113t-133.5 -40v-45q14 -1 28.5 -5t26.5 -12.5t20 -21.5t8 -33q0 -35 -25.5 -59t-71.5 -24q-36 0 -75 12l6 36
q12 -3 24 -5.5t28 -2.5q33 0 45 16.5t12 31.5t-13 30t-49 17v65z" />
    <glyph glyph-name="Scaron" unicode="&#x160;" 
d="M375 870h60l-106 -140h-59l-105 140h60l75 -69zM300 75q37 0 64.5 9t45.5 24t26.5 34.5t8.5 40.5q0 31 -16.5 51t-41.5 33.5t-55 21.5t-57 16q-42 11 -80 28t-67 42t-46 58.5t-17 76.5q0 48 18.5 82.5t50.5 56t74.5 31.5t91.5 10q57 0 111.5 -8t118.5 -27l-21 -80
q-39 9 -69 15t-54 9.5t-44.5 4.5t-41.5 1q-38 0 -63.5 -8t-41.5 -21.5t-23 -31t-7 -37.5q0 -29 17 -49t42.5 -34t56.5 -23t59 -16q42 -9 79 -24t65 -38.5t44.5 -56t16.5 -76.5q0 -51 -18.5 -88.5t-51.5 -62t-78 -37t-97 -12.5q-57 0 -119 8t-126 27l16 80
q78 -19 132.5 -24.5t96.5 -5.5z" />
    <glyph glyph-name="scaron" unicode="&#x161;" horiz-adv-x="480" 
d="M245 63q34 0 55 9t32 21t14.5 24.5t3.5 19.5q0 12 -5 23t-18 20t-35 17t-55 14q-40 7 -74 18.5t-59 29.5t-39.5 45t-14.5 66q0 72 48 106t137 34q59 0 107 -6t93 -17l-16 -72q-60 15 -106.5 18.5t-72.5 3.5q-34 0 -53.5 -8t-30 -18.5t-13.5 -21.5t-3 -17q0 -12 4 -22.5
t15.5 -20t32.5 -18t55 -15.5q39 -8 74 -18.5t61.5 -28t42 -43t15.5 -63.5q0 -76 -48 -114.5t-137 -38.5q-59 0 -114.5 6t-100.5 17l16 72q60 -15 111.5 -18.5t77.5 -3.5zM324 700h60l-106 -140h-59l-105 140h60l75 -69z" />
    <glyph glyph-name="Tcommaaccent" unicode="&#x162;" horiz-adv-x="560" 
d="M250 -250q5 26 10 52.5t10 52.5h-35v105h90v-105l-45 -105h-30zM328 595v-595h-96v595h-187v85h470v-85h-187z" />
    <glyph glyph-name="tcommaaccent" unicode="&#x163;" horiz-adv-x="375" 
d="M95 435h-75v59l75 6l11 140h79v-140h140v-65h-140v-275q0 -43 18 -70.5t67 -27.5q11 0 23 1.5l28 3.5l9 -69q-20 -2 -42 -5t-42 -3q-74 0 -112.5 34.5t-38.5 120.5v290zM153 -250q5 26 10 52.5t10 52.5h-35v105h90v-105l-45 -105h-30z" />
    <glyph glyph-name="Tcaron" unicode="&#x164;" horiz-adv-x="560" 
d="M357 870h60l-106 -140h-59l-105 140h60l75 -69zM328 595v-595h-96v595h-187v85h470v-85h-187z" />
    <glyph glyph-name="tcaron" unicode="&#x165;" horiz-adv-x="375" 
d="M95 435h-75v59l75 6l11 140h79v-140h140v-65h-140v-275q0 -43 18 -70.5t67 -27.5q11 0 23 1.5l28 3.5l9 -69q-20 -2 -42 -5t-42 -3q-74 0 -112.5 34.5t-38.5 120.5v290zM265 560q5 26 10 52.5t10 52.5h-35v105h90v-105l-45 -105h-30z" />
    <glyph glyph-name="Tbar" unicode="&#x166;" horiz-adv-x="560" 
d="M232 297v298h-187v85h470v-85h-188v-298h85v-55h-85v-242h-95v242h-85v55h85z" />
    <glyph glyph-name="tbar" unicode="&#x167;" horiz-adv-x="375" 
d="M35 245v55h60v135h-75v59l75 6l11 140h79v-140h140v-65h-140v-135h130v-55h-130v-84q0 -48 18 -73t67 -25q11 0 23 1t29 4l8 -70q-20 -4 -46 -6t-44 -2q-77 0 -111 35.5t-34 119.5v100h-60z" />
    <glyph glyph-name="Utilde" unicode="&#x168;" horiz-adv-x="640" 
d="M267 780q-9 0 -16.5 -1t-16.5 -5t-20.5 -11.5t-26.5 -20.5l-29 23q29 48 55 67.5t52 19.5q18 0 36 -6.5t35 -14.5t32 -14.5t28 -6.5q14 0 28.5 3t36.5 28l25 -28q-17 -34 -37.5 -53.5t-46.5 -19.5q-16 0 -33.5 6t-35 13.5t-34.5 14t-32 6.5zM322 70q52 0 83.5 16t48 41
t21.5 55t5 58v440h95v-440q0 -131 -67 -190.5t-188 -59.5q-122 0 -188.5 59.5t-66.5 190.5v440h95v-440q0 -36 8 -67t26.5 -54t49.5 -36t78 -13z" />
    <glyph glyph-name="utilde" unicode="&#x169;" horiz-adv-x="530" 
d="M385 500h90v-500h-90v70h-2q-36 -36 -80.5 -58t-97.5 -22q-75 0 -112.5 43t-37.5 122v345h90v-325q0 -48 23 -79t77 -31q21 0 41.5 6t38.5 14.5t33.5 18.5t26.5 18v378zM209 610q-9 0 -16.5 -1t-16.5 -5t-20.5 -11.5t-26.5 -20.5l-29 23q29 48 55 67.5t52 19.5
q18 0 36 -6.5t35 -14.5t32 -14.5t28 -6.5q14 0 28.5 3t36.5 28l25 -28q-17 -34 -37.5 -53.5t-46.5 -19.5q-16 0 -33.5 6t-35 13.5t-34.5 14t-32 6.5z" />
    <glyph glyph-name="Umacron" unicode="&#x16a;" horiz-adv-x="640" 
d="M475 820v-65h-310v65h310zM322 70q52 0 83.5 16t48 41t21.5 55t5 58v440h95v-440q0 -131 -67 -190.5t-188 -59.5q-122 0 -188.5 59.5t-66.5 190.5v440h95v-440q0 -36 8 -67t26.5 -54t49.5 -36t78 -13z" />
    <glyph glyph-name="umacron" unicode="&#x16b;" horiz-adv-x="530" 
d="M385 500h90v-500h-90v70h-2q-36 -36 -80.5 -58t-97.5 -22q-75 0 -112.5 43t-37.5 122v345h90v-325q0 -48 23 -79t77 -31q21 0 41.5 6t38.5 14.5t33.5 18.5t26.5 18v378zM420 650v-65h-310v65h310z" />
    <glyph glyph-name="Ubreve" unicode="&#x16c;" horiz-adv-x="640" 
d="M321 808q22 0 39.5 7t29.5 17.5t20 23.5t12 24h39q-9 -67 -45.5 -101t-94.5 -34q-57 0 -93.5 34t-45.5 101h39q4 -11 12 -24t20 -23.5t29 -17.5t39 -7zM322 70q52 0 83.5 16t48 41t21.5 55t5 58v440h95v-440q0 -131 -67 -190.5t-188 -59.5q-122 0 -188.5 59.5
t-66.5 190.5v440h95v-440q0 -36 8 -67t26.5 -54t49.5 -36t78 -13z" />
    <glyph glyph-name="ubreve" unicode="&#x16d;" horiz-adv-x="530" 
d="M385 500h90v-500h-90v70h-2q-36 -36 -80.5 -58t-97.5 -22q-75 0 -112.5 43t-37.5 122v345h90v-325q0 -48 23 -79t77 -31q21 0 41.5 6t38.5 14.5t33.5 18.5t26.5 18v378zM263 638q22 0 39.5 7t29.5 17.5t20 23.5t12 24h39q-9 -67 -45.5 -101t-94.5 -34q-57 0 -93.5 34
t-45.5 101h39q4 -11 12 -24t20 -23.5t29 -17.5t39 -7z" />
    <glyph glyph-name="Uring" unicode="&#x16e;" horiz-adv-x="640" 
d="M231 820q0 38 26.5 64.5t64.5 26.5t64.5 -26.5t26.5 -64.5t-26.5 -64.5t-64.5 -26.5t-64.5 26.5t-26.5 64.5zM267 820q0 -23 16 -39t39 -16t39 16t16 39t-16 39t-39 16t-39 -16t-16 -39zM322 70q52 0 83.5 16t48 41t21.5 55t5 58v440h95v-440q0 -131 -67 -190.5
t-188 -59.5q-122 0 -188.5 59.5t-66.5 190.5v440h95v-440q0 -36 8 -67t26.5 -54t49.5 -36t78 -13z" />
    <glyph glyph-name="uring" unicode="&#x16f;" horiz-adv-x="530" 
d="M385 500h90v-500h-90v70h-2q-36 -36 -80.5 -58t-97.5 -22q-75 0 -112.5 43t-37.5 122v345h90v-325q0 -48 23 -79t77 -31q21 0 41.5 6t38.5 14.5t33.5 18.5t26.5 18v378zM174 650q0 38 26.5 64.5t64.5 26.5t64.5 -26.5t26.5 -64.5t-26.5 -64.5t-64.5 -26.5t-64.5 26.5
t-26.5 64.5zM210 650q0 -23 16 -39t39 -16t39 16t16 39t-16 39t-39 16t-39 -16t-16 -39z" />
    <glyph glyph-name="Uhungarumlaut" unicode="&#x170;" horiz-adv-x="640" 
d="M261 730h-60l50 140h87zM431 730h-60l50 140h87zM322 70q52 0 83.5 16t48 41t21.5 55t5 58v440h95v-440q0 -131 -67 -190.5t-188 -59.5q-122 0 -188.5 59.5t-66.5 190.5v440h95v-440q0 -36 8 -67t26.5 -54t49.5 -36t78 -13z" />
    <glyph glyph-name="uhungarumlaut" unicode="&#x171;" horiz-adv-x="530" 
d="M385 500h90v-500h-90v70h-2q-36 -36 -80.5 -58t-97.5 -22q-75 0 -112.5 43t-37.5 122v345h90v-325q0 -48 23 -79t77 -31q21 0 41.5 6t38.5 14.5t33.5 18.5t26.5 18v378zM210 560h-60l50 140h87zM380 560h-60l50 140h87z" />
    <glyph glyph-name="Uogonek" unicode="&#x172;" horiz-adv-x="640" 
d="M575 680v-440q0 -127 -61 -186t-176 -63q-26 -23 -42 -50t-16 -51q0 -26 14.5 -40t42.5 -14q20 0 33 6t23 11q2 -6 2.5 -17t2.5 -17q-17 -14 -41.5 -21.5t-48.5 -7.5q-37 0 -62 24t-25 63q0 31 19 60t52 55q-111 6 -169 65t-58 183v440h95v-440q0 -36 8 -67t26.5 -54
t49.5 -36t78 -13q52 0 83.5 16t48 41t21.5 55t5 58v440h95z" />
    <glyph glyph-name="uogonek" unicode="&#x173;" horiz-adv-x="530" 
d="M502 -181q-17 -14 -41.5 -21.5t-48.5 -7.5q-18 0 -34.5 6t-28.5 17t-19.5 26t-7.5 33q0 36 24 69t62 59h-23v70h-2q-36 -36 -80.5 -58t-97.5 -22q-75 0 -112.5 43t-37.5 122v345h90v-325q0 -48 23 -79t77 -31q21 0 41.5 6t38.5 14.5t33.5 18.5t26.5 18v378h90v-500h-21
q-30 -23 -50 -53.5t-20 -56.5t15 -40t43 -14q20 0 32.5 6t23.5 11z" />
    <glyph glyph-name="Wcircumflex" unicode="&#x174;" horiz-adv-x="940" 
d="M469 799l-75 -69h-60l105 140h59l106 -140h-60zM469 527l-134 -532h-123l-177 685h106l137 -562h1l137 562h113l139 -562h1l135 562h101l-177 -685h-123l-134 532h-2z" />
    <glyph glyph-name="wcircumflex" unicode="&#x175;" horiz-adv-x="790" 
d="M393 361l-100 -366h-101l-152 505h100l111 -404h2l100 404h88l106 -404h2l106 404h95l-150 -505h-100l-105 366h-2zM394 629l-75 -69h-60l105 140h59l106 -140h-60z" />
    <glyph glyph-name="Ycircumflex" unicode="&#x176;" horiz-adv-x="620" 
d="M313 799l-75 -69h-60l105 140h59l106 -140h-60zM314 338l167 342h104l-227 -440v-240h-96v240l-227 440h109l168 -342h2z" />
    <glyph glyph-name="ycircumflex" unicode="&#x177;" horiz-adv-x="560" 
d="M40 500h101l145 -409h2l136 409h96l-188 -530q-34 -98 -81.5 -139t-120.5 -41q-18 0 -38.5 2t-36.5 6l8 75q13 -3 25 -4t22 -1q25 0 44.5 11t34.5 28.5t26 39.5t19 44zM285 629l-75 -69h-60l105 140h59l106 -140h-60z" />
    <glyph glyph-name="Ydieresis" unicode="&#x178;" horiz-adv-x="620" 
d="M232 750h-80v120h80v-120zM482 750h-80v120h80v-120zM314 338l167 342h104l-227 -440v-240h-96v240l-227 440h109l168 -342h2z" />
    <glyph glyph-name="Zacute" unicode="&#x179;" horiz-adv-x="560" 
d="M308 730h-60l50 140h87zM173 85h347v-85h-480v70l341 523v2h-321v85h450v-70l-337 -523v-2z" />
    <glyph glyph-name="zacute" unicode="&#x17a;" horiz-adv-x="470" 
d="M433 435l-288 -363v-2h298v-70h-416v65l290 363v2h-275v70h391v-65zM336 700l-77 -140h-60l50 140h87v0z" />
    <glyph glyph-name="Zdotaccent" unicode="&#x17b;" horiz-adv-x="560" 
d="M228 870h80v-120h-80v120zM173 85h347v-85h-480v70l341 523v2h-321v85h450v-70l-337 -523v-2z" />
    <glyph glyph-name="zdotaccent" unicode="&#x17c;" horiz-adv-x="470" 
d="M433 435l-288 -363v-2h298v-70h-416v65l290 363v2h-275v70h391v-65zM192 700h80v-120h-80v120z" />
    <glyph glyph-name="Zcaron" unicode="&#x17d;" horiz-adv-x="560" 
d="M364 870h60l-106 -140h-59l-105 140h60l75 -69zM173 85h347v-85h-480v70l341 523v2h-321v85h450v-70l-337 -523v-2z" />
    <glyph glyph-name="zcaron" unicode="&#x17e;" horiz-adv-x="470" 
d="M433 435l-288 -363v-2h298v-70h-416v65l290 363v2h-275v70h391v-65zM327 700h60l-106 -140h-59l-105 140h60l75 -69z" />
    <glyph glyph-name="longs" unicode="&#x17f;" horiz-adv-x="300" 
d="M95 545q0 84 34 119.5t111 35.5q18 0 39 -2t41 -6l-8 -70q-17 3 -29 4t-23 1q-45 0 -60 -25t-15 -73v-569q0 -85 -31.5 -127.5t-113.5 -42.5q-37 0 -80 8l9 70q16 -3 28 -4t23 -1q45 0 60 25t15 73v584z" />
    <glyph glyph-name="florin" unicode="&#x192;" horiz-adv-x="460" 
d="M170 435h-75v59l75 6v62q0 35 7 61t23.5 43t44.5 25.5t70 8.5q20 0 39.5 -2.5t40.5 -5.5l-9 -72q-25 3 -40.5 4t-32.5 1q-30 0 -41.5 -17.5t-11.5 -52.5v-55h120v-65h-120v-507q0 -71 -31.5 -104.5t-113.5 -33.5q-37 0 -80 8l9 70q16 -3 28 -4t23 -1q43 0 59 15.5
t16 57.5v499z" />
    <glyph glyph-name="AEacute" unicode="&#x1fc;" horiz-adv-x="926" 
d="M537 730h-60l50 140h87zM35 0l347 680h484v-85h-340v-200h295v-85h-295v-225h345v-85h-440v242h-175l-125 -242h-96zM429 594l-140 -277h142v277h-2z" />
    <glyph glyph-name="aeacute" unicode="&#x1fd;" horiz-adv-x="845" 
d="M459 560h-60l50 140h87zM457 235q1 -38 10.5 -69t29 -53.5t50.5 -35t75 -12.5q37 0 74.5 3t81.5 17l12 -73q-48 -13 -89.5 -17.5t-90.5 -4.5q-80 0 -131 24t-79 68q-26 -29 -52 -46.5t-51 -28t-49 -14t-48 -3.5q-75 0 -117.5 41t-42.5 107q0 42 16.5 71t45 47t66.5 26
t82 8h110v50q0 50 -26.5 72.5t-88.5 22.5q-29 0 -66 -4t-93 -15l-14 73q51 10 101 15.5t92 5.5q58 0 98.5 -13t62.5 -47q29 29 73 44.5t106 15.5q51 0 86.5 -11.5t59 -32t36 -47.5t17 -57.5t2.5 -63t-7 -63.5h-342zM235 60q38 0 77.5 15.5t68.5 43.5q-19 51 -21 116h-105
q-69 0 -97 -23.5t-28 -66.5q0 -39 28 -62t77 -23zM600 440q-38 0 -64 -11.5t-42.5 -31t-25 -47t-11.5 -58.5h258q4 27 1.5 53.5t-15.5 47.5t-37 34t-64 13z" />
    <glyph glyph-name="Oslashacute" unicode="&#x1fe;" horiz-adv-x="690" 
d="M375 730h-60l50 140h87zM345 -10q-71 0 -120 19t-82 53l-73 -93l-30 24l77 96q-35 49 -48.5 115t-13.5 141q0 71 12.5 134t45 110t89 74t143.5 27q68 0 116 -17.5t80 -47.5l79 99l30 -24l-81 -101q38 -48 52 -113t14 -141q0 -72 -12.5 -136.5t-45 -113t-89 -77
t-143.5 -28.5zM535 345q0 48 -6 92t-26 79l-302 -382q21 -30 55.5 -47t88.5 -17q61 0 98 22.5t57.5 60.5t27.5 88t7 104zM345 610q-61 0 -98 -21t-57.5 -57t-27.5 -84.5t-7 -102.5q0 -47 5.5 -91.5t23.5 -79.5l302 380q-22 26 -56 41t-85 15z" />
    <glyph glyph-name="oslashacute" unicode="&#x1ff;" horiz-adv-x="550" 
d="M309 560h-60l50 140h87zM275 -10q-51 0 -89 13.5t-65 37.5l-62 -72l-29 24l63 73q-26 35 -37 81t-11 103q0 58 12.5 106t39.5 82t71 53t107 19q51 0 89 -13.5t64 -38.5l62 73l30 -23l-64 -75q26 -34 37.5 -80.5t11.5 -102.5q0 -58 -12.5 -106t-40 -82t-71 -53t-106.5 -19
zM275 65q39 0 65 14t41.5 39t22 57.5t6.5 70.5q0 30 -5 57.5t-16 50.5l-212 -248q16 -20 39.5 -30.5t58.5 -10.5zM275 435q-38 0 -63 -13t-41 -35.5t-23 -53t-8 -65.5q0 -29 3.5 -63t16.5 -60l212 248q-16 20 -39.5 31t-57.5 11z" />
    <glyph glyph-name="Scommaaccent" unicode="&#x218;" 
d="M256 -250q5 26 10 52.5t10 52.5h-35v105h90v-105l-45 -105h-30zM300 75q37 0 64.5 9t45.5 24t26.5 34.5t8.5 40.5q0 31 -16.5 51t-41.5 33.5t-55 21.5t-57 16q-42 11 -80 28t-67 42t-46 58.5t-17 76.5q0 48 18.5 82.5t50.5 56t74.5 31.5t91.5 10q57 0 111.5 -8t118.5 -27
l-21 -80q-39 9 -69 15t-54 9.5t-44.5 4.5t-41.5 1q-38 0 -63.5 -8t-41.5 -21.5t-23 -31t-7 -37.5q0 -29 17 -49t42.5 -34t56.5 -23t59 -16q42 -9 79 -24t65 -38.5t44.5 -56t16.5 -76.5q0 -51 -18.5 -88.5t-51.5 -62t-78 -37t-97 -12.5q-57 0 -119 8t-126 27l16 80
q78 -19 132.5 -24.5t96.5 -5.5z" />
    <glyph glyph-name="scommaaccent" unicode="&#x219;" horiz-adv-x="480" 
d="M245 63q34 0 55 9t32 21t14.5 24.5t3.5 19.5q0 12 -5 23t-18 20t-35 17t-55 14q-40 7 -74 18.5t-59 29.5t-39.5 45t-14.5 66q0 72 48 106t137 34q59 0 107 -6t93 -17l-16 -72q-60 15 -106.5 18.5t-72.5 3.5q-34 0 -53.5 -8t-30 -18.5t-13.5 -21.5t-3 -17q0 -12 4 -22.5
t15.5 -20t32.5 -18t55 -15.5q39 -8 74 -18.5t61.5 -28t42 -43t15.5 -63.5q0 -76 -48 -114.5t-137 -38.5q-59 0 -114.5 6t-100.5 17l16 72q60 -15 111.5 -18.5t77.5 -3.5zM199 -250q5 26 10 52.5t10 52.5h-35v105h90v-105l-45 -105h-30z" />
    <glyph glyph-name="uni021A" unicode="&#x21a;" horiz-adv-x="560" 
d="M249 -247q5 26 10 52.5t10 52.5h-35v105h90v-105l-45 -105h-30zM328 595v-595h-96v595h-187v85h470v-85h-187z" />
    <glyph glyph-name="uni021B" unicode="&#x21b;" horiz-adv-x="375" 
d="M95 435h-75v59l75 6l11 140h79v-140h140v-65h-140v-275q0 -43 18 -70.5t67 -27.5q11 0 23 1.5l28 3.5l9 -69q-20 -2 -42 -5t-42 -3q-74 0 -112.5 34.5t-38.5 120.5v290zM174 -252q5 26 10 52.5t10 52.5h-35v105h90v-105l-45 -105h-30z" />
    <glyph glyph-name="circumflex" unicode="&#x2c6;" horiz-adv-x="420" 
d="M210 629l-75 -69h-60l105 140h59l106 -140h-60z" />
    <glyph glyph-name="caron" unicode="&#x2c7;" horiz-adv-x="420" 
d="M285 700h60l-106 -140h-59l-105 140h60l75 -69z" />
    <glyph glyph-name="uni02C9" unicode="&#x2c9;" horiz-adv-x="440" 
d="M375 650v-65h-310v65h310z" />
    <glyph glyph-name="breve" unicode="&#x2d8;" horiz-adv-x="408" 
d="M204 638q22 0 39.5 7t29.5 17.5t20 23.5t12 24h39q-9 -67 -45.5 -101t-94.5 -34q-57 0 -93.5 34t-45.5 101h39q4 -11 12 -24t20 -23.5t29 -17.5t39 -7z" />
    <glyph glyph-name="dotaccent" unicode="&#x2d9;" horiz-adv-x="250" 
d="M75 700h80v-120h-80v120z" />
    <glyph glyph-name="ring" unicode="&#x2da;" horiz-adv-x="300" 
d="M59 650q0 38 26.5 64.5t64.5 26.5t64.5 -26.5t26.5 -64.5t-26.5 -64.5t-64.5 -26.5t-64.5 26.5t-26.5 64.5zM95 650q0 -23 16 -39t39 -16t39 16t16 39t-16 39t-39 16t-39 -16t-16 -39z" />
    <glyph glyph-name="ogonek" unicode="&#x2db;" horiz-adv-x="314" 
d="M252 -181q-17 -14 -41.5 -21.5t-48.5 -7.5q-18 0 -34.5 6t-28.5 17t-19.5 26t-7.5 33q0 36 24 69t62 59h46q-30 -23 -50 -53.5t-20 -56.5t15 -40t43 -14q20 0 32.5 6t23.5 11z" />
    <glyph glyph-name="tilde" unicode="&#x2dc;" horiz-adv-x="450" 
d="M171 610q-9 0 -16.5 -1t-16.5 -5t-20.5 -11.5t-26.5 -20.5l-29 23q29 48 55 67.5t52 19.5q18 0 36 -6.5t35 -14.5t32 -14.5t28 -6.5q14 0 28.5 3t36.5 28l25 -28q-17 -34 -37.5 -53.5t-46.5 -19.5q-16 0 -33.5 6t-35 13.5t-34.5 14t-32 6.5z" />
    <glyph glyph-name="hungarumlaut" unicode="&#x2dd;" horiz-adv-x="460" 
d="M128 560h-60l50 140h87zM298 560h-60l50 140h87z" />
    <glyph glyph-name="uni037E" unicode="&#x37e;" horiz-adv-x="200" 
d="M55 315h90v-130h-90v130z" />
    <glyph glyph-name="tonos" unicode="&#x384;" horiz-adv-x="290" 
d="M205 680l-77 -140h-60l50 140h87v0z" />
    <glyph glyph-name="dieresistonos" unicode="&#x385;" horiz-adv-x="610" 
d="M395 750l-97 -170h-50l65 170h82zM155 700v-120h-80v120h80zM535 700v-120h-80v120h80z" />
    <glyph glyph-name="anoteleia" unicode="&#x387;" horiz-adv-x="480" 
d="M155 580h-80v120h80v-120zM405 580h-80v120h80v-120z" />
    <glyph glyph-name="uni03BC" unicode="&#x3bc;" horiz-adv-x="530" 
d="M55 500h90v-325q0 -48 23 -79t77 -31q21 0 41.5 6t38.5 14.5t33.5 18.5t26.5 18v378h90v-500h-90v70h-2q-36 -36 -80.5 -58t-97.5 -22q-32 0 -60 10v-72q0 -71 -31.5 -104.5t-113.5 -33.5q-37 0 -80 8l9 70q16 -3 28 -4t23 -1q43 0 59 15.5t16 57.5v564z" />
    <glyph glyph-name="pi" unicode="&#x3c0;" horiz-adv-x="530" 
d="M55 0v500h420v-500h-90v420h-240v-420h-90z" />
    <glyph glyph-name="uni03C2" unicode="&#x3c2;" horiz-adv-x="513" 
d="M100 249q0 34 12.5 63t35.5 51l-78 90l8 8l79 -90q20 17 45.5 26.5t54.5 9.5q28 0 53.5 -9.5t45.5 -26.5l78 90l9 -8l-78 -89q23 -22 36.5 -51.5t13.5 -63.5t-13 -63.5t-36 -50.5l76 -86l-9 -9l-77 87q-20 -17 -45.5 -26t-53.5 -9q-29 0 -54.5 9t-45.5 26l-76 -87l-9 9
l76 86q-23 22 -35.5 51t-12.5 63zM112 249q0 -30 11.5 -56t31.5 -46t46 -31.5t56 -11.5t56.5 11.5t46.5 31.5t31.5 46t11.5 56t-11.5 56.5t-31.5 46.5t-46.5 31.5t-56.5 11.5t-56 -11.5t-46 -31.5t-31.5 -46.5t-11.5 -56.5z" />
    <glyph glyph-name="sigma" unicode="&#x3c3;" horiz-adv-x="513" 
d="M100 249q0 34 12.5 63t35.5 51l-78 90l8 8l79 -90q20 17 45.5 26.5t54.5 9.5q28 0 53.5 -9.5t45.5 -26.5l78 90l9 -8l-78 -89q23 -22 36.5 -51.5t13.5 -63.5t-13 -63.5t-36 -50.5l76 -86l-9 -9l-77 87q-20 -17 -45.5 -26t-53.5 -9q-29 0 -54.5 9t-45.5 26l-76 -87l-9 9
l76 86q-23 22 -35.5 51t-12.5 63zM112 249q0 -30 11.5 -56t31.5 -46t46 -31.5t56 -11.5t56.5 11.5t46.5 31.5t31.5 46t11.5 56t-11.5 56.5t-31.5 46.5t-46.5 31.5t-56.5 11.5t-56 -11.5t-46 -31.5t-31.5 -46.5t-11.5 -56.5z" />
    <glyph glyph-name="Wgrave" unicode="&#x1e80;" horiz-adv-x="940" 
d="M451 730l-78 140h88l50 -140h-60zM469 527l-134 -532h-123l-177 685h106l137 -562h1l137 562h113l139 -562h1l135 562h101l-177 -685h-123l-134 532h-2z" />
    <glyph glyph-name="wgrave" unicode="&#x1e81;" horiz-adv-x="790" 
d="M393 361l-100 -366h-101l-152 505h100l111 -404h2l100 404h88l106 -404h2l106 404h95l-150 -505h-100l-105 366h-2zM356 560l-78 140h88l50 -140h-60v0z" />
    <glyph glyph-name="Wacute" unicode="&#x1e82;" horiz-adv-x="940" 
d="M508 730h-60l50 140h87zM469 527l-134 -532h-123l-177 685h106l137 -562h1l137 562h113l139 -562h1l135 562h101l-177 -685h-123l-134 532h-2z" />
    <glyph glyph-name="wacute" unicode="&#x1e83;" horiz-adv-x="790" 
d="M393 361l-100 -366h-101l-152 505h100l111 -404h2l100 404h88l106 -404h2l106 404h95l-150 -505h-100l-105 366h-2zM509 699l-77 -140h-60l50 140h87v0z" />
    <glyph glyph-name="Wdieresis" unicode="&#x1e84;" horiz-adv-x="940" 
d="M384 750h-80v120h80v-120zM634 750h-80v120h80v-120zM469 527l-134 -532h-123l-177 685h106l137 -562h1l137 562h113l139 -562h1l135 562h101l-177 -685h-123l-134 532h-2z" />
    <glyph glyph-name="wdieresis" unicode="&#x1e85;" horiz-adv-x="790" 
d="M393 361l-100 -366h-101l-152 505h100l111 -404h2l100 404h88l106 -404h2l106 404h95l-150 -505h-100l-105 366h-2zM309 580h-80v120h80v-120zM559 580h-80v120h80v-120z" />
    <glyph glyph-name="Ygrave" unicode="&#x1ef2;" horiz-adv-x="620" 
d="M273 730l-78 140h88l50 -140h-60zM314 338l167 342h104l-227 -440v-240h-96v240l-227 440h109l168 -342h2z" />
    <glyph glyph-name="ygrave" unicode="&#x1ef3;" horiz-adv-x="560" 
d="M40 500h101l145 -409h2l136 409h96l-188 -530q-34 -98 -81.5 -139t-120.5 -41q-18 0 -38.5 2t-36.5 6l8 75q13 -3 25 -4t22 -1q25 0 44.5 11t34.5 28.5t26 39.5t19 44zM244 560l-78 140h88l50 -140h-60v0z" />
    <glyph glyph-name="figuredash" unicode="&#x2012;" 
d="M545 303v-76h-490v76h490z" />
    <glyph glyph-name="endash" unicode="&#x2013;" 
d="M545 303v-76h-490v76h490z" />
    <glyph glyph-name="emdash" unicode="&#x2014;" horiz-adv-x="700" 
d="M645 303v-76h-590v76h590z" />
    <glyph glyph-name="quoteleft" unicode="&#x2018;" horiz-adv-x="200" 
d="M130 680l-20 -130h35v-130h-90v130l45 130h30z" />
    <glyph glyph-name="quoteright" unicode="&#x2019;" horiz-adv-x="200" 
d="M70 420l20 130h-35v130h90v-130l-45 -130h-30z" />
    <glyph glyph-name="quotesinglbase" unicode="&#x201a;" horiz-adv-x="200" 
d="M70 -130l20 130h-35v130h90v-130l-45 -130h-30z" />
    <glyph glyph-name="quotedblleft" unicode="&#x201c;" horiz-adv-x="420" 
d="M350 680l-20 -130h35v-130h-90v130l45 130h30zM130 680l-20 -130h35v-130h-90v130l45 130h30z" />
    <glyph glyph-name="quotedblright" unicode="&#x201d;" horiz-adv-x="420" 
d="M70 420l20 130h-35v130h90v-130l-45 -130h-30zM290 420l20 130h-35v130h90v-130l-45 -130h-30z" />
    <glyph glyph-name="quotedblbase" unicode="&#x201e;" horiz-adv-x="420" 
d="M70 -130l20 130h-35v130h90v-130l-45 -130h-30zM290 -130l20 130h-35v130h90v-130l-45 -130h-30z" />
    <glyph glyph-name="dagger" unicode="&#x2020;" horiz-adv-x="580" 
d="M525 415l-193 5l5 -420h-95l5 420l-192 -5v85l192 -5l-5 205h95l-5 -205l193 5v-85v0z" />
    <glyph glyph-name="daggerdbl" unicode="&#x2021;" horiz-adv-x="580" 
d="M525 275v-85l-192 5l5 -195h-96l5 195l-192 -5v85l192 -5v160l-192 -5v85l192 -5l-5 195h96l-5 -195l192 5v-85l-192 5v-160z" />
    <glyph glyph-name="bullet" unicode="&#x2022;" horiz-adv-x="230" 
d="M55 315h90v-130h-90v130z" />
    <glyph glyph-name="onedotenleader" unicode="&#x2024;" horiz-adv-x="200" 
d="M55 130h90v-130h-90v130z" />
    <glyph glyph-name="twodotenleader" unicode="&#x2025;" horiz-adv-x="400" 
d="M55 130h90v-130h-90v130zM255 130h90v-130h-90v130z" />
    <glyph glyph-name="ellipsis" unicode="&#x2026;" horiz-adv-x="640" 
d="M75 130h90v-130h-90v130zM275 130h90v-130h-90v130zM475 130h90v-130h-90v130z" />
    <glyph glyph-name="perthousand" unicode="&#x2030;" horiz-adv-x="1110" 
d="M225 0h-60l370 680h60zM181 629q-39 0 -59 -24t-20 -69t20 -69.5t59 -24.5t59 24.5t20 69.5t-20 69t-59 24zM181 396q-67 0 -101.5 37t-34.5 103q0 65 34.5 102t101.5 37t101.5 -37t34.5 -102q0 -66 -34.5 -103t-101.5 -37zM579 238q-39 0 -59 -24.5t-20 -69.5t20 -69
t59 -24t59 24t20 69t-20 69.5t-59 24.5zM579 5q-67 0 -101.5 37t-34.5 102q0 66 34.5 103t101.5 37t101.5 -37t34.5 -103q0 -65 -34.5 -102t-101.5 -37zM929 238q-39 0 -59 -24.5t-20 -69.5t20 -69t59 -24t59 24t20 69t-20 69.5t-59 24.5zM929 5q-67 0 -101.5 37t-34.5 102
q0 66 34.5 103t101.5 37t101.5 -37t34.5 -103q0 -65 -34.5 -102t-101.5 -37z" />
    <glyph glyph-name="guilsinglleft" unicode="&#x2039;" horiz-adv-x="380" 
d="M325 450v-95l-175 -105l175 -105v-95l-270 172v56z" />
    <glyph glyph-name="guilsinglright" unicode="&#x203a;" horiz-adv-x="380" 
d="M325 278v-56l-270 -172v95l175 105l-175 105v95z" />
    <glyph glyph-name="exclamdbl" unicode="&#x203c;" horiz-adv-x="400" 
d="M55 130h90v-130h-90v130zM55 700h90l-5 -480h-80zM255 130h90v-130h-90v130zM255 700h90l-5 -480h-80z" />
    <glyph glyph-name="fraction" unicode="&#x2044;" horiz-adv-x="540" 
d="M125 0h-80l370 680h80z" />
    <glyph glyph-name="zerosuperior" unicode="&#x2070;" horiz-adv-x="331" 
d="M166 841q-21 0 -35 -11t-22 -29t-11 -42t-3 -51t3 -52t11 -44.5t22 -31t35 -11.5t35 11.5t22 31t11 44.5t3 52t-3 51t-11 42t-22 29t-35 11zM166 530q-35 0 -58 14t-37 38.5t-20 57t-6 68.5t6 67t20 54.5t37 37t58 13.5q34 0 57.5 -13.5t37.5 -37t20 -54.5t6 -67
t-6 -68.5t-20 -57t-37.5 -38.5t-57.5 -14z" />
    <glyph glyph-name="foursuperior" unicode="&#x2074;" horiz-adv-x="341" 
d="M202 666v152h-1q-23 -44 -49.5 -80t-57.5 -72h108zM249 880v-214h47v-40h-47v-86h-47v86h-157v40q42 45 80.5 99.5t64.5 114.5h59z" />
    <glyph glyph-name="fivesuperior" unicode="&#x2075;" horiz-adv-x="321" 
d="M106 722q13 14 31.5 23t39.5 9q46 0 73 -28t27 -80q0 -54 -33.5 -85t-88.5 -31q-32 0 -58 8.5t-52 22.5l14 36q26 -13 47 -20t46 -8q31 0 53 19.5t22 54.5q0 12 -3.5 24.5t-11 22t-20 16t-31.5 6.5q-39 0 -64 -32l-35 3l8 192h187v-42h-146l-6 -110z" />
    <glyph glyph-name="sixsuperior" unicode="&#x2076;" horiz-adv-x="321" 
d="M93 719q14 20 34.5 32t44.5 12q49 0 76.5 -30.5t27.5 -87.5q0 -54 -31.5 -84.5t-79.5 -30.5q-34 0 -57 13t-37 34.5t-20 49.5t-6 58q0 56 11.5 93.5t31 60t45.5 32t55 9.5q24 0 41 -4t37 -12l-6 -36q-21 8 -36.5 10.5t-32.5 2.5q-26 0 -44.5 -11.5t-30.5 -29t-18 -39
t-6 -41.5zM96 666q0 -19 3 -36.5t10.5 -31t20 -21.5t32.5 -8q26 0 45.5 19t19.5 57q0 12 -2.5 25.5t-10 25t-20.5 18.5t-34 7q-20 0 -36 -11t-28 -27v-17z" />
    <glyph glyph-name="sevensuperior" unicode="&#x2077;" horiz-adv-x="316" 
d="M220 838h-175v42h227v-34q-39 -66 -75.5 -140.5t-51.5 -165.5h-50q6 35 18.5 75t29.5 79.5t37 76t40 66.5v1z" />
    <glyph glyph-name="eightsuperior" unicode="&#x2078;" horiz-adv-x="331" 
d="M172 732q23 8 40 22t17 37q0 15 -6 25.5t-15.5 16.5t-21 9t-22.5 3q-10 0 -21 -3t-20 -9t-15 -16t-6 -24q0 -25 21 -39t49 -22zM159 689q-25 -8 -45 -23.5t-20 -41.5q0 -22 16 -40t57 -18q40 0 55.5 16.5t15.5 38.5q0 15 -7.5 25.5t-19 18.5t-25.5 13.5t-27 10.5z
M164 530q-52 0 -85.5 22.5t-33.5 67.5q0 33 22.5 54t55.5 33v1q-30 13 -49 32.5t-19 51.5q0 44 32.5 66t79.5 22q22 0 42 -5.5t35 -16.5t24 -26.5t9 -36.5q0 -31 -18.5 -48.5t-50.5 -31.5v-1q35 -16 57 -36.5t22 -53.5q0 -47 -34.5 -70.5t-88.5 -23.5z" />
    <glyph glyph-name="ninesuperior" unicode="&#x2079;" horiz-adv-x="321" 
d="M228 690q-14 -19 -34.5 -30.5t-44.5 -11.5q-49 0 -76.5 30t-27.5 87q0 54 31.5 84.5t80.5 30.5q34 0 57 -13t36.5 -35t19.5 -49.5t6 -57.5q0 -56 -11.5 -93.5t-31 -60t-45 -32t-54.5 -9.5q-25 0 -41.5 3.5t-36.5 11.5l6 37q20 -8 35.5 -10.5t32.5 -2.5q26 0 44.5 11.5
t30.5 29t18 39t6 41.5h-1zM225 727q1 5 1 10v10q0 38 -14 66t-52 28q-26 0 -45.5 -19.5t-19.5 -56.5q0 -13 2.5 -26.5t10 -25t20.5 -18.5t33 -7t36.5 11t27.5 28z" />
    <glyph glyph-name="parenleftsuperior" unicode="&#x207d;" horiz-adv-x="208" 
d="M163 935q-37 -63 -54 -121t-17 -119q0 -60 17 -118t54 -122h-32q-42 53 -64 115.5t-22 124.5q0 63 22 125t64 115h32z" />
    <glyph glyph-name="parenrightsuperior" unicode="&#x207e;" horiz-adv-x="208" 
d="M77 935q42 -53 64 -115t22 -125q0 -62 -22 -124.5t-64 -115.5h-32q38 64 54.5 122t16.5 118q0 61 -16.5 119t-54.5 121h32z" />
    <glyph glyph-name="nsuperior" unicode="&#x207f;" horiz-adv-x="300" 
d="M90 430h-45v250h45v-35h1q18 18 40.5 29t48.5 11q38 0 56.5 -21.5t18.5 -60.5v-173h-45v163q0 23 -11 39t-39 16q-22 0 -40.5 -10.5t-29.5 -18.5v-189z" />
    <glyph glyph-name="zeroinferior" unicode="&#x2080;" horiz-adv-x="331" 
d="M166 101q-21 0 -35 -11t-22 -29t-11 -42t-3 -51t3 -52t11 -44.5t22 -31t35 -11.5t35 11.5t22 31t11 44.5t3 52t-3 51t-11 42t-22 29t-35 11zM166 -210q-35 0 -58 14t-37 38.5t-20 57t-6 68.5t6 67t20 54.5t37 37t58 13.5q34 0 57.5 -13.5t37.5 -37t20 -54.5t6 -67
t-6 -68.5t-20 -57t-37.5 -38.5t-57.5 -14z" />
    <glyph glyph-name="oneinferior" unicode="&#x2081;" horiz-adv-x="301" 
d="M139 -161v250l-82 -42l-12 36q29 13 58.5 28.5t49.5 31.5h33v-304h70v-39h-187v39h70z" />
    <glyph glyph-name="twoinferior" unicode="&#x2082;" horiz-adv-x="311" 
d="M143 102q-19 0 -38.5 -5.5t-45.5 -18.5l-14 37q26 14 52.5 22t58.5 8q54 0 80 -30t26 -72q0 -53 -38 -100.5t-112 -99.5v-1h155v-42h-222v46q53 35 86 63.5t51 51.5t24 40.5t6 31.5q0 23 -7.5 37t-18.5 21t-23 9t-20 2z" />
    <glyph glyph-name="threeinferior" unicode="&#x2083;" horiz-adv-x="321" 
d="M158 101q-26 0 -48 -8t-42 -19l-15 37q24 14 52.5 21.5t57.5 7.5q46 0 75 -23t29 -66q0 -31 -18 -51t-46 -29v-1q36 -8 55 -31t19 -53q0 -46 -30.5 -71t-89.5 -25q-30 0 -59 7t-53 22l14 37q22 -11 45.5 -19t51.5 -8q22 0 36 5.5t22 14t11 18t3 17.5q0 28 -18 44.5
t-62 16.5h-42v40h40q40 0 56.5 19t16.5 42q0 9 -3 18.5t-9.5 17.5t-18.5 13.5t-30 5.5z" />
    <glyph glyph-name="fourinferior" unicode="&#x2084;" horiz-adv-x="341" 
d="M202 -74v152h-1q-23 -44 -49.5 -80t-57.5 -72h108zM249 140v-214h47v-39h-47v-87h-47v87h-157v39q42 45 80.5 99.5t64.5 114.5h59z" />
    <glyph glyph-name="fiveinferior" unicode="&#x2085;" horiz-adv-x="321" 
d="M106 -18q13 14 31.5 23t39.5 9q46 0 73 -28t27 -80q0 -54 -33.5 -85t-88.5 -31q-32 0 -58 8.5t-52 22.5l14 36q26 -13 47 -20t46 -8q31 0 53 19.5t22 54.5q0 12 -3.5 24.5t-11 22t-20 16t-31.5 6.5q-39 0 -64 -32l-35 3l8 192h187v-42h-146l-6 -110z" />
    <glyph glyph-name="sixinferior" unicode="&#x2086;" horiz-adv-x="321" 
d="M93 -20q14 19 34.5 31t44.5 12q49 0 76.5 -30.5t27.5 -87.5q0 -54 -31.5 -84.5t-79.5 -30.5q-34 0 -57 13t-37 35t-20 49.5t-6 57.5q0 56 11.5 93.5t31 60t45.5 32t55 9.5q24 0 41 -4t37 -12l-6 -36q-21 8 -36.5 10.5t-32.5 2.5q-26 0 -44.5 -11.5t-30.5 -29t-18 -39
t-6 -41.5h1zM96 -74q0 -19 3 -36.5t10.5 -31t20 -21.5t32.5 -8q26 0 45.5 19.5t19.5 56.5q0 13 -2.5 26.5t-10 24.5t-20.5 18.5t-34 7.5q-20 0 -36 -11t-28 -28v-17z" />
    <glyph glyph-name="seveninferior" unicode="&#x2087;" horiz-adv-x="316" 
d="M220 98h-175v42h227v-34q-39 -66 -75.5 -140.5t-51.5 -165.5h-50q6 35 18.5 75t29.5 79.5t37 76t40 66.5v1z" />
    <glyph glyph-name="eightinferior" unicode="&#x2088;" horiz-adv-x="331" 
d="M172 -8q23 8 40 22t17 37q0 15 -6 25.5t-15.5 16.5t-21 9t-22.5 3q-10 0 -21 -3t-20 -9t-15 -16t-6 -24q0 -25 21 -39t49 -22zM159 -51q-25 -8 -45 -23.5t-20 -41.5q0 -22 16 -40t57 -18q40 0 55.5 16.5t15.5 38.5q0 15 -7.5 25.5t-19 18.5t-25.5 13.5t-27 10.5z
M164 -210q-52 0 -85.5 22.5t-33.5 67.5q0 33 22.5 54t55.5 33v1q-30 13 -49 32.5t-19 51.5q0 44 32.5 66t79.5 22q22 0 42 -5.5t35 -16.5t24 -26.5t9 -36.5q0 -31 -18.5 -48.5t-50.5 -31.5v-1q35 -16 57 -36.5t22 -53.5q0 -47 -34.5 -70.5t-88.5 -23.5z" />
    <glyph glyph-name="nineinferior" unicode="&#x2089;" horiz-adv-x="321" 
d="M228 -49q-14 -20 -34.5 -31.5t-44.5 -11.5q-49 0 -76.5 30t-27.5 87q0 54 31.5 84.5t80.5 30.5q34 0 57 -13t36.5 -35t19.5 -49.5t6 -57.5q0 -56 -11.5 -93.5t-31 -60t-45 -32t-54.5 -9.5q-25 0 -41.5 4t-36.5 12l6 36q20 -7 35.5 -10t32.5 -3q26 0 44.5 11.5t30.5 29.5
t18 39.5t6 41.5h-1zM225 -13q1 5 1 10v10q0 38 -14 66t-52 28q-26 0 -45.5 -19.5t-19.5 -56.5q0 -12 2.5 -25.5t10 -25t20.5 -18.5t33 -7t36.5 11t27.5 27z" />
    <glyph glyph-name="parenleftinferior" unicode="&#x208d;" horiz-adv-x="208" 
d="M163 195q-37 -63 -54 -121t-17 -119q0 -60 17 -118t54 -122h-32q-42 53 -64 115.5t-22 124.5q0 63 22 125t64 115h32z" />
    <glyph glyph-name="parenrightinferior" unicode="&#x208e;" horiz-adv-x="208" 
d="M77 195q42 -53 64 -115t22 -125q0 -62 -22 -124.5t-64 -115.5h-32q38 64 54.5 122t16.5 118q0 61 -16.5 119t-54.5 121h32z" />
    <glyph glyph-name="colonmonetary" unicode="&#x20a1;" horiz-adv-x="630" 
d="M390 -100v93q-21 -3 -45 -3q-18 0 -34 2t-31 5v-97h-40v107q-48 18 -83 51t-57.5 77.5t-33.5 98t-11 111.5q0 57 11 109.5t33.5 95.5t57.5 74.5t83 48.5v107h40v-97q15 3 31 5t34 2q24 0 45 -3v93h40v-99q59 -13 96 -36t59 -40l-33 -73q-48 38 -96 55.5t-96 17.5
q-55 0 -94 -20t-63.5 -55.5t-36 -83t-11.5 -101.5t11.5 -103t36 -86t63.5 -59t94 -22q48 0 96 17.5t96 55.5l33 -73q-22 -17 -59 -40.5t-96 -35.5v-99h-40z" />
    <glyph glyph-name="franc" unicode="&#x20a3;" horiz-adv-x="700" 
d="M435 437l-8 -55h-201q-1 -9 -1 -18.5v-18.5v-24t2 -24h208l-8 -55h-186q8 -35 23 -65t38 -53t54.5 -36t73.5 -13q48 0 96 17t96 55l33 -72q-15 -12 -36.5 -26.5t-50.5 -27.5t-67 -22t-86 -9q-62 0 -110 19t-82.5 53t-56 80t-31.5 100h-80v55h71q-1 11 -1 23.5v24.5v18.5
t1 18.5h-71v55h78q9 54 30.5 100.5t56.5 80.5t83.5 53t111.5 19q48 0 86 -9t67 -22t50.5 -28t36.5 -26l-33 -73q-48 38 -96 55.5t-96 17.5q-44 0 -76 -13t-55.5 -35.5t-38 -53.5t-21.5 -66h196z" />
    <glyph glyph-name="lira" unicode="&#x20a4;" horiz-adv-x="700" 
d="M435 437l-8 -55h-201q-1 -9 -1 -18.5v-18.5v-24t2 -24h208l-8 -55h-186q8 -35 23 -65t38 -53t54.5 -36t73.5 -13q48 0 96 17t96 55l33 -72q-15 -12 -36.5 -26.5t-50.5 -27.5t-67 -22t-86 -9q-62 0 -110 19t-82.5 53t-56 80t-31.5 100h-80v55h71q-1 11 -1 23.5v24.5v18.5
t1 18.5h-71v55h78q9 54 30.5 100.5t56.5 80.5t83.5 53t111.5 19q48 0 86 -9t67 -22t50.5 -28t36.5 -26l-33 -73q-48 38 -96 55.5t-96 17.5q-44 0 -76 -13t-55.5 -35.5t-38 -53.5t-21.5 -66h196z" />
    <glyph glyph-name="peseta" unicode="&#x20a7;" horiz-adv-x="700" 
d="M435 437l-8 -55h-201q-1 -9 -1 -18.5v-18.5v-24t2 -24h208l-8 -55h-186q8 -35 23 -65t38 -53t54.5 -36t73.5 -13q48 0 96 17t96 55l33 -72q-15 -12 -36.5 -26.5t-50.5 -27.5t-67 -22t-86 -9q-62 0 -110 19t-82.5 53t-56 80t-31.5 100h-80v55h71q-1 11 -1 23.5v24.5v18.5
t1 18.5h-71v55h78q9 54 30.5 100.5t56.5 80.5t83.5 53t111.5 19q48 0 86 -9t67 -22t50.5 -28t36.5 -26l-33 -73q-48 38 -96 55.5t-96 17.5q-44 0 -76 -13t-55.5 -35.5t-38 -53.5t-21.5 -66h196z" />
    <glyph glyph-name="Euro" unicode="&#x20ac;" horiz-adv-x="700" 
d="M435 437l-8 -55h-201q-1 -9 -1 -18.5v-18.5v-24t2 -24h208l-8 -55h-186q8 -35 23 -65t38 -53t54.5 -36t73.5 -13q48 0 96 17t96 55l33 -72q-15 -12 -36.5 -26.5t-50.5 -27.5t-67 -22t-86 -9q-62 0 -110 19t-82.5 53t-56 80t-31.5 100h-80v55h71q-1 11 -1 23.5v24.5v18.5
t1 18.5h-71v55h78q9 54 30.5 100.5t56.5 80.5t83.5 53t111.5 19q48 0 86 -9t67 -22t50.5 -28t36.5 -26l-33 -73q-48 38 -96 55.5t-96 17.5q-44 0 -76 -13t-55.5 -35.5t-38 -53.5t-21.5 -66h196z" />
    <glyph glyph-name="litre" unicode="&#x2113;" horiz-adv-x="449" 
d="M30 167l94 99v243q0 102 40 151q42 50 100 50q45 0 70.5 -27t25.5 -72q0 -51 -31 -112q-31 -63 -129 -176v-168q0 -75 23 -106q22 -29 60 -29q35 0 64 29q32 29 54 103h18q-21 -83 -68 -127q-37 -35 -89 -35q-44 0 -78 24t-49 66q-11 33 -11 107v52l-82 -83zM200 350
q134 155 134 242q0 43 -19.5 66t-47.5 23q-29 0 -48 -28t-19 -110v-193z" />
    <glyph glyph-name="afii61352" unicode="&#x2116;" horiz-adv-x="1034" 
d="M480 0l-333 504h-2v-504h-90v680h95l333 -504h2v504h90v-680h-95zM837 639q-51 0 -77 -31t-26 -88t26 -88t77 -31t77 31t26 88t-26 88t-77 31zM837 350q-82 0 -124.5 45.5t-42.5 124.5t42.5 124.5t124.5 45.5t124.5 -45.5t42.5 -124.5t-42.5 -124.5t-124.5 -45.5z
M1004 320v-55h-334v55h334z" />
    <glyph glyph-name="trademark" unicode="&#x2122;" horiz-adv-x="800" 
d="M199 630v-294h-55v294h-104v50h264v-50h-105zM464 680l105 -253h1l104 253h76v-344h-55v249h-2l-105 -249h-44l-102 249h-2v-249h-52v344h76z" />
    <glyph glyph-name="Omega" unicode="&#x2126;" horiz-adv-x="670" 
d="M45 390q0 62 17 116.5t52 95.5t90 64.5t131 23.5t131 -23.5t90 -64.5t52 -95.5t17 -116.5q0 -44 -11.5 -86t-34.5 -77t-58 -60t-83 -34v-68h187v-65h-253v173q79 8 116 67t37 150q0 45 -9.5 85t-32 70t-59 47.5t-89.5 17.5t-89.5 -17.5t-59 -47.5t-32 -70t-9.5 -85
q0 -91 37 -150t116 -67v-173h-253v65h187v68q-48 9 -83 34t-58 60t-34.5 77t-11.5 86z" />
    <glyph glyph-name="estimated" unicode="&#x212e;" horiz-adv-x="736" 
d="M178 349v-235q81 -78 190 -78q163 0 252 157l46 -26q-64 -91 -130 -134q-67 -43 -168 -43q-153 0 -244 103q-94 100 -94 256q0 158 94 259q94 102 244 102q135 0 234 -91q48 -46 74.5 -112.5t29.5 -157.5h-528zM558 397v189q-82 77 -191 77q-110 0 -189 -77v-189h380z
" />
    <glyph glyph-name="onethird" unicode="&#x2153;" horiz-adv-x="800" 
d="M237 0h-30l370 680h30zM626 301q-26 0 -48 -8t-42 -19l-15 37q24 14 52.5 21.5t57.5 7.5q46 0 75 -23t29 -66q0 -31 -18 -51t-46 -29v-1q36 -8 55 -31t19 -53q0 -46 -30.5 -71t-89.5 -25q-30 0 -59 7t-53 22l14 37q22 -11 45.5 -19t51.5 -8q22 0 36 5.5t22 14t11 18
t3 17.5q0 28 -18 44.5t-62 16.5h-42v40h40q40 0 56.5 19t16.5 42q0 9 -3 18.5t-9.5 17.5t-18.5 13.5t-30 5.5zM149 379v250l-82 -42l-12 36q29 13 58.5 28.5t49.5 31.5h33v-304h70v-39h-187v39h70z" />
    <glyph glyph-name="twothirds" unicode="&#x2154;" horiz-adv-x="800" 
d="M237 0h-30l370 680h30zM626 301q-26 0 -48 -8t-42 -19l-15 37q24 14 52.5 21.5t57.5 7.5q46 0 75 -23t29 -66q0 -31 -18 -51t-46 -29v-1q36 -8 55 -31t19 -53q0 -46 -30.5 -71t-89.5 -25q-30 0 -59 7t-53 22l14 37q22 -11 45.5 -19t51.5 -8q22 0 36 5.5t22 14t11 18
t3 17.5q0 28 -18 44.5t-62 16.5h-42v40h40q40 0 56.5 19t16.5 42q0 9 -3 18.5t-9.5 17.5t-18.5 13.5t-30 5.5zM153 642q-19 0 -38.5 -5.5t-45.5 -18.5l-14 37q26 14 52.5 22t58.5 8q54 0 80 -30t26 -72q0 -53 -38 -100.5t-112 -99.5v-1h155v-42h-222v46q53 35 86 63.5
t51 51.5t24 40.5t6 31.5q0 23 -7.5 37t-18.5 21t-23 9t-20 2z" />
    <glyph glyph-name="oneeighth" unicode="&#x215b;" horiz-adv-x="800" 
d="M237 0h-30l370 680h30zM149 379v250l-82 -42l-12 36q29 13 58.5 28.5t49.5 31.5h33v-304h70v-39h-187v39h70zM630 192q23 8 40 22t17 37q0 15 -6 25.5t-15.5 16.5t-21 9t-22.5 3q-10 0 -21 -3t-20 -9t-15 -16t-6 -24q0 -25 21 -39t49 -22zM617 149q-25 -8 -45 -23.5
t-20 -41.5q0 -22 16 -40t57 -18q40 0 55.5 16.5t15.5 38.5q0 15 -7.5 25.5t-19 18.5t-25.5 13.5t-27 10.5zM622 -10q-52 0 -85.5 22.5t-33.5 67.5q0 33 22.5 54t55.5 33v1q-30 13 -49 32.5t-19 51.5q0 44 32.5 66t79.5 22q22 0 42 -5.5t35 -16.5t24 -26.5t9 -36.5
q0 -31 -18.5 -48.5t-50.5 -31.5v-1q35 -16 57 -36.5t22 -53.5q0 -47 -34.5 -70.5t-88.5 -23.5z" />
    <glyph glyph-name="threeeighths" unicode="&#x215c;" horiz-adv-x="800" 
d="M237 0h-30l370 680h30zM630 192q23 8 40 22t17 37q0 15 -6 25.5t-15.5 16.5t-21 9t-22.5 3q-10 0 -21 -3t-20 -9t-15 -16t-6 -24q0 -25 21 -39t49 -22zM617 149q-25 -8 -45 -23.5t-20 -41.5q0 -22 16 -40t57 -18q40 0 55.5 16.5t15.5 38.5q0 15 -7.5 25.5t-19 18.5
t-25.5 13.5t-27 10.5zM622 -10q-52 0 -85.5 22.5t-33.5 67.5q0 33 22.5 54t55.5 33v1q-30 13 -49 32.5t-19 51.5q0 44 32.5 66t79.5 22q22 0 42 -5.5t35 -16.5t24 -26.5t9 -36.5q0 -31 -18.5 -48.5t-50.5 -31.5v-1q35 -16 57 -36.5t22 -53.5q0 -47 -34.5 -70.5t-88.5 -23.5z
M168 641q-26 0 -48 -8t-42 -19l-15 37q24 14 52.5 21.5t57.5 7.5q46 0 75 -23t29 -66q0 -31 -18 -51t-46 -29v-1q36 -8 55 -31t19 -53q0 -46 -30.5 -71t-89.5 -25q-30 0 -59 7t-53 22l14 37q22 -11 45.5 -19t51.5 -8q22 0 36 5.5t22 14t11 18t3 17.5q0 28 -18 44.5t-62 16.5
h-42v40h40q40 0 56.5 19t16.5 42q0 9 -3 18.5t-9.5 17.5t-18.5 13.5t-30 5.5z" />
    <glyph glyph-name="fiveeighths" unicode="&#x215d;" horiz-adv-x="800" 
d="M237 0h-30l370 680h30zM630 192q23 8 40 22t17 37q0 15 -6 25.5t-15.5 16.5t-21 9t-22.5 3q-10 0 -21 -3t-20 -9t-15 -16t-6 -24q0 -25 21 -39t49 -22zM617 149q-25 -8 -45 -23.5t-20 -41.5q0 -22 16 -40t57 -18q40 0 55.5 16.5t15.5 38.5q0 15 -7.5 25.5t-19 18.5
t-25.5 13.5t-27 10.5zM622 -10q-52 0 -85.5 22.5t-33.5 67.5q0 33 22.5 54t55.5 33v1q-30 13 -49 32.5t-19 51.5q0 44 32.5 66t79.5 22q22 0 42 -5.5t35 -16.5t24 -26.5t9 -36.5q0 -31 -18.5 -48.5t-50.5 -31.5v-1q35 -16 57 -36.5t22 -53.5q0 -47 -34.5 -70.5t-88.5 -23.5z
M116 522q13 14 31.5 23t39.5 9q46 0 73 -28t27 -80q0 -54 -33.5 -85t-88.5 -31q-32 0 -58 8.5t-52 22.5l14 36q26 -13 47 -20t46 -8q31 0 53 19.5t22 54.5q0 12 -3.5 24.5t-11 22t-20 16t-31.5 6.5q-39 0 -64 -32l-35 3l8 192h187v-42h-146l-6 -110z" />
    <glyph glyph-name="seveneighths" unicode="&#x215e;" horiz-adv-x="800" 
d="M177 0h-30l370 680h30zM630 192q23 8 40 22t17 37q0 15 -6 25.5t-15.5 16.5t-21 9t-22.5 3q-10 0 -21 -3t-20 -9t-15 -16t-6 -24q0 -25 21 -39t49 -22zM617 149q-25 -8 -45 -23.5t-20 -41.5q0 -22 16 -40t57 -18q40 0 55.5 16.5t15.5 38.5q0 15 -7.5 25.5t-19 18.5
t-25.5 13.5t-27 10.5zM622 -10q-52 0 -85.5 22.5t-33.5 67.5q0 33 22.5 54t55.5 33v1q-30 13 -49 32.5t-19 51.5q0 44 32.5 66t79.5 22q22 0 42 -5.5t35 -16.5t24 -26.5t9 -36.5q0 -31 -18.5 -48.5t-50.5 -31.5v-1q35 -16 57 -36.5t22 -53.5q0 -47 -34.5 -70.5t-88.5 -23.5z
M230 638h-175v42h227v-34q-39 -66 -75.5 -140.5t-51.5 -165.5h-50q6 35 18.5 75t29.5 79.5t37 76t40 66.5v1z" />
    <glyph glyph-name="partialdiff" unicode="&#x2202;" horiz-adv-x="573" 
d="M438 368q1 5 2 17t1 22q0 37 -9 74t-29 67t-52.5 48.5t-79.5 18.5q-32 0 -64.5 -5.5t-74.5 -19.5l-2 69l39 13t37 10t39.5 6t44.5 2q71 0 120.5 -28.5t77.5 -80.5t35.5 -123.5t-4.5 -157.5q-8 -60 -27.5 -115.5t-53.5 -99t-83.5 -69.5t-117.5 -26q-51 0 -89 17t-62.5 48
t-34.5 73t-3 92q16 113 79.5 174t160.5 61q49 0 87 -24.5t61 -63.5zM421 296q-20 34 -50 57t-71 23q-42 0 -70.5 -15t-46.5 -37.5t-27.5 -50.5t-12.5 -53q-6 -33 0 -61.5t21 -49t38 -32.5t51 -12q45 0 75.5 20t49.5 52t29 73.5t14 85.5z" />
    <glyph glyph-name="Delta" unicode="&#x2206;" horiz-adv-x="628" 
d="M578 0h-528l244 710zM98 40h386l-206 527z" />
    <glyph glyph-name="product" unicode="&#x220f;" horiz-adv-x="630" 
d="M55 0v700h520v-700h-90v620h-340v-620h-90z" />
    <glyph glyph-name="summation" unicode="&#x2211;" horiz-adv-x="550" 
d="M180 87v-2h320v-85h-450v70l174 269l-174 271v70h450v-85h-321v-2l165 -253z" />
    <glyph glyph-name="minus" unicode="&#x2212;" horiz-adv-x="500" 
d="M445 303v-76h-390v76h390z" />
    <glyph glyph-name="uni2215" unicode="&#x2215;" horiz-adv-x="540" 
d="M125 0h-80l370 680h80z" />
    <glyph glyph-name="uni2219" unicode="&#x2219;" horiz-adv-x="200" 
d="M55 315h90v-130h-90v130z" />
    <glyph glyph-name="radical" unicode="&#x221a;" horiz-adv-x="800" 
d="M474 -5h-109l-130 340h-160v55h243l103 -294h2l211 604h96z" />
    <glyph glyph-name="infinity" unicode="&#x221e;" horiz-adv-x="849" 
d="M218 130q34 0 65 13t55.5 32t42 41t25.5 39q-10 23 -29.5 44t-44.5 36.5t-54 25t-58 9.5q-42 0 -72.5 -9.5t-50 -25t-28.5 -36.5t-9 -44q0 -22 8.5 -44.5t27.5 -40.5t49 -29t73 -11zM631 370q-35 0 -65.5 -13t-55 -32t-42 -41t-25.5 -39q10 -23 29.5 -44t44.5 -36.5
t54 -25t58 -9.5q42 0 72 9.5t49.5 25t29 36.5t9.5 44q0 22 -8.5 44.5t-27.5 40.5t-49 29t-73 11zM220 400q37 0 69.5 -11t59 -28.5t46.5 -40t32 -45.5q15 22 35 44.5t46 40.5t58.5 29t72.5 11q41 0 74.5 -12t57 -33t36 -49t12.5 -61q0 -64 -50 -104.5t-140 -40.5
q-37 0 -69.5 11t-59.5 28.5t-47 39.5t-32 44q-15 -23 -35 -45t-46 -39t-58 -28t-72 -11q-41 0 -74.5 12t-57 33t-36 49t-12.5 61q0 64 50 104.5t140 40.5z" />
    <glyph glyph-name="integral" unicode="&#x222b;" horiz-adv-x="360" 
d="M120 545q0 84 34 119.5t111 35.5q18 0 39 -2t41 -6l-8 -70q-17 3 -29 4t-23 1q-45 0 -60 -25t-15 -73v-569q0 -85 -31.5 -127.5t-113.5 -42.5q-37 0 -80 8l9 70q16 -3 28 -4t23 -1q45 0 60 25t15 73v584z" />
    <glyph glyph-name="approxequal" unicode="&#x2248;" horiz-adv-x="500" 
d="M171 360q-14 0 -31 -7.5t-49 -40.5l-29 23q29 48 55 67.5t52 19.5q18 0 43.5 -8t52 -18t49.5 -18t36 -8q14 0 29.5 5.5t35.5 35.5l25 -28q-17 -34 -37 -53.5t-47 -19.5q-18 0 -43 8t-51.5 17t-50.5 17t-40 8zM171 160q-14 0 -31 -7.5t-49 -40.5l-29 23q29 48 55 67.5
t52 19.5q18 0 43.5 -8t52 -18t49.5 -18t36 -8q14 0 29.5 5.5t35.5 35.5l25 -28q-17 -34 -37 -53.5t-47 -19.5q-18 0 -43 8t-51.5 17t-50.5 17t-40 8z" />
    <glyph glyph-name="notequal" unicode="&#x2260;" horiz-adv-x="500" 
d="M195 202l69 125h-209v75h249l111 203h40l-111 -203h101v-75h-142l-68 -125h210v-75h-250l-110 -202h-40l110 202h-100v75h140z" />
    <glyph glyph-name="lessequal" unicode="&#x2264;" horiz-adv-x="480" 
d="M55 282v46l370 162v-65l-275 -120l275 -120v-65zM425 80v-55h-370v55h370z" />
    <glyph glyph-name="greaterequal" unicode="&#x2265;" horiz-adv-x="480" 
d="M55 120v65l275 120l-275 120v65l370 -162v-46zM425 80v-55h-370v55h370z" />
    <glyph glyph-name="lozenge" unicode="&#x25ca;" horiz-adv-x="472" 
d="M30 344l199 374h14l199 -374l-199 -374h-14zM236 97l131 247l-131 247l-132 -247z" />
    <glyph glyph-name="undercommaaccent" unicode="&#xf005;" horiz-adv-x="230" 
d="M70 -250q5 26 10 52.5t10 52.5h-35v105h90v-105l-45 -105h-30z" />
    <glyph glyph-name="Abreve.small" unicode="&#xf66d;" horiz-adv-x="610" 
d="M301 718q22 0 39.5 7t29.5 17.5t20 23.5t12 24h39q-9 -67 -45.5 -101t-94.5 -34q-57 0 -93.5 34t-45.5 101h39q4 -11 12 -24t20 -23.5t29 -17.5t39 -7zM418 140h-230l-53 -140h-100l219 585h107l214 -585h-106zM304 467l-96 -252h190l-93 252h-1z" />
    <glyph glyph-name="Amacron.small" unicode="&#xf66e;" horiz-adv-x="610" 
d="M455 730v-65h-310v65h310zM469 0l-51 140h-230l-53 -140h-100l219 585h107l214 -585h-106zM304 467l-96 -252h190l-93 252h-1z" />
    <glyph glyph-name="AEacute.small" unicode="&#xf670;" horiz-adv-x="886" 
d="M35 0l347 580h444v-80h-305v-165h260v-80h-260v-175h310v-80h-400v212h-170l-130 -212h-96zM431 287v213h-2l-129 -213h131zM495 640h-60l50 140h87z" />
    <glyph glyph-name="Cacute.small" unicode="&#xf671;" horiz-adv-x="580" 
d="M55 292q0 72 15 127.5t48 93.5t86.5 57.5t130.5 19.5q66 0 117 -10.5t93 -24.5l-22 -75q-57 17 -100.5 23.5t-84.5 6.5q-53 0 -88.5 -14.5t-58 -42t-32 -68.5t-9.5 -93q0 -54 9.5 -95.5t32 -69.5t58 -42.5t88.5 -14.5q41 0 84.5 6.5t100.5 23.5l22 -75q-42 -14 -93 -24.5
t-117 -10.5q-77 0 -130.5 20t-86.5 58t-48 94.5t-15 129.5zM364 640h-60l50 140h87z" />
    <glyph glyph-name="Ccaron.small" unicode="&#xf672;" horiz-adv-x="580" 
d="M55 292q0 72 15 127.5t48 93.5t86.5 57.5t130.5 19.5q66 0 117 -10.5t93 -24.5l-22 -75q-57 17 -100.5 23.5t-84.5 6.5q-53 0 -88.5 -14.5t-58 -42t-32 -68.5t-9.5 -93q0 -54 9.5 -95.5t32 -69.5t58 -42.5t88.5 -14.5q41 0 84.5 6.5t100.5 23.5l22 -75q-42 -14 -93 -24.5
t-117 -10.5q-77 0 -130.5 20t-86.5 58t-48 94.5t-15 129.5zM412 780h60l-106 -140h-59l-105 140h60l75 -69z" />
    <glyph glyph-name="Ccircumflex.small" unicode="&#xf673;" horiz-adv-x="580" 
d="M55 292q0 72 15 127.5t48 93.5t86.5 57.5t130.5 19.5q66 0 117 -10.5t93 -24.5l-22 -75q-57 17 -100.5 23.5t-84.5 6.5q-53 0 -88.5 -14.5t-58 -42t-32 -68.5t-9.5 -93q0 -54 9.5 -95.5t32 -69.5t58 -42.5t88.5 -14.5q41 0 84.5 6.5t100.5 23.5l22 -75q-42 -14 -93 -24.5
t-117 -10.5q-77 0 -130.5 20t-86.5 58t-48 94.5t-15 129.5zM328 699l-75 -69h-60l105 140h59l106 -140h-60z" />
    <glyph glyph-name="Cdotaccent.small" unicode="&#xf674;" horiz-adv-x="580" 
d="M55 292q0 72 15 127.5t48 93.5t86.5 57.5t130.5 19.5q66 0 117 -10.5t93 -24.5l-22 -75q-57 17 -100.5 23.5t-84.5 6.5q-53 0 -88.5 -14.5t-58 -42t-32 -68.5t-9.5 -93q0 -54 9.5 -95.5t32 -69.5t58 -42.5t88.5 -14.5q41 0 84.5 6.5t100.5 23.5l22 -75q-42 -14 -93 -24.5
t-117 -10.5q-77 0 -130.5 20t-86.5 58t-48 94.5t-15 129.5zM280 780h80v-120h-80v120z" />
    <glyph glyph-name="Dcaron.small" unicode="&#xf675;" horiz-adv-x="610" 
d="M65 0v580h220q142 0 206 -73t64 -212q0 -141 -64 -218t-206 -77h-220zM280 80q52 0 87 14.5t55.5 42.5t29 67.5t8.5 90.5t-8.5 89t-29 64t-55.5 39t-87 13h-125v-420h125zM369 780h60l-106 -140h-59l-105 140h60l75 -69z" />
    <glyph glyph-name="Ebreve.small" unicode="&#xf677;" horiz-adv-x="520" 
d="M465 80v-80h-400v580h395v-80h-305v-165h260v-80h-260v-175h310zM269 718q22 0 39.5 7t29.5 17.5t20 23.5t12 24h39q-9 -67 -45.5 -101t-94.5 -34q-57 0 -93.5 34t-45.5 101h39q4 -11 12 -24t20 -23.5t29 -17.5t39 -7z" />
    <glyph glyph-name="Ecaron.small" unicode="&#xf678;" horiz-adv-x="520" 
d="M465 80v-80h-400v580h395v-80h-305v-165h260v-80h-260v-175h310zM358 780h60l-106 -140h-59l-105 140h60l75 -69z" />
    <glyph glyph-name="Edotaccent.small" unicode="&#xf679;" horiz-adv-x="520" 
d="M465 80v-80h-400v580h395v-80h-305v-165h260v-80h-260v-175h310zM213 780h80v-120h-80v120z" />
    <glyph glyph-name="Emacron.small" unicode="&#xf67a;" horiz-adv-x="520" 
d="M465 80v-80h-400v580h395v-80h-305v-165h260v-80h-260v-175h310zM417 730v-65h-310v65h310z" />
    <glyph glyph-name="Gbreve.small" unicode="&#xf67d;" 
d="M338 70q27 0 51 3t61 12v155h-110v65h200v-280q-39 -14 -89 -24.5t-116 -10.5q-77 0 -130.5 20t-86.5 58t-48 94.5t-15 129.5q0 72 15 127.5t48 93.5t86.5 57.5t130.5 19.5q66 0 117 -10.5t93 -24.5l-22 -75q-57 17 -100.5 23.5t-84.5 6.5q-53 0 -88.5 -14.5t-58 -42
t-32 -68.5t-9.5 -93q0 -54 9.5 -95.5t32 -69.5t58 -42.5t88.5 -14.5zM329 718q22 0 39.5 7t29.5 17.5t20 23.5t12 24h39q-9 -67 -45.5 -101t-94.5 -34q-57 0 -93.5 34t-45.5 101h39q4 -11 12 -24t20 -23.5t29 -17.5t39 -7z" />
    <glyph glyph-name="Gcircumflex.small" unicode="&#xf67e;" 
d="M338 70q27 0 51 3t61 12v155h-110v65h200v-280q-39 -14 -89 -24.5t-116 -10.5q-77 0 -130.5 20t-86.5 58t-48 94.5t-15 129.5q0 72 15 127.5t48 93.5t86.5 57.5t130.5 19.5q66 0 117 -10.5t93 -24.5l-22 -75q-57 17 -100.5 23.5t-84.5 6.5q-53 0 -88.5 -14.5t-58 -42
t-32 -68.5t-9.5 -93q0 -54 9.5 -95.5t32 -69.5t58 -42.5t88.5 -14.5zM329 699l-75 -69h-60l105 140h59l106 -140h-60z" />
    <glyph glyph-name="Gcommaaccent.small" unicode="&#xf67f;" 
d="M338 70q27 0 51 3t61 12v155h-110v65h200v-280q-39 -14 -89 -24.5t-116 -10.5q-77 0 -130.5 20t-86.5 58t-48 94.5t-15 129.5q0 72 15 127.5t48 93.5t86.5 57.5t130.5 19.5q66 0 117 -10.5t93 -24.5l-22 -75q-57 17 -100.5 23.5t-84.5 6.5q-53 0 -88.5 -14.5t-58 -42
t-32 -68.5t-9.5 -93q0 -54 9.5 -95.5t32 -69.5t58 -42.5t88.5 -14.5zM279 -250q5 26 10 52.5t10 52.5h-35v105h90v-105l-45 -105h-30z" />
    <glyph glyph-name="Gdotaccent.small" unicode="&#xf680;" 
d="M338 70q27 0 51 3t61 12v155h-110v65h200v-280q-39 -14 -89 -24.5t-116 -10.5q-77 0 -130.5 20t-86.5 58t-48 94.5t-15 129.5q0 72 15 127.5t48 93.5t86.5 57.5t130.5 19.5q66 0 117 -10.5t93 -24.5l-22 -75q-57 17 -100.5 23.5t-84.5 6.5q-53 0 -88.5 -14.5t-58 -42
t-32 -68.5t-9.5 -93q0 -54 9.5 -95.5t32 -69.5t58 -42.5t88.5 -14.5zM279 780h80v-120h-80v120z" />
    <glyph glyph-name="Hcircumflex.small" unicode="&#xf682;" 
d="M155 255v-255h-90v580h90v-245h290v245h90v-580h-90v255h-290zM297 699l-75 -69h-60l105 140h59l106 -140h-60z" />
    <glyph glyph-name="Ibreve.small" unicode="&#xf683;" horiz-adv-x="220" 
d="M65 0v580h90v-580h-90zM110 718q22 0 39.5 7t29.5 17.5t20 23.5t12 24h39q-9 -67 -45.5 -101t-94.5 -34q-57 0 -93.5 34t-45.5 101h39q4 -11 12 -24t20 -23.5t29 -17.5t39 -7z" />
    <glyph glyph-name="Imacron.small" unicode="&#xf685;" horiz-adv-x="220" 
d="M65 0v580h90v-580h-90zM265 730v-65h-310v65h310z" />
    <glyph glyph-name="Itilde.small" unicode="&#xf687;" horiz-adv-x="220" 
d="M65 0v580h90v-580h-90zM55 690q-9 0 -16.5 -1t-16.5 -5t-20.5 -11.5t-26.5 -20.5l-29 23q29 48 55 67.5t52 19.5q18 0 36 -6.5t35 -14.5t32 -14.5t28 -6.5q14 0 28.5 3t36.5 28l25 -28q-17 -34 -37.5 -53.5t-46.5 -19.5q-16 0 -33.5 6t-35 13.5t-34.5 14t-32 6.5z" />
    <glyph glyph-name="Jcircumflex.small" unicode="&#xf688;" horiz-adv-x="335" 
d="M175 580h95v-409q0 -50 -11 -84.5t-31.5 -56t-50.5 -31t-67 -9.5q-50 0 -93 8l9 80q17 -3 30.5 -4t28.5 -1q45 0 67.5 23t22.5 80v404zM222 699l-75 -69h-60l105 140h59l106 -140h-60z" />
    <glyph glyph-name="Kcommaaccent.small" unicode="&#xf689;" horiz-adv-x="588" 
d="M261 276l-106 -114v-162h-90v580h90v-292l278 292h112l-219 -238l224 -342h-114zM236 -250q5 26 10 52.5t10 52.5h-35v105h90v-105l-45 -105h-30z" />
    <glyph glyph-name="Lacute.small" unicode="&#xf68a;" horiz-adv-x="500" 
d="M455 80v-80h-390v580h90v-500h300zM192 640h-60l50 140h87z" />
    <glyph glyph-name="Lcaron.small" unicode="&#xf68b;" horiz-adv-x="500" 
d="M455 80v-80h-390v580h90v-500h300zM265 370q5 26 10 52.5t10 52.5h-35v105h90v-105l-45 -105h-30z" />
    <glyph glyph-name="Lcommaaccent.small" unicode="&#xf68c;" horiz-adv-x="500" 
d="M455 80v-80h-390v580h90v-500h300zM208 -250q5 26 10 52.5t10 52.5h-35v105h90v-105l-45 -105h-30z" />
    <glyph glyph-name="Ldot.small" unicode="&#xf68d;" horiz-adv-x="500" 
d="M455 80v-80h-390v580h90v-500h300zM260 400h80v-120h-80v120z" />
    <glyph glyph-name="Nacute.small" unicode="&#xf68e;" horiz-adv-x="610" 
d="M450 0l-295 427h-2v-427h-88v580h95l295 -427h2v427h88v-580h-95zM342 640h-60l50 140h87z" />
    <glyph glyph-name="Ncaron.small" unicode="&#xf68f;" horiz-adv-x="610" 
d="M450 0l-295 427h-2v-427h-88v580h95l295 -427h2v427h88v-580h-95zM391 780h60l-106 -140h-59l-105 140h60l75 -69z" />
    <glyph glyph-name="Ncommaaccent.small" unicode="&#xf690;" horiz-adv-x="610" 
d="M450 0l-295 427h-2v-427h-88v580h95l295 -427h2v427h88v-580h-95zM246 -250q5 26 10 52.5t10 52.5h-35v105h90v-105l-45 -105h-30z" />
    <glyph glyph-name="Obreve.small" unicode="&#xf691;" horiz-adv-x="650" 
d="M325 515q-55 0 -89.5 -17t-53.5 -46.5t-25.5 -69.5t-6.5 -87t6.5 -88.5t25.5 -73t53.5 -50t89.5 -18.5t89.5 18.5t53.5 50t25.5 73t6.5 88.5t-6.5 87t-25.5 69.5t-53.5 46.5t-89.5 17zM325 -10q-74 0 -125.5 21t-83.5 60.5t-46.5 96t-14.5 127.5q0 70 14.5 125t46.5 93
t83.5 57.5t125.5 19.5t125.5 -19.5t83.5 -57.5t46.5 -93t14.5 -125q0 -71 -14.5 -127.5t-46.5 -96t-83.5 -60.5t-125.5 -21zM324 718q22 0 39.5 7t29.5 17.5t20 23.5t12 24h39q-9 -67 -45.5 -101t-94.5 -34q-57 0 -93.5 34t-45.5 101h39q4 -11 12 -24t20 -23.5t29 -17.5
t39 -7z" />
    <glyph glyph-name="Ohungarumlaut.small" unicode="&#xf692;" horiz-adv-x="650" 
d="M325 515q-55 0 -89.5 -17t-53.5 -46.5t-25.5 -69.5t-6.5 -87t6.5 -88.5t25.5 -73t53.5 -50t89.5 -18.5t89.5 18.5t53.5 50t25.5 73t6.5 88.5t-6.5 87t-25.5 69.5t-53.5 46.5t-89.5 17zM325 -10q-74 0 -125.5 21t-83.5 60.5t-46.5 96t-14.5 127.5q0 70 14.5 125t46.5 93
t83.5 57.5t125.5 19.5t125.5 -19.5t83.5 -57.5t46.5 -93t14.5 -125q0 -71 -14.5 -127.5t-46.5 -96t-83.5 -60.5t-125.5 -21zM268 640h-60l50 140h87zM438 640h-60l50 140h87z" />
    <glyph glyph-name="Omacron.small" unicode="&#xf693;" horiz-adv-x="650" 
d="M325 515q-55 0 -89.5 -17t-53.5 -46.5t-25.5 -69.5t-6.5 -87t6.5 -88.5t25.5 -73t53.5 -50t89.5 -18.5t89.5 18.5t53.5 50t25.5 73t6.5 88.5t-6.5 87t-25.5 69.5t-53.5 46.5t-89.5 17zM325 -10q-74 0 -125.5 21t-83.5 60.5t-46.5 96t-14.5 127.5q0 70 14.5 125t46.5 93
t83.5 57.5t125.5 19.5t125.5 -19.5t83.5 -57.5t46.5 -93t14.5 -125q0 -71 -14.5 -127.5t-46.5 -96t-83.5 -60.5t-125.5 -21zM478 730v-65h-310v65h310z" />
    <glyph glyph-name="Oslashacute.small" unicode="&#xf694;" horiz-adv-x="650" 
d="M365 640h-60l50 140h87zM325 -10q-113 0 -176 52l-60 -75l-29 24l60 75q-35 39 -50 96.5t-15 132.5q0 70 14.5 125t46.5 93t83.5 57.5t125.5 19.5q59 0 102.5 -13t74.5 -38l59 72l29 -24l-58 -71q33 -38 48 -93.5t15 -127.5q0 -71 -14.5 -127.5t-46.5 -96t-83.5 -60.5
t-125.5 -21zM325 515q-55 0 -89.5 -17t-53.5 -46.5t-25.5 -69.5t-6.5 -87q0 -45 6.5 -84.5t24.5 -69.5l268 331q-20 20 -49.5 31.5t-74.5 11.5zM500 295q0 42 -6.5 79t-23.5 65l-268 -331q20 -20 50 -31.5t73 -11.5q55 0 89.5 18.5t53.5 50t25.5 73t6.5 88.5z" />
    <glyph glyph-name="Racute.small" unicode="&#xf695;" horiz-adv-x="575" 
d="M289 640h-60l50 140h87zM425 0l-147 195h-123v-195h-90v580h240q51 0 89.5 -14t64.5 -39.5t39.5 -60.5t13.5 -77q0 -33 -9 -63t-26 -54t-43 -40t-60 -22l163 -210h-112zM155 275h145q60 0 91 27t31 85q0 55 -30 84t-87 29h-150v-225z" />
    <glyph glyph-name="Rcaron.small" unicode="&#xf696;" horiz-adv-x="575" 
d="M349 780h60l-106 -140h-59l-105 140h60l75 -69zM425 0l-147 195h-123v-195h-90v580h240q51 0 89.5 -14t64.5 -39.5t39.5 -60.5t13.5 -77q0 -33 -9 -63t-26 -54t-43 -40t-60 -22l163 -210h-112zM155 275h145q60 0 91 27t31 85q0 55 -30 84t-87 29h-150v-225z" />
    <glyph glyph-name="Rcommaaccent.small" unicode="&#xf697;" horiz-adv-x="575" 
d="M248 -250q5 26 10 52.5t10 52.5h-35v105h90v-105l-45 -105h-30zM425 0l-147 195h-123v-195h-90v580h240q51 0 89.5 -14t64.5 -39.5t39.5 -60.5t13.5 -77q0 -33 -9 -63t-26 -54t-43 -40t-60 -22l163 -210h-112zM155 275h145q60 0 91 27t31 85q0 55 -30 84t-87 29h-150
v-225z" />
    <glyph glyph-name="Sacute.small" unicode="&#xf698;" horiz-adv-x="570" 
d="M265 254q-42 8 -77 20t-60 31t-39 48t-14 72q0 45 15 76t42.5 51t65 29t82.5 9q56 0 108.5 -8t116.5 -27l-21 -75q-38 9 -66.5 15t-52 9.5t-43 4.5t-39.5 1q-35 0 -57 -6.5t-34.5 -17t-17 -25t-4.5 -29.5q0 -29 14.5 -45.5t37.5 -26t51 -14.5t55 -11q42 -8 76 -21t59 -33
t38.5 -49t13.5 -69q0 -46 -18 -78.5t-48.5 -53.5t-71.5 -31t-87 -10q-57 0 -114 8t-121 27l21 75q76 -19 126.5 -24.5t90.5 -5.5q35 0 59.5 7.5t39.5 20t21.5 28.5t6.5 32q0 27 -13.5 43.5t-35 26t-49.5 15t-57 11.5zM317 640h-60l50 140h87z" />
    <glyph glyph-name="Scircumflex.small" unicode="&#xf69a;" horiz-adv-x="570" 
d="M265 254q-42 8 -77 20t-60 31t-39 48t-14 72q0 45 15 76t42.5 51t65 29t82.5 9q56 0 108.5 -8t116.5 -27l-21 -75q-38 9 -66.5 15t-52 9.5t-43 4.5t-39.5 1q-35 0 -57 -6.5t-34.5 -17t-17 -25t-4.5 -29.5q0 -29 14.5 -45.5t37.5 -26t51 -14.5t55 -11q42 -8 76 -21t59 -33
t38.5 -49t13.5 -69q0 -46 -18 -78.5t-48.5 -53.5t-71.5 -31t-87 -10q-57 0 -114 8t-121 27l21 75q76 -19 126.5 -24.5t90.5 -5.5q35 0 59.5 7.5t39.5 20t21.5 28.5t6.5 32q0 27 -13.5 43.5t-35 26t-49.5 15t-57 11.5zM297 699l-75 -69h-60l105 140h59l106 -140h-60z" />
    <glyph glyph-name="Scommaaccent.small" unicode="&#xf69b;" horiz-adv-x="570" 
d="M265 254q-42 8 -77 20t-60 31t-39 48t-14 72q0 45 15 76t42.5 51t65 29t82.5 9q56 0 108.5 -8t116.5 -27l-21 -75q-38 9 -66.5 15t-52 9.5t-43 4.5t-39.5 1q-35 0 -57 -6.5t-34.5 -17t-17 -25t-4.5 -29.5q0 -29 14.5 -45.5t37.5 -26t51 -14.5t55 -11q42 -8 76 -21t59 -33
t38.5 -49t13.5 -69q0 -46 -18 -78.5t-48.5 -53.5t-71.5 -31t-87 -10q-57 0 -114 8t-121 27l21 75q76 -19 126.5 -24.5t90.5 -5.5q35 0 59.5 7.5t39.5 20t21.5 28.5t6.5 32q0 27 -13.5 43.5t-35 26t-49.5 15t-57 11.5zM250 -250q5 26 10 52.5t10 52.5h-35v105h90v-105
l-45 -105h-30z" />
    <glyph glyph-name="Tcaron.small" unicode="&#xf69d;" horiz-adv-x="520" 
d="M305 500v-500h-90v500h-170v80h430v-80h-170zM334 780h60l-106 -140h-59l-105 140h60l75 -69z" />
    <glyph glyph-name="Tcommaaccent.small" unicode="&#xf69e;" horiz-adv-x="520" 
d="M305 500v-500h-90v500h-170v80h430v-80h-170zM230 -250q5 26 10 52.5t10 52.5h-35v105h90v-105l-45 -105h-30z" />
    <glyph glyph-name="Ubreve.small" unicode="&#xf69f;" 
d="M65 580h90v-345q0 -34 4.5 -64.5t19.5 -54t44 -37.5t79 -14q49 0 77.5 15t43 39t18.5 54.5t4 61.5v345h90v-345q0 -131 -59.5 -188t-175.5 -57q-57 0 -101 13t-74 41.5t-45 74t-15 111.5v350zM305 718q22 0 39.5 7t29.5 17.5t20 23.5t12 24h39q-9 -67 -45.5 -101
t-94.5 -34q-57 0 -93.5 34t-45.5 101h39q4 -11 12 -24t20 -23.5t29 -17.5t39 -7z" />
    <glyph glyph-name="Uhungarumlaut.small" unicode="&#xf6a0;" 
d="M65 580h90v-345q0 -34 4.5 -64.5t19.5 -54t44 -37.5t79 -14q49 0 77.5 15t43 39t18.5 54.5t4 61.5v345h90v-345q0 -131 -59.5 -188t-175.5 -57q-57 0 -101 13t-74 41.5t-45 74t-15 111.5v350zM253 640h-60l50 140h87zM423 640h-60l50 140h87z" />
    <glyph glyph-name="Umacron.small" unicode="&#xf6a1;" 
d="M65 580h90v-345q0 -34 4.5 -64.5t19.5 -54t44 -37.5t79 -14q49 0 77.5 15t43 39t18.5 54.5t4 61.5v345h90v-345q0 -131 -59.5 -188t-175.5 -57q-57 0 -101 13t-74 41.5t-45 74t-15 111.5v350zM457 730v-65h-310v65h310z" />
    <glyph glyph-name="Uring.small" unicode="&#xf6a3;" 
d="M65 580h90v-345q0 -34 4.5 -64.5t19.5 -54t44 -37.5t79 -14q49 0 77.5 15t43 39t18.5 54.5t4 61.5v345h90v-345q0 -131 -59.5 -188t-175.5 -57q-57 0 -101 13t-74 41.5t-45 74t-15 111.5v350zM210 730q0 38 26.5 64.5t64.5 26.5t64.5 -26.5t26.5 -64.5t-26.5 -64.5
t-64.5 -26.5t-64.5 26.5t-26.5 64.5zM246 730q0 -23 16 -39t39 -16t39 16t16 39t-16 39t-39 16t-39 -16t-16 -39z" />
    <glyph glyph-name="Utilde.small" unicode="&#xf6a4;" 
d="M65 580h90v-345q0 -34 4.5 -64.5t19.5 -54t44 -37.5t79 -14q49 0 77.5 15t43 39t18.5 54.5t4 61.5v345h90v-345q0 -131 -59.5 -188t-175.5 -57q-57 0 -101 13t-74 41.5t-45 74t-15 111.5v350zM243 690q-9 0 -16.5 -1t-16.5 -5t-20.5 -11.5t-26.5 -20.5l-29 23
q29 48 55 67.5t52 19.5q18 0 36 -6.5t35 -14.5t32 -14.5t28 -6.5q14 0 28.5 3t36.5 28l25 -28q-17 -34 -37.5 -53.5t-46.5 -19.5q-16 0 -33.5 6t-35 13.5t-34.5 14t-32 6.5z" />
    <glyph glyph-name="Wacute.small" unicode="&#xf6a5;" horiz-adv-x="900" 
d="M443 430l-118 -435h-113l-177 585h106l137 -466h1l117 466h103l127 -466h1l137 466h101l-177 -585h-123l-120 435h-2zM488 640h-60l50 140h87z" />
    <glyph glyph-name="Wcircumflex.small" unicode="&#xf6a6;" horiz-adv-x="900" 
d="M443 430l-118 -435h-113l-177 585h106l137 -466h1l117 466h103l127 -466h1l137 466h101l-177 -585h-123l-120 435h-2zM438 699l-75 -69h-60l105 140h59l106 -140h-60z" />
    <glyph glyph-name="Wdieresis.small" unicode="&#xf6a7;" horiz-adv-x="900" 
d="M443 430l-118 -435h-113l-177 585h106l137 -466h1l117 466h103l127 -466h1l137 466h101l-177 -585h-123l-120 435h-2zM355 660h-80v120h80v-120zM605 660h-80v120h80v-120z" />
    <glyph glyph-name="Wgrave.small" unicode="&#xf6a8;" horiz-adv-x="900" 
d="M443 430l-118 -435h-113l-177 585h106l137 -466h1l117 466h103l127 -466h1l137 466h101l-177 -585h-123l-120 435h-2zM328 780h88l50 -140h-60z" />
    <glyph glyph-name="Ycircumflex.small" unicode="&#xf6a9;" horiz-adv-x="580" 
d="M294 287l147 293h104l-210 -400v-180h-90v180l-210 400h109l148 -293h2zM296 699l-75 -69h-60l105 140h59l106 -140h-60z" />
    <glyph glyph-name="Ygrave.small" unicode="&#xf6aa;" horiz-adv-x="580" 
d="M294 287l147 293h104l-210 -400v-180h-90v180l-210 400h109l148 -293h2zM183 780h88l50 -140h-60z" />
    <glyph glyph-name="Zacute.small" unicode="&#xf6ab;" horiz-adv-x="520" 
d="M165 80h315v-80h-440v70l308 428v2h-288v80h410v-70l-305 -428v-2zM283 640h-60l50 140h87z" />
    <glyph glyph-name="Zdotaccent.small" unicode="&#xf6ac;" horiz-adv-x="520" 
d="M165 80h315v-80h-440v70l308 428v2h-288v80h410v-70l-305 -428v-2zM220 780h80v-120h-80v120z" />
    <glyph glyph-name="Idotaccent.small" unicode="&#xf6ad;" horiz-adv-x="220" 
d="M65 0v580h90v-580h-90zM70 780h80v-120h-80v120z" />
    <glyph glyph-name="dotlessj" unicode="&#xf6be;" horiz-adv-x="240" 
d="M95 500h90v-572q0 -71 -31.5 -104.5t-113.5 -33.5q-37 0 -80 8l9 70q16 -3 28 -4t23 -1q43 0 59 15.5t16 57.5v564z" />
    <glyph glyph-name="commaaccent" unicode="&#xf6c3;" horiz-adv-x="230" 
d="M70 -250q5 26 10 52.5t10 52.5h-35v105h90v-105l-45 -105h-30z" />
    <glyph glyph-name="Acute" unicode="&#xf6c9;" horiz-adv-x="290" 
d="M128 730h-60l50 140h87z" />
    <glyph glyph-name="Caron" unicode="&#xf6ca;" horiz-adv-x="420" 
d="M285 870h60l-106 -140h-59l-105 140h60l75 -69z" />
    <glyph glyph-name="Dieresis" unicode="&#xf6cb;" horiz-adv-x="480" 
d="M155 750h-80v120h80v-120zM405 750h-80v120h80v-120z" />
    <glyph glyph-name="DieresisAcute" unicode="&#xf6cc;" horiz-adv-x="630" 
d="M395 920l-97 -170h-50l65 170h82zM155 870v-120h-80v120h80zM535 870v-120h-80v120h80z" />
    <glyph glyph-name="DieresisGrave" unicode="&#xf6cd;" horiz-adv-x="630" 
d="M307 750l-98 170h83l65 -170h-50zM535 870v-120h-80v120h80zM155 870v-120h-80v120h80z" />
    <glyph glyph-name="Grave" unicode="&#xf6ce;" horiz-adv-x="290" 
d="M160 730l-78 140h88l50 -140h-60v0z" />
    <glyph glyph-name="Hungarumlaut" unicode="&#xf6cf;" horiz-adv-x="460" 
d="M205 870l-77 -140h-60l50 140h87zM375 870l-77 -140h-60l50 140h87z" />
    <glyph glyph-name="Macron" unicode="&#xf6d0;" horiz-adv-x="440" 
d="M375 820v-65h-310v65h310z" />
    <glyph glyph-name="cyrBreve" unicode="&#xf6d1;" horiz-adv-x="408" 
d="M204 808q22 0 39.5 7t29.5 17.5t20 23.5t12 24h39q-9 -67 -45.5 -101t-94.5 -34q-57 0 -93.5 34t-45.5 101h39q4 -11 12 -24t20 -23.5t29 -17.5t39 -7z" />
    <glyph glyph-name="cyrFlex" unicode="&#xf6d2;" horiz-adv-x="420" 
d="M210 799l-75 -69h-60l105 140h59l106 -140h-60z" />
    <glyph glyph-name="dblGrave" unicode="&#xf6d3;" horiz-adv-x="460" 
d="M331 730l-78 140h88l50 -140h-60zM161 730l-78 140h88l50 -140h-60z" />
    <glyph glyph-name="cyrbreve" unicode="&#xf6d4;" horiz-adv-x="408" 
d="M204 638q22 0 39.5 7t29.5 17.5t20 23.5t12 24h39q-9 -67 -45.5 -101t-94.5 -34q-57 0 -93.5 34t-45.5 101h39q4 -11 12 -24t20 -23.5t29 -17.5t39 -7z" />
    <glyph glyph-name="cyrflex" unicode="&#xf6d5;" horiz-adv-x="420" 
d="M210 629l-75 -69h-60l105 140h59l106 -140h-60z" />
    <glyph glyph-name="dblgrave" unicode="&#xf6d6;" horiz-adv-x="460" 
d="M253 700h88l50 -140h-60zM83 700h88l50 -140h-60z" />
    <glyph glyph-name="dieresisacute" unicode="&#xf6d7;" horiz-adv-x="630" 
d="M298 580h-50l65 170h82zM155 700v-120h-80v120h80zM535 700v-120h-80v120h80z" />
    <glyph glyph-name="dieresisgrave" unicode="&#xf6d8;" horiz-adv-x="630" 
d="M209 750h83l65 -170h-50zM535 700v-120h-80v120h80zM155 700v-120h-80v120h80z" />
    <glyph glyph-name="rupiah" unicode="&#xf6dd;" horiz-adv-x="1170" 
d="M775 450h2q26 26 62 43t81 17q51 0 87.5 -20t60.5 -55.5t35.5 -83t11.5 -101.5t-12.5 -101.5t-37 -83t-62 -55.5t-88.5 -20q-43 0 -77.5 15.5t-60.5 41.5h-2v-247h-90v200h-229l-161 265h-145v-265h-95v680h275q51 0 90.5 -15.5t67.5 -43.5t42.5 -66t14.5 -83
q0 -72 -39 -124t-112 -68l135 -215h156v435h90v-50zM1020 250q0 36 -6.5 69t-22 59t-40.5 41.5t-61 15.5q-42 0 -71 -15t-44 -28v-285q15 -12 44 -27t71 -15q36 0 61 15.5t40.5 41.5t22 59t6.5 69zM150 350h165q56 0 94 30t38 92q0 59 -35 91t-92 32h-170v-245z" />
    <glyph glyph-name="threequartersemdash" unicode="&#xf6de;" horiz-adv-x="700" 
d="M645 303v-76h-590v76h590z" />
    <glyph glyph-name="centinferior" unicode="&#xf6df;" horiz-adv-x="356" 
d="M199 95q-27 0 -46.5 -10t-31.5 -27t-17.5 -40t-5.5 -50t5.5 -51t17.5 -42.5t31.5 -29t46.5 -10.5q23 0 47 8.5t48 27.5l17 -38q-14 -12 -43.5 -27.5t-76.5 -15.5q-38 0 -65.5 14t-45.5 38.5t-26.5 57t-8.5 68.5t8.5 67t26.5 54.5t45.5 37t65.5 13.5q47 0 76.5 -15.5
t43.5 -26.5l-17 -39q-24 19 -48 27.5t-47 8.5zM178 -290v60h27v-60h-27zM178 160v60h27v-60h-27z" />
    <glyph glyph-name="centsuperior" unicode="&#xf6e0;" horiz-adv-x="356" 
d="M199 835q-27 0 -46.5 -10t-31.5 -27t-17.5 -40t-5.5 -50t5.5 -51t17.5 -42.5t31.5 -29t46.5 -10.5q23 0 47 8.5t48 27.5l17 -38q-14 -12 -43.5 -27.5t-76.5 -15.5q-38 0 -65.5 14t-45.5 38.5t-26.5 57t-8.5 68.5t8.5 67t26.5 54.5t45.5 37t65.5 13.5q47 0 76.5 -15.5
t43.5 -26.5l-17 -39q-24 19 -48 27.5t-47 8.5zM178 450v60h27v-60h-27zM178 900v60h27v-60h-27z" />
    <glyph glyph-name="commainferior" unicode="&#xf6e1;" horiz-adv-x="158" 
d="M113 -134q0 -30 -4 -66t-24 -65h-40q14 29 17 65t3 66h48z" />
    <glyph glyph-name="commasuperior" unicode="&#xf6e2;" horiz-adv-x="158" 
d="M113 606q0 -30 -4 -66t-24 -65h-40q14 29 17 65t3 66h48z" />
    <glyph glyph-name="dollarinferior" unicode="&#xf6e3;" horiz-adv-x="341" 
d="M173 -165q32 0 51.5 13.5t19.5 39.5q0 15 -9 25t-22.5 16.5t-28 10t-24.5 6.5q-21 6 -40 14.5t-33.5 21t-23 29.5t-8.5 38q0 24 9.5 41.5t25.5 28.5t37.5 16t45.5 5q35 0 65 -8.5t51 -21.5l-20 -39q-26 14 -50.5 19t-45.5 5q-31 0 -48 -10.5t-17 -35.5q0 -14 9 -24.5
t22.5 -17.5t28.5 -11t26 -7q21 -5 39.5 -12.5t33 -19t22.5 -28t8 -38.5q0 -26 -10 -44.5t-27 -31.5t-40 -19t-50 -6q-35 0 -69 10.5t-56 27.5l23 36q22 -14 51.5 -21.5t53.5 -7.5zM161 -290v60h27v-60h-27zM161 160v60h27v-60h-27z" />
    <glyph glyph-name="dollarsuperior" unicode="&#xf6e4;" horiz-adv-x="341" 
d="M173 575q32 0 51.5 13.5t19.5 39.5q0 15 -9 25t-22.5 16.5t-28 10t-24.5 6.5q-21 6 -40 14.5t-33.5 21t-23 29.5t-8.5 38q0 24 9.5 41.5t25.5 28.5t37.5 16t45.5 5q35 0 65 -8.5t51 -21.5l-20 -39q-26 14 -50.5 19t-45.5 5q-31 0 -48 -10.5t-17 -35.5q0 -14 9 -24.5
t22.5 -17.5t28.5 -11t26 -7q21 -5 39.5 -12.5t33 -19t22.5 -28t8 -38.5q0 -26 -10 -44.5t-27 -31.5t-40 -19t-50 -6q-35 0 -69 10.5t-56 27.5l23 36q22 -14 51.5 -21.5t53.5 -7.5zM161 450v60h27v-60h-27zM161 900v60h27v-60h-27z" />
    <glyph glyph-name="hypheninferior" unicode="&#xf6e5;" horiz-adv-x="286" 
d="M242 0v-40h-197v40h197z" />
    <glyph glyph-name="hyphensuperior" unicode="&#xf6e6;" horiz-adv-x="286" 
d="M242 740v-40h-197v40h197z" />
    <glyph glyph-name="periodinferior" unicode="&#xf6e7;" horiz-adv-x="137" 
d="M45 -134h47v-66h-47v66z" />
    <glyph glyph-name="periodsuperior" unicode="&#xf6e8;" horiz-adv-x="137" 
d="M45 606h47v-66h-47v66z" />
    <glyph glyph-name="asuperior" unicode="&#xf6e9;" horiz-adv-x="295" 
d="M61 675q26 5 51 7.5t46 2.5q45 0 68.5 -16.5t23.5 -65.5v-173h-45v25h-1q-18 -16 -36 -23t-43 -7q-38 0 -59 20.5t-21 53.5q0 42 30.5 59t74.5 17h55v25q0 25 -13 36.5t-44 11.5q-14 0 -33 -2t-47 -8zM205 548h-52q-35 0 -49 -12t-14 -33q0 -20 14 -31.5t39 -11.5
q21 0 37.5 7.5t24.5 14.5v66z" />
    <glyph glyph-name="bsuperior" unicode="&#xf6ea;" horiz-adv-x="305" 
d="M90 656h1q14 14 34 22t43 8q26 0 44 -10t28.5 -27.5t15 -41.5t4.5 -51t-5 -50.5t-16.5 -41.5t-29.5 -28t-44 -10q-21 0 -41.5 7.5t-34.5 21.5h-1l-8 -25h-35v351h45v-125zM213 556q0 19 -3 35.5t-10 29.5t-19.5 20.5t-30.5 7.5q-20 0 -36 -7.5t-24 -14.5v-142
q8 -6 24 -13.5t36 -7.5q18 0 30.5 7.5t19.5 20t10 29t3 35.5z" />
    <glyph glyph-name="dsuperior" unicode="&#xf6eb;" horiz-adv-x="305" 
d="M215 455h-1q-14 -13 -34 -21.5t-42 -8.5q-26 0 -44 10t-29 28t-15.5 41.5t-4.5 50.5t5 51t16 41.5t29.5 27.5t44.5 10q45 0 74 -29h1v124h45v-350h-45v25zM93 555q0 -19 3 -35.5t10 -29t19 -20t30 -7.5q21 0 36.5 7.5t23.5 13.5v142q-8 7 -23.5 14.5t-36.5 7.5
q-18 0 -30 -7.5t-19 -20.5t-10 -29.5t-3 -35.5z" />
    <glyph glyph-name="esuperior" unicode="&#xf6ec;" horiz-adv-x="314" 
d="M94 548q1 -38 19 -61.5t63 -23.5q19 0 37.5 1.5t40.5 8.5l6 -37q-23 -6 -44 -8.5t-46 -2.5q-69 0 -97 36t-28 94t27.5 94t95.5 36q38 0 59.5 -12.5t31 -32.5t10 -44.5t-3.5 -47.5h-171zM165 650q-38 0 -53.5 -21t-17.5 -53h129q2 14 0.5 27t-8 23.5t-18.5 17t-32 6.5z
" />
    <glyph glyph-name="isuperior" unicode="&#xf6ed;" horiz-adv-x="135" 
d="M45 680h45v-250h-45v250zM45 780h45v-62h-45v62z" />
    <glyph glyph-name="lsuperior" unicode="&#xf6ee;" horiz-adv-x="135" 
d="M45 780h45v-350h-45v350z" />
    <glyph glyph-name="msuperior" unicode="&#xf6ef;" horiz-adv-x="450" 
d="M90 430h-45v250h45v-35h1q15 16 35.5 28t46.5 12q53 0 68 -44q18 20 40.5 32t48.5 12q38 0 56.5 -21.5t18.5 -60.5v-173h-45v163q0 23 -11.5 39t-38.5 16q-20 0 -36 -10.5t-28 -19.5q1 -6 1.5 -13t0.5 -14v-161h-45v164q0 23 -12 38.5t-38 15.5q-20 0 -36 -10t-27 -19
v-189z" />
    <glyph glyph-name="osuperior" unicode="&#xf6f0;" horiz-adv-x="320" 
d="M160 643q-39 0 -53 -26.5t-14 -66.5q0 -39 14 -65.5t53 -26.5t53.5 26.5t14.5 65.5q0 40 -14.5 66.5t-53.5 26.5zM160 420q-63 0 -89 36t-26 94q0 59 26 94.5t89 35.5t89 -35.5t26 -94.5q0 -58 -26 -94t-89 -36z" />
    <glyph glyph-name="rsuperior" unicode="&#xf6f1;" horiz-adv-x="230" 
d="M90 430h-45v250h45v-40h1q15 17 39.5 31t54.5 14v-42q-28 0 -54 -9.5t-41 -19.5v-184z" />
    <glyph glyph-name="ssuperior" unicode="&#xf6f2;" horiz-adv-x="290" 
d="M148 462q17 0 27.5 4.5t16 10.5t7 12t1.5 10q0 12 -11.5 21t-44.5 16q-40 7 -67 23.5t-27 55.5q0 36 24 53t69 17q29 0 53 -3t47 -8l-8 -36q-30 8 -53 9.5t-37 1.5q-17 0 -27 -4t-15 -9t-6.5 -11t-1.5 -9q0 -12 10 -21t44 -17q19 -4 36.5 -9.5t31 -13.5t21 -21t7.5 -32
q0 -38 -23.5 -57.5t-68.5 -19.5q-29 0 -57 3t-51 9l8 36q30 -8 55.5 -9.5t39.5 -1.5z" />
    <glyph glyph-name="tsuperior" unicode="&#xf6f3;" horiz-adv-x="245" 
d="M83 648h-38v29l38 3l5 70h40v-70h70v-32h-70v-138q0 -21 9 -35t33 -14q9 0 26 3l4 -35q-10 -1 -21 -2.5t-21 -1.5q-37 0 -56 17t-19 61v145z" />
    <glyph glyph-name="Brevesmall" unicode="&#xf6f4;" horiz-adv-x="408" 
d="M204 718q22 0 39.5 7t29.5 17.5t20 23.5t12 24h39q-9 -67 -45.5 -101t-94.5 -34q-57 0 -93.5 34t-45.5 101h39q4 -11 12 -24t20 -23.5t29 -17.5t39 -7z" />
    <glyph glyph-name="Caronsmall" unicode="&#xf6f5;" horiz-adv-x="420" 
d="M285 780h60l-106 -140h-59l-105 140h60l75 -69z" />
    <glyph glyph-name="Circumflexsmall" unicode="&#xf6f6;" horiz-adv-x="420" 
d="M210 699l-75 -69h-60l105 140h59l106 -140h-60z" />
    <glyph glyph-name="Dotaccentsmall" unicode="&#xf6f7;" horiz-adv-x="250" 
d="M75 780h80v-120h-80v120z" />
    <glyph glyph-name="Hungarumlautsmall" unicode="&#xf6f8;" horiz-adv-x="460" 
d="M128 640h-60l50 140h87zM298 640h-60l50 140h87z" />
    <glyph glyph-name="Lslashsmall" unicode="&#xf6f9;" horiz-adv-x="500" 
d="M455 80v-80h-390v259l-70 -17v56l70 16v266h90v-244l110 27v-56l-110 -26v-201h300z" />
    <glyph glyph-name="OEsmall" unicode="&#xf6fa;" horiz-adv-x="956" 
d="M901 80v-80h-400v40q-32 -25 -75 -37.5t-101 -12.5q-74 0 -125.5 21t-83.5 60.5t-46.5 96t-14.5 127.5q0 70 14.5 125t46.5 93t83.5 57.5t125.5 19.5q58 0 101 -12.5t75 -35.5v38h395v-80h-305v-165h260v-80h-260v-175h310zM325 515q-55 0 -89.5 -17t-53.5 -46.5
t-25.5 -69.5t-6.5 -87t6.5 -88.5t25.5 -73t53.5 -50t89.5 -18.5t89.5 18.5t53.5 50t25.5 73t6.5 88.5t-6.5 87t-25.5 69.5t-53.5 46.5t-89.5 17z" />
    <glyph glyph-name="Ogoneksmall" unicode="&#xf6fb;" horiz-adv-x="314" 
d="M252 -181q-17 -14 -41.5 -21.5t-48.5 -7.5q-18 0 -34.5 6t-28.5 17t-19.5 26t-7.5 33q0 36 24 69t62 59h46q-30 -23 -50 -53.5t-20 -56.5t15 -40t43 -14q20 0 32.5 6t23.5 11z" />
    <glyph glyph-name="Ringsmall" unicode="&#xf6fc;" horiz-adv-x="300" 
d="M59 730q0 38 26.5 64.5t64.5 26.5t64.5 -26.5t26.5 -64.5t-26.5 -64.5t-64.5 -26.5t-64.5 26.5t-26.5 64.5zM95 730q0 -23 16 -39t39 -16t39 16t16 39t-16 39t-39 16t-39 -16t-16 -39z" />
    <glyph glyph-name="Scaronsmall" unicode="&#xf6fd;" horiz-adv-x="570" 
d="M265 254q-42 8 -77 20t-60 31t-39 48t-14 72q0 45 15 76t42.5 51t65 29t82.5 9q56 0 108.5 -8t116.5 -27l-21 -75q-38 9 -66.5 15t-52 9.5t-43 4.5t-39.5 1q-35 0 -57 -6.5t-34.5 -17t-17 -25t-4.5 -29.5q0 -29 14.5 -45.5t37.5 -26t51 -14.5t55 -11q42 -8 76 -21t59 -33
t38.5 -49t13.5 -69q0 -46 -18 -78.5t-48.5 -53.5t-71.5 -31t-87 -10q-57 0 -114 8t-121 27l21 75q76 -19 126.5 -24.5t90.5 -5.5q35 0 59.5 7.5t39.5 20t21.5 28.5t6.5 32q0 27 -13.5 43.5t-35 26t-49.5 15t-57 11.5zM372 780h60l-106 -140h-59l-105 140h60l75 -69z" />
    <glyph glyph-name="Tildesmall" unicode="&#xf6fe;" horiz-adv-x="450" 
d="M171 690q-9 0 -16.5 -1t-16.5 -5t-20.5 -11.5t-26.5 -20.5l-29 23q29 48 55 67.5t52 19.5q18 0 36 -6.5t35 -14.5t32 -14.5t28 -6.5q14 0 28.5 3t36.5 28l25 -28q-17 -34 -37.5 -53.5t-46.5 -19.5q-16 0 -33.5 6t-35 13.5t-34.5 14t-32 6.5z" />
    <glyph glyph-name="Zcaronsmall" unicode="&#xf6ff;" horiz-adv-x="520" 
d="M165 80h315v-80h-440v70l308 428v2h-288v80h410v-70l-305 -428v-2zM345 780h60l-106 -140h-59l-105 140h60l75 -69z" />
    <glyph glyph-name="exclamsmall" unicode="&#xf721;" horiz-adv-x="200" 
d="M55 130h90v-130h-90v130zM55 600h90l-5 -380h-80z" />
    <glyph glyph-name="dollaroldstyle" unicode="&#xf724;" horiz-adv-x="555" 
d="M478 138q0 -35 -14.5 -62.5t-39.5 -46.5t-59 -29t-73 -10q-58 0 -115.5 10.5t-99.5 27.5l17 67q54 -19 102 -25.5t86 -6.5q33 0 53.5 8t32 19.5t15.5 23t4 18.5q0 12 -5 23.5t-17.5 22t-34.5 19t-55 14.5q-40 7 -74 18.5t-59.5 29.5t-40 45t-14.5 66q0 36 14.5 62
t39.5 43.5t59 26t72 8.5q59 0 109 -10.5t91 -27.5l-16 -67q-57 19 -99 25.5t-80 6.5q-32 0 -51 -8t-30 -18.5t-14.5 -21.5t-3.5 -17q0 -12 4 -22.5t15.5 -20t32.5 -18t54 -15.5q39 -8 74.5 -19t62 -29t42 -44.5t15.5 -65.5zM252 -130v100h50v-100h-50zM252 530v100h50v-100
h-50z" />
    <glyph glyph-name="ampersandsmall" unicode="&#xf726;" horiz-adv-x="905" 
d="M615 235h-463q5 -76 46 -123t119 -47q41 0 76 8.5t75 23.5l12 -70q-44 -19 -84 -28t-91 -9q-57 0 -103.5 19t-79 53t-50 82t-17.5 106t17 106t49 82t77.5 53t101.5 19q59 0 97.5 -19.5t60.5 -50t30.5 -67t8.5 -70.5v-11h118l11 208h79v-208h140v-57h-140v-85
q0 -43 16 -65.5t69 -22.5q11 0 23 1.5l28 3.5l9 -69q-20 -4 -46 -6t-44 -2q-77 0 -111 35t-34 120v90zM295 440q-32 0 -57 -11.5t-43.5 -31t-29 -47t-13.5 -58.5h256q4 27 0.5 53.5t-16.5 47.5t-36.5 34t-60.5 13z" />
    <glyph glyph-name="zerooldstyle" unicode="&#xf730;" horiz-adv-x="590" 
d="M295 435q-36 0 -63 -14t-45 -39t-27.5 -59t-9.5 -73t9.5 -73t27.5 -59t45 -39t63 -14q35 0 62 14t45.5 39t28 59t9.5 73t-9.5 73t-28 59t-45.5 39t-62 14zM295 -10q-57 0 -102 19t-75.5 53t-46.5 82t-16 106t16 106t46.5 82t75.5 53t102 19t101.5 -19t75.5 -53t47 -82
t16 -106t-16 -106t-47 -82t-75.5 -53t-101.5 -19z" />
    <glyph glyph-name="oneoldstyle" unicode="&#xf731;" horiz-adv-x="410" 
d="M88 315l-34 70q60 26 118.5 57.5t97.5 62.5h65v-505h-90v397z" />
    <glyph glyph-name="twooldstyle" unicode="&#xf732;" horiz-adv-x="590" 
d="M285 427q-37 0 -87 -9t-101 -30l-22 77q55 22 110 33.5t115 11.5q96 0 150.5 -44.5t54.5 -118.5q0 -57 -28 -98.5t-72 -72.5t-98 -54.5t-105 -44.5v-2l313 5v-80h-440v87q93 39 157 70t103.5 59t57 54.5t17.5 56.5q0 31 -13 50.5t-32.5 30.5t-41 15t-38.5 4z" />
    <glyph glyph-name="threeoldstyle" unicode="&#xf733;" horiz-adv-x="570" 
d="M272 435q-47 0 -87.5 -10.5t-85.5 -31.5l-28 69q53 26 108 37t109 11q46 0 84.5 -12t65.5 -34.5t42 -55.5t15 -76q0 -62 -36.5 -102.5t-92.5 -58.5v-2q72 -14 110.5 -60t38.5 -109q0 -91 -60 -140.5t-177 -49.5q-61 0 -116 10.5t-107 37.5l28 69q45 -22 92 -32t97 -10
q49 0 78.5 13t45.5 31.5t21 39t5 36.5q0 54 -39 85.5t-123 31.5h-85v76h81q40 0 68.5 11t46.5 28.5t26 39.5t8 45q0 17 -5.5 36.5t-20 36.5t-40.5 28.5t-67 11.5z" />
    <glyph glyph-name="fouroldstyle" unicode="&#xf734;" 
d="M360 75v330h-2q-46 -90 -101.5 -173.5t-118.5 -156.5h222zM450 505v-430h95v-75h-95v-170h-90v170h-315v75q83 91 160.5 200t131.5 230h113z" />
    <glyph glyph-name="fiveoldstyle" unicode="&#xf735;" horiz-adv-x="570" 
d="M270 -190q-60 0 -110 12t-105 38l27 70q54 -26 96 -35.5t87 -9.5q70 0 112.5 41t42.5 109q0 25 -7 50.5t-23 46t-42 33t-63 12.5q-79 0 -130 -66l-66 6l16 383h370v-80h-292l-14 -228l2 -1q26 27 63 45.5t82 18.5q91 0 145 -56t54 -159q0 -112 -66 -171t-179 -59z" />
    <glyph glyph-name="sixoldstyle" unicode="&#xf736;" horiz-adv-x="570" 
d="M147 367q29 39 70.5 63.5t89.5 24.5q98 0 153 -61t55 -174q0 -54 -17 -96.5t-46.5 -72.5t-70 -45.5t-88.5 -15.5q-68 0 -114 26t-73.5 69.5t-39 99t-11.5 115.5q0 112 22.5 187t61.5 120t90.5 64t109.5 19q49 0 84.5 -7.5t70.5 -18.5l-12 -69q-41 11 -72 15.5t-64 4.5
q-53 0 -91 -23.5t-62.5 -60t-36 -80t-11.5 -83.5zM152 296q0 -8 -0.5 -17t-0.5 -17q0 -39 6 -74.5t21.5 -62.5t41.5 -43.5t67 -16.5q27 0 51 10t42 29.5t29 48.5t11 67q0 25 -5.5 53t-20.5 50.5t-41.5 37.5t-68.5 15q-41 0 -74.5 -23t-57.5 -57z" />
    <glyph glyph-name="sevenoldstyle" unicode="&#xf737;" horiz-adv-x="500" 
d="M356 420h-311v80h410v-65q-37 -62 -75.5 -132.5t-72 -147.5t-60.5 -161t-42 -174h-100q11 71 37 151t60.5 159.5t74.5 154t79 133.5v2z" />
    <glyph glyph-name="eightoldstyle" unicode="&#xf738;" horiz-adv-x="590" 
d="M306 392q24 9 46 20t38 25.5t25.5 33t9.5 41.5q0 31 -12.5 52t-32 34t-43 18.5t-45.5 5.5q-20 0 -42.5 -5.5t-41 -17.5t-31 -32t-12.5 -50q0 -26 11.5 -45.5t31 -35t45 -26.5t53.5 -18zM282 311q-25 -9 -49 -21t-43 -28t-30.5 -36.5t-11.5 -47.5q0 -23 8 -44.5
t25.5 -38.5t46 -27t70.5 -10q40 0 68 9.5t44.5 25t24 35.5t7.5 42q0 31 -14.5 53t-38 38t-52 27.5t-55.5 22.5zM292 -10q-52 0 -95.5 11t-75 33.5t-49 56t-17.5 78.5q0 34 12 61t33 48.5t50 38t63 28.5v2q-30 13 -55.5 29t-44 36t-28.5 46t-10 58q0 42 17.5 74.5t47.5 54.5
t70.5 33.5t87.5 11.5q44 0 83.5 -11t69 -33t47 -53.5t17.5 -72.5q0 -31 -10 -54.5t-28 -42.5t-43.5 -34.5t-57.5 -29.5v-2q35 -15 64.5 -32.5t50.5 -39t32.5 -48t11.5 -59.5q0 -46 -18 -81t-50 -59t-76.5 -36t-98.5 -12z" />
    <glyph glyph-name="nineoldstyle" unicode="&#xf739;" horiz-adv-x="570" 
d="M423 133q-29 -40 -70.5 -64t-90.5 -24q-97 0 -152 61t-55 174q0 54 16.5 96.5t46.5 72.5t70.5 45.5t88.5 15.5q68 0 114 -26t73.5 -69.5t39 -99t11.5 -115.5q0 -113 -22.5 -188t-61.5 -120t-90.5 -63.5t-109.5 -18.5q-49 0 -84.5 7.5t-70.5 18.5l11 69q41 -11 72.5 -15.5
t63.5 -4.5q53 0 91 23.5t62.5 60t36 80t12.5 83.5zM417 203q1 9 1 17.5v16.5q0 39 -6 75t-21.5 63.5t-42 43.5t-66.5 16q-27 0 -51 -10t-42 -29.5t-28.5 -48.5t-10.5 -67q0 -26 5.5 -53.5t20.5 -50.5t41.5 -38t68.5 -15q41 0 74 23t57 57z" />
    <glyph glyph-name="questionsmall" unicode="&#xf73f;" horiz-adv-x="500" 
d="M250 610q52 0 89 -11t60 -30t34 -45t11 -55q0 -38 -13.5 -64t-34 -44t-44.5 -31t-44.5 -26.5t-34 -29.5t-13.5 -39v-25h-80v30q0 37 12.5 59t32 36.5t41.5 24t41.5 20.5t32 27.5t12.5 44.5q0 27 -14 43t-33.5 23.5t-40 9.5t-34.5 2q-25 0 -66 -8.5t-88 -27.5l-21 67
q39 19 91.5 34t103.5 15zM265 130v-130h-90v130h90z" />
    <glyph glyph-name="Gravesmall" unicode="&#xf760;" horiz-adv-x="290" 
d="M82 780h88l50 -140h-60z" />
    <glyph glyph-name="Asmall" unicode="&#xf761;" horiz-adv-x="610" 
d="M469 0l-51 140h-230l-53 -140h-100l219 585h107l214 -585h-106zM304 467l-96 -252h190l-93 252h-1z" />
    <glyph glyph-name="Bsmall" unicode="&#xf762;" horiz-adv-x="570" 
d="M155 260v-180h155q57 0 88.5 20.5t31.5 69.5q0 47 -33 68.5t-97 21.5h-145zM155 500v-170h135q26 0 48 4t38 14t25 27t9 42q0 83 -115 83h-140zM394 299q57 -8 94 -44.5t37 -99.5q0 -79 -51 -117t-149 -38h-260v580h255q91 0 138 -37.5t47 -107.5q0 -58 -31 -90.5
t-80 -43.5v-2z" />
    <glyph glyph-name="Csmall" unicode="&#xf763;" horiz-adv-x="580" 
d="M55 292q0 72 15 127.5t48 93.5t86.5 57.5t130.5 19.5q66 0 117 -10.5t93 -24.5l-22 -75q-57 17 -100.5 23.5t-84.5 6.5q-53 0 -88.5 -14.5t-58 -42t-32 -68.5t-9.5 -93q0 -54 9.5 -95.5t32 -69.5t58 -42.5t88.5 -14.5q41 0 84.5 6.5t100.5 23.5l22 -75q-42 -14 -93 -24.5
t-117 -10.5q-77 0 -130.5 20t-86.5 58t-48 94.5t-15 129.5z" />
    <glyph glyph-name="Dsmall" unicode="&#xf764;" horiz-adv-x="610" 
d="M65 0v580h220q142 0 206 -73t64 -212q0 -141 -64 -218t-206 -77h-220zM280 80q52 0 87 14.5t55.5 42.5t29 67.5t8.5 90.5t-8.5 89t-29 64t-55.5 39t-87 13h-125v-420h125z" />
    <glyph glyph-name="Esmall" unicode="&#xf765;" horiz-adv-x="520" 
d="M465 80v-80h-400v580h395v-80h-305v-165h260v-80h-260v-175h310z" />
    <glyph glyph-name="Fsmall" unicode="&#xf766;" horiz-adv-x="495" 
d="M65 0v580h385v-80h-295v-185h250v-80h-250v-235h-90z" />
    <glyph glyph-name="Gsmall" unicode="&#xf767;" 
d="M338 70q27 0 51 3t61 12v155h-110v65h200v-280q-39 -14 -89 -24.5t-116 -10.5q-77 0 -130.5 20t-86.5 58t-48 94.5t-15 129.5q0 72 15 127.5t48 93.5t86.5 57.5t130.5 19.5q66 0 117 -10.5t93 -24.5l-22 -75q-57 17 -100.5 23.5t-84.5 6.5q-53 0 -88.5 -14.5t-58 -42
t-32 -68.5t-9.5 -93q0 -54 9.5 -95.5t32 -69.5t58 -42.5t88.5 -14.5z" />
    <glyph glyph-name="Hsmall" unicode="&#xf768;" 
d="M155 255v-255h-90v580h90v-245h290v245h90v-580h-90v255h-290z" />
    <glyph glyph-name="Ismall" unicode="&#xf769;" horiz-adv-x="220" 
d="M65 0v580h90v-580h-90z" />
    <glyph glyph-name="Jsmall" unicode="&#xf76a;" horiz-adv-x="335" 
d="M175 580h95v-409q0 -50 -11 -84.5t-31.5 -56t-50.5 -31t-67 -9.5q-50 0 -93 8l9 80q17 -3 30.5 -4t28.5 -1q45 0 67.5 23t22.5 80v404z" />
    <glyph glyph-name="Ksmall" unicode="&#xf76b;" horiz-adv-x="588" 
d="M261 276l-106 -114v-162h-90v580h90v-292l278 292h112l-219 -238l224 -342h-114z" />
    <glyph glyph-name="Lsmall" unicode="&#xf76c;" horiz-adv-x="500" 
d="M455 80v-80h-390v580h90v-500h300z" />
    <glyph glyph-name="Msmall" unicode="&#xf76d;" horiz-adv-x="760" 
d="M384 148l186 432h125v-580h-90v431h-2l-190 -431h-71l-187 431h-2v-431h-88v580h125l192 -432h2z" />
    <glyph glyph-name="Nsmall" unicode="&#xf76e;" horiz-adv-x="610" 
d="M450 0l-295 427h-2v-427h-88v580h95l295 -427h2v427h88v-580h-95z" />
    <glyph glyph-name="Osmall" unicode="&#xf76f;" horiz-adv-x="650" 
d="M325 515q-55 0 -89.5 -17t-53.5 -46.5t-25.5 -69.5t-6.5 -87t6.5 -88.5t25.5 -73t53.5 -50t89.5 -18.5t89.5 18.5t53.5 50t25.5 73t6.5 88.5t-6.5 87t-25.5 69.5t-53.5 46.5t-89.5 17zM325 -10q-74 0 -125.5 21t-83.5 60.5t-46.5 96t-14.5 127.5q0 70 14.5 125t46.5 93
t83.5 57.5t125.5 19.5t125.5 -19.5t83.5 -57.5t46.5 -93t14.5 -125q0 -71 -14.5 -127.5t-46.5 -96t-83.5 -60.5t-125.5 -21z" />
    <glyph glyph-name="Psmall" unicode="&#xf770;" horiz-adv-x="560" 
d="M155 195v-195h-90v580h240q102 0 156 -51t54 -142q0 -94 -54 -143t-156 -49h-150zM155 275h145q57 0 89.5 27t32.5 85q0 55 -32.5 84t-89.5 29h-145v-225z" />
    <glyph glyph-name="Qsmall" unicode="&#xf771;" horiz-adv-x="650" 
d="M325 65q53 0 87 17.5t53.5 48.5t27 73t7.5 91q0 47 -6.5 87t-25.5 69.5t-53.5 46.5t-89.5 17q-56 0 -90 -17t-53 -46.5t-25.5 -69.5t-6.5 -87t6.5 -88.5t25.5 -73t53 -50t90 -18.5zM305 -9q-69 3 -117 25t-77.5 61t-42.5 94t-13 124q0 70 14.5 125t46.5 92.5t83.5 57.5
t125.5 20t125.5 -20t83.5 -57.5t46.5 -92.5t14.5 -125q0 -138 -54 -207t-164 -76v-2q23 -19 60.5 -28t85.5 -9q27 0 57 3v-76q-17 -2 -33 -3t-31 -1q-74 0 -127 23t-84 72z" />
    <glyph glyph-name="Rsmall" unicode="&#xf772;" horiz-adv-x="575" 
d="M425 0l-147 195h-123v-195h-90v580h240q51 0 89.5 -14t64.5 -39.5t39.5 -60.5t13.5 -77q0 -33 -9 -63t-26 -54t-43 -40t-60 -22l163 -210h-112zM155 275h145q60 0 91 27t31 85q0 55 -30 84t-87 29h-150v-225z" />
    <glyph glyph-name="Ssmall" unicode="&#xf773;" horiz-adv-x="570" 
d="M265 254q-42 8 -77 20t-60 31t-39 48t-14 72q0 45 15 76t42.5 51t65 29t82.5 9q56 0 108.5 -8t116.5 -27l-21 -75q-38 9 -66.5 15t-52 9.5t-43 4.5t-39.5 1q-35 0 -57 -6.5t-34.5 -17t-17 -25t-4.5 -29.5q0 -29 14.5 -45.5t37.5 -26t51 -14.5t55 -11q42 -8 76 -21t59 -33
t38.5 -49t13.5 -69q0 -46 -18 -78.5t-48.5 -53.5t-71.5 -31t-87 -10q-57 0 -114 8t-121 27l21 75q76 -19 126.5 -24.5t90.5 -5.5q35 0 59.5 7.5t39.5 20t21.5 28.5t6.5 32q0 27 -13.5 43.5t-35 26t-49.5 15t-57 11.5z" />
    <glyph glyph-name="Tsmall" unicode="&#xf774;" horiz-adv-x="520" 
d="M305 500v-500h-90v500h-170v80h430v-80h-170z" />
    <glyph glyph-name="Usmall" unicode="&#xf775;" 
d="M65 580h90v-345q0 -34 4.5 -64.5t19.5 -54t44 -37.5t79 -14q49 0 77.5 15t43 39t18.5 54.5t4 61.5v345h90v-345q0 -131 -59.5 -188t-175.5 -57q-57 0 -101 13t-74 41.5t-45 74t-15 111.5v350z" />
    <glyph glyph-name="Vsmall" unicode="&#xf776;" horiz-adv-x="610" 
d="M310 112l164 468h101l-214 -585h-107l-219 585h105l169 -468h1z" />
    <glyph glyph-name="Wsmall" unicode="&#xf777;" horiz-adv-x="900" 
d="M443 430l-118 -435h-113l-177 585h106l137 -466h1l117 466h103l127 -466h1l137 466h101l-177 -585h-123l-120 435h-2z" />
    <glyph glyph-name="Xsmall" unicode="&#xf778;" horiz-adv-x="610" 
d="M463 0l-166 228l-163 -228h-102l212 299l-194 281h107l147 -199l144 199h107l-199 -276l222 -304h-115z" />
    <glyph glyph-name="Ysmall" unicode="&#xf779;" horiz-adv-x="580" 
d="M294 287l147 293h104l-210 -400v-180h-90v180l-210 400h109l148 -293h2z" />
    <glyph glyph-name="Zsmall" unicode="&#xf77a;" horiz-adv-x="520" 
d="M165 80h315v-80h-440v70l308 428v2h-288v80h410v-70l-305 -428v-2z" />
    <glyph glyph-name="exclamdownsmall" unicode="&#xf7a1;" horiz-adv-x="200" 
d="M55 600h90v-130h-90v130zM60 380h80l5 -380h-90z" />
    <glyph glyph-name="centoldstyle" unicode="&#xf7a2;" horiz-adv-x="555" 
d="M315 -10q-57 0 -102.5 19t-77 53t-48.5 82t-17 106t17 106t48.5 82t77 53t102.5 19q50 0 88 -9.5t82 -28.5l-11 -70q-23 9 -42 15t-36.5 10t-35.5 6t-38 2q-36 0 -65.5 -13.5t-49.5 -38t-31 -58.5t-11 -75t11 -75t31 -58.5t49.5 -38t65.5 -13.5q20 0 38 2t35.5 6t36.5 10
t42 15l11 -70q-44 -20 -82 -29t-88 -9zM285 -130v100h50v-100h-50zM285 530v100h50v-100h-50z" />
    <glyph glyph-name="Dieresissmall" unicode="&#xf7a8;" horiz-adv-x="480" 
d="M155 660h-80v120h80v-120zM405 660h-80v120h80v-120z" />
    <glyph glyph-name="Macronsmall" unicode="&#xf7af;" horiz-adv-x="440" 
d="M375 730v-65h-310v65h310z" />
    <glyph glyph-name="Acutesmall" unicode="&#xf7b4;" horiz-adv-x="290" 
d="M128 640h-60l50 140h87z" />
    <glyph glyph-name="Cedillasmall" unicode="&#xf7b8;" horiz-adv-x="294" 
d="M113 0h36v-55q14 -1 28.5 -5t26.5 -12.5t20 -21.5t8 -33q0 -35 -25.5 -59t-71.5 -24q-36 0 -75 12l6 36q12 -3 24 -5.5t28 -2.5q33 0 45 16.5t12 31.5t-13 30t-49 17v75z" />
    <glyph glyph-name="questiondownsmall" unicode="&#xf7bf;" horiz-adv-x="500" 
d="M250 -10q-52 0 -88.5 11t-60 29.5t-34.5 44.5t-11 56q0 38 13.5 63.5t34 44t44.5 31.5t44.5 26t34 29t13.5 40v25h80v-30q0 -37 -13 -59t-32 -36.5t-41.5 -24t-41.5 -21t-32 -28t-13 -44.5q0 -27 14 -42.5t33.5 -23t40.5 -9.5t35 -2q25 0 66 8.5t88 27.5l21 -68
q-40 -18 -92 -33t-103 -15zM235 470v130h90v-130h-90z" />
    <glyph glyph-name="Agravesmall" unicode="&#xf7e0;" horiz-adv-x="610" 
d="M187 780h88l50 -140h-60zM469 0l-51 140h-230l-53 -140h-100l219 585h107l214 -585h-106zM304 467l-96 -252h190l-93 252h-1z" />
    <glyph glyph-name="Aacutesmall" unicode="&#xf7e1;" horiz-adv-x="610" 
d="M334 640h-60l50 140h87zM469 0l-51 140h-230l-53 -140h-100l219 585h107l214 -585h-106zM304 467l-96 -252h190l-93 252h-1z" />
    <glyph glyph-name="Acircumflexsmall" unicode="&#xf7e2;" horiz-adv-x="610" 
d="M301 699l-75 -69h-60l105 140h59l106 -140h-60zM469 0l-51 140h-230l-53 -140h-100l219 585h107l214 -585h-106zM304 467l-96 -252h190l-93 252h-1z" />
    <glyph glyph-name="Atildesmall" unicode="&#xf7e3;" horiz-adv-x="610" 
d="M246 690q-9 0 -16.5 -1t-16.5 -5t-20.5 -11.5t-26.5 -20.5l-29 23q29 48 55 67.5t52 19.5q18 0 36 -6.5t35 -14.5t32 -14.5t28 -6.5q14 0 28.5 3t36.5 28l25 -28q-17 -34 -37.5 -53.5t-46.5 -19.5q-16 0 -33.5 6t-35 13.5t-34.5 14t-32 6.5zM418 140h-230l-53 -140h-100
l219 585h107l214 -585h-106zM304 467l-96 -252h190l-93 252h-1z" />
    <glyph glyph-name="Adieresissmall" unicode="&#xf7e4;" horiz-adv-x="610" 
d="M215 660h-80v120h80v-120zM465 660h-80v120h80v-120zM469 0l-51 140h-230l-53 -140h-100l219 585h107l214 -585h-106zM304 467l-96 -252h190l-93 252h-1z" />
    <glyph glyph-name="Aringsmall" unicode="&#xf7e5;" horiz-adv-x="610" 
d="M209 730q0 38 26.5 64.5t64.5 26.5t64.5 -26.5t26.5 -64.5t-26.5 -64.5t-64.5 -26.5t-64.5 26.5t-26.5 64.5zM245 730q0 -23 16 -39t39 -16t39 16t16 39t-16 39t-39 16t-39 -16t-16 -39zM418 140h-230l-53 -140h-100l219 585h107l214 -585h-106zM304 467l-96 -252h190
l-93 252h-1z" />
    <glyph glyph-name="AEsmall" unicode="&#xf7e6;" horiz-adv-x="886" 
d="M35 0l347 580h444v-80h-305v-165h260v-80h-260v-175h310v-80h-400v212h-170l-130 -212h-96zM431 287v213h-2l-129 -213h131z" />
    <glyph glyph-name="Ccedillasmall" unicode="&#xf7e7;" horiz-adv-x="580" 
d="M55 292q0 72 15 127.5t48 93.5t86.5 57.5t130.5 19.5q66 0 117 -10.5t93 -24.5l-22 -75q-57 17 -100.5 23.5t-84.5 6.5q-53 0 -88.5 -14.5t-58 -42t-32 -68.5t-9.5 -93q0 -54 9.5 -95.5t32 -69.5t58 -42.5t88.5 -14.5q41 0 84.5 6.5t100.5 23.5l22 -75q-40 -14 -88 -23.5
t-108 -11.5v-45q14 -1 28.5 -5t26.5 -12.5t20 -21.5t8 -33q0 -35 -25.5 -59t-72.5 -24q-35 0 -74 12l6 36q12 -3 24 -5.5t28 -2.5q33 0 45 16.5t12 31.5t-13 30t-49 17v66q-71 3 -120 23.5t-80 59t-44.5 93t-13.5 125.5z" />
    <glyph glyph-name="Egravesmall" unicode="&#xf7e8;" horiz-adv-x="520" 
d="M465 80v-80h-400v580h395v-80h-305v-165h260v-80h-260v-175h310zM128 780h88l50 -140h-60z" />
    <glyph glyph-name="Eacutesmall" unicode="&#xf7e9;" horiz-adv-x="520" 
d="M465 80v-80h-400v580h395v-80h-305v-165h260v-80h-260v-175h310zM328 640h-60l50 140h87z" />
    <glyph glyph-name="Ecircumflexsmall" unicode="&#xf7ea;" horiz-adv-x="520" 
d="M465 80v-80h-400v580h395v-80h-305v-165h260v-80h-260v-175h310zM263 699l-75 -69h-60l105 140h59l106 -140h-60z" />
    <glyph glyph-name="Edieresissmall" unicode="&#xf7eb;" horiz-adv-x="520" 
d="M465 80v-80h-400v580h395v-80h-305v-165h260v-80h-260v-175h310zM177 660h-80v120h80v-120zM427 660h-80v120h80v-120z" />
    <glyph glyph-name="Igravesmall" unicode="&#xf7ec;" horiz-adv-x="220" 
d="M65 0v580h90v-580h-90zM-4 780h88l50 -140h-60z" />
    <glyph glyph-name="Iacutesmall" unicode="&#xf7ed;" horiz-adv-x="220" 
d="M65 0v580h90v-580h-90zM145 640h-60l50 140h87z" />
    <glyph glyph-name="Icircumflexsmall" unicode="&#xf7ee;" horiz-adv-x="220" 
d="M65 0v580h90v-580h-90zM110 699l-75 -69h-60l105 140h59l106 -140h-60z" />
    <glyph glyph-name="Idieresissmall" unicode="&#xf7ef;" horiz-adv-x="220" 
d="M65 0v580h90v-580h-90zM25 660h-80v120h80v-120zM275 660h-80v120h80v-120z" />
    <glyph glyph-name="Ethsmall" unicode="&#xf7f0;" horiz-adv-x="610" 
d="M280 80q52 0 87 14.5t55.5 42.5t29 67.5t8.5 90.5t-8.5 89t-29 64t-55.5 39t-87 13h-115v-178h130v-55h-130v-187h115zM75 0v267h-70v55h70v258h210q142 0 206 -73t64 -212q0 -141 -64 -218t-206 -77h-210z" />
    <glyph glyph-name="Ntildesmall" unicode="&#xf7f1;" horiz-adv-x="610" 
d="M450 0l-295 427h-2v-427h-88v580h95l295 -427h2v427h88v-580h-95zM251 690q-9 0 -16.5 -1t-16.5 -5t-20.5 -11.5t-26.5 -20.5l-29 23q29 48 55 67.5t52 19.5q18 0 36 -6.5t35 -14.5t32 -14.5t28 -6.5q14 0 28.5 3t36.5 28l25 -28q-17 -34 -37.5 -53.5t-46.5 -19.5
q-16 0 -33.5 6t-35 13.5t-34.5 14t-32 6.5z" />
    <glyph glyph-name="Ogravesmall" unicode="&#xf7f2;" horiz-adv-x="650" 
d="M325 515q-55 0 -89.5 -17t-53.5 -46.5t-25.5 -69.5t-6.5 -87t6.5 -88.5t25.5 -73t53.5 -50t89.5 -18.5t89.5 18.5t53.5 50t25.5 73t6.5 88.5t-6.5 87t-25.5 69.5t-53.5 46.5t-89.5 17zM325 -10q-74 0 -125.5 21t-83.5 60.5t-46.5 96t-14.5 127.5q0 70 14.5 125t46.5 93
t83.5 57.5t125.5 19.5t125.5 -19.5t83.5 -57.5t46.5 -93t14.5 -125q0 -71 -14.5 -127.5t-46.5 -96t-83.5 -60.5t-125.5 -21zM226 780h88l50 -140h-60z" />
    <glyph glyph-name="Oacutesmall" unicode="&#xf7f3;" horiz-adv-x="650" 
d="M325 515q-55 0 -89.5 -17t-53.5 -46.5t-25.5 -69.5t-6.5 -87t6.5 -88.5t25.5 -73t53.5 -50t89.5 -18.5t89.5 18.5t53.5 50t25.5 73t6.5 88.5t-6.5 87t-25.5 69.5t-53.5 46.5t-89.5 17zM325 -10q-74 0 -125.5 21t-83.5 60.5t-46.5 96t-14.5 127.5q0 70 14.5 125t46.5 93
t83.5 57.5t125.5 19.5t125.5 -19.5t83.5 -57.5t46.5 -93t14.5 -125q0 -71 -14.5 -127.5t-46.5 -96t-83.5 -60.5t-125.5 -21zM352 640h-60l50 140h87z" />
    <glyph glyph-name="Ocircumflexsmall" unicode="&#xf7f4;" horiz-adv-x="650" 
d="M325 515q-55 0 -89.5 -17t-53.5 -46.5t-25.5 -69.5t-6.5 -87t6.5 -88.5t25.5 -73t53.5 -50t89.5 -18.5t89.5 18.5t53.5 50t25.5 73t6.5 88.5t-6.5 87t-25.5 69.5t-53.5 46.5t-89.5 17zM325 -10q-74 0 -125.5 21t-83.5 60.5t-46.5 96t-14.5 127.5q0 70 14.5 125t46.5 93
t83.5 57.5t125.5 19.5t125.5 -19.5t83.5 -57.5t46.5 -93t14.5 -125q0 -71 -14.5 -127.5t-46.5 -96t-83.5 -60.5t-125.5 -21zM323 699l-75 -69h-60l105 140h59l106 -140h-60z" />
    <glyph glyph-name="Otildesmall" unicode="&#xf7f5;" horiz-adv-x="650" 
d="M325 515q-55 0 -89.5 -17t-53.5 -46.5t-25.5 -69.5t-6.5 -87t6.5 -88.5t25.5 -73t53.5 -50t89.5 -18.5t89.5 18.5t53.5 50t25.5 73t6.5 88.5t-6.5 87t-25.5 69.5t-53.5 46.5t-89.5 17zM325 -10q-74 0 -125.5 21t-83.5 60.5t-46.5 96t-14.5 127.5q0 70 14.5 125t46.5 93
t83.5 57.5t125.5 19.5t125.5 -19.5t83.5 -57.5t46.5 -93t14.5 -125q0 -71 -14.5 -127.5t-46.5 -96t-83.5 -60.5t-125.5 -21zM269 690q-9 0 -16.5 -1t-16.5 -5t-20.5 -11.5t-26.5 -20.5l-29 23q29 48 55 67.5t52 19.5q18 0 36 -6.5t35 -14.5t32 -14.5t28 -6.5q14 0 28.5 3
t36.5 28l25 -28q-17 -34 -37.5 -53.5t-46.5 -19.5q-16 0 -33.5 6t-35 13.5t-34.5 14t-32 6.5z" />
    <glyph glyph-name="Odieresissmall" unicode="&#xf7f6;" horiz-adv-x="650" 
d="M325 515q-55 0 -89.5 -17t-53.5 -46.5t-25.5 -69.5t-6.5 -87t6.5 -88.5t25.5 -73t53.5 -50t89.5 -18.5t89.5 18.5t53.5 50t25.5 73t6.5 88.5t-6.5 87t-25.5 69.5t-53.5 46.5t-89.5 17zM325 -10q-74 0 -125.5 21t-83.5 60.5t-46.5 96t-14.5 127.5q0 70 14.5 125t46.5 93
t83.5 57.5t125.5 19.5t125.5 -19.5t83.5 -57.5t46.5 -93t14.5 -125q0 -71 -14.5 -127.5t-46.5 -96t-83.5 -60.5t-125.5 -21zM238 660h-80v120h80v-120zM488 660h-80v120h80v-120z" />
    <glyph glyph-name="Oslashsmall" unicode="&#xf7f8;" horiz-adv-x="650" 
d="M325 -10q-113 0 -176 52l-60 -75l-29 24l60 75q-35 39 -50 96.5t-15 132.5q0 70 14.5 125t46.5 93t83.5 57.5t125.5 19.5q59 0 102.5 -13t74.5 -38l59 72l29 -24l-58 -71q33 -38 48 -93.5t15 -127.5q0 -71 -14.5 -127.5t-46.5 -96t-83.5 -60.5t-125.5 -21zM325 515
q-55 0 -89.5 -17t-53.5 -46.5t-25.5 -69.5t-6.5 -87q0 -45 6.5 -84.5t24.5 -69.5l268 331q-20 20 -49.5 31.5t-74.5 11.5zM500 295q0 42 -6.5 79t-23.5 65l-268 -331q20 -20 50 -31.5t73 -11.5q55 0 89.5 18.5t53.5 50t25.5 73t6.5 88.5z" />
    <glyph glyph-name="Ugravesmall" unicode="&#xf7f9;" 
d="M65 580h90v-345q0 -34 4.5 -64.5t19.5 -54t44 -37.5t79 -14q49 0 77.5 15t43 39t18.5 54.5t4 61.5v345h90v-345q0 -131 -59.5 -188t-175.5 -57q-57 0 -101 13t-74 41.5t-45 74t-15 111.5v350zM183 780h88l50 -140h-60z" />
    <glyph glyph-name="Uacutesmall" unicode="&#xf7fa;" 
d="M65 580h90v-345q0 -34 4.5 -64.5t19.5 -54t44 -37.5t79 -14q49 0 77.5 15t43 39t18.5 54.5t4 61.5v345h90v-345q0 -131 -59.5 -188t-175.5 -57q-57 0 -101 13t-74 41.5t-45 74t-15 111.5v350zM337 640h-60l50 140h87z" />
    <glyph glyph-name="Ucircumflexsmall" unicode="&#xf7fb;" 
d="M65 580h90v-345q0 -34 4.5 -64.5t19.5 -54t44 -37.5t79 -14q49 0 77.5 15t43 39t18.5 54.5t4 61.5v345h90v-345q0 -131 -59.5 -188t-175.5 -57q-57 0 -101 13t-74 41.5t-45 74t-15 111.5v350zM301 699l-75 -69h-60l105 140h59l106 -140h-60z" />
    <glyph glyph-name="Udieresissmall" unicode="&#xf7fc;" 
d="M65 580h90v-345q0 -34 4.5 -64.5t19.5 -54t44 -37.5t79 -14q49 0 77.5 15t43 39t18.5 54.5t4 61.5v345h90v-345q0 -131 -59.5 -188t-175.5 -57q-57 0 -101 13t-74 41.5t-45 74t-15 111.5v350zM216 660h-80v120h80v-120zM466 660h-80v120h80v-120z" />
    <glyph glyph-name="Yacutesmall" unicode="&#xf7fd;" horiz-adv-x="580" 
d="M294 287l147 293h104l-210 -400v-180h-90v180l-210 400h109l148 -293h2zM335 640h-60l50 140h87z" />
    <glyph glyph-name="Thornsmall" unicode="&#xf7fe;" horiz-adv-x="550" 
d="M155 97v-97h-90v580h90v-97h145q102 0 158.5 -51t56.5 -142q0 -94 -56.5 -143.5t-158.5 -49.5h-145zM155 178h145q57 0 89.5 27t32.5 85q0 54 -32.5 83t-89.5 29h-145v-224z" />
    <glyph glyph-name="Ydieresissmall" unicode="&#xf7ff;" horiz-adv-x="580" 
d="M294 287l147 293h104l-210 -400v-180h-90v180l-210 400h109l148 -293h2zM209 660h-80v120h80v-120zM459 660h-80v120h80v-120z" />
    <glyph glyph-name="Breve" horiz-adv-x="408" 
d="M204 808q22 0 39.5 7t29.5 17.5t20 23.5t12 24h39q-9 -67 -45.5 -101t-94.5 -34q-57 0 -93.5 34t-45.5 101h39q4 -11 12 -24t20 -23.5t29 -17.5t39 -7z" />
    <glyph glyph-name="Cedilla" horiz-adv-x="294" 
d="M113 0h36v-55q14 -1 28.5 -5t26.5 -12.5t20 -21.5t8 -33q0 -35 -25.5 -59t-71.5 -24q-36 0 -75 12l6 36q12 -3 24 -5.5t28 -2.5q33 0 45 16.5t12 31.5t-13 30t-49 17v75z" />
    <glyph glyph-name="Circumflex" horiz-adv-x="420" 
d="M210 799l-75 -69h-60l105 140h59l106 -140h-60z" />
    <glyph glyph-name="commaaccent.cap" horiz-adv-x="230" 
d="M70 -250q5 26 10 52.5t10 52.5h-35v105h90v-105l-45 -105h-30z" />
    <glyph glyph-name="Dotaccent" horiz-adv-x="250" 
d="M75 870h80v-120h-80v120z" />
    <glyph glyph-name="Ogonek" horiz-adv-x="314" 
d="M252 -181q-17 -14 -41.5 -21.5t-48.5 -7.5q-18 0 -34.5 6t-28.5 17t-19.5 26t-7.5 33q0 36 24 69t62 59h46q-30 -23 -50 -53.5t-20 -56.5t15 -40t43 -14q20 0 32.5 6t23.5 11z" />
    <glyph glyph-name="Ring" horiz-adv-x="300" 
d="M59 820q0 38 26.5 64.5t64.5 26.5t64.5 -26.5t26.5 -64.5t-26.5 -64.5t-64.5 -26.5t-64.5 26.5t-26.5 64.5zM95 820q0 -23 16 -39t39 -16t39 16t16 39t-16 39t-39 16t-39 -16t-16 -39z" />
    <glyph glyph-name="Tilde" horiz-adv-x="450" 
d="M171 780q-9 0 -16.5 -1t-16.5 -5t-20.5 -11.5t-26.5 -20.5l-29 23q29 48 55 67.5t52 19.5q18 0 36 -6.5t35 -14.5t32 -14.5t28 -6.5q14 0 28.5 3t36.5 28l25 -28q-17 -34 -37.5 -53.5t-46.5 -19.5q-16 0 -33.5 6t-35 13.5t-34.5 14t-32 6.5z" />
    <glyph glyph-name="commaaccent.small" horiz-adv-x="230" 
d="M70 -250q5 26 10 52.5t10 52.5h-35v105h90v-105l-45 -105h-30z" />
    <glyph glyph-name="DieresisAcute.small" horiz-adv-x="630" 
d="M298 660h-50l65 170h82zM155 780v-120h-80v120h80zM535 780v-120h-80v120h80z" />
    <glyph glyph-name="DieresisGrave.small" horiz-adv-x="630" 
d="M209 830h83l65 -170h-50zM535 780v-120h-80v120h80zM155 780v-120h-80v120h80z" />
    <glyph glyph-name="dblGrave.small" horiz-adv-x="460" 
d="M253 780h88l50 -140h-60zM83 780h88l50 -140h-60z" />
    <glyph glyph-name="periodcentered" horiz-adv-x="250" 
d="M75 370h80v-120h-80v120z" />
    <glyph glyph-name="Aogonek.small" horiz-adv-x="610" 
d="M418 140h-230l-53 -140h-100l219 585h107l214 -585h-29q-30 -23 -50 -53.5t-20 -56.5t15 -40t43 -14q20 0 32.5 6t23.5 11l4 -34q-17 -14 -41.5 -21.5t-48.5 -7.5q-18 0 -34.5 6t-28.5 17t-19.5 26t-7.5 33q0 36 24 69t62 59h-31zM304 467l-96 -252h190l-93 252h-1z" />
    <glyph glyph-name="Dcroat.small" horiz-adv-x="610" 
d="M280 80q52 0 87 14.5t55.5 42.5t29 67.5t8.5 90.5t-8.5 89t-29 64t-55.5 39t-87 13h-115v-178h130v-55h-130v-187h115zM75 0v267h-70v55h70v258h210q142 0 206 -73t64 -212q0 -141 -64 -218t-206 -77h-210z" />
    <glyph glyph-name="Eogonek.small" horiz-adv-x="520" 
d="M513 -181q-17 -14 -41.5 -21.5t-48.5 -7.5q-18 0 -34.5 6t-28.5 17t-19.5 26t-7.5 33q0 36 24 69t62 59h-354v580h395v-80h-305v-165h260v-80h-260v-175h310v-80q-30 -23 -50 -53.5t-20 -56.5t15 -40t43 -14q20 0 32.5 6t23.5 11z" />
    <glyph glyph-name="Hbar.small" horiz-adv-x="620" 
d="M75 498v82h90v-82h290v82h90v-82h70v-56h-70v-442h-90v255h-290v-255h-90v442h-70v56h70zM455 335v107h-290v-107h290z" />
    <glyph glyph-name="Iogonek.small" horiz-adv-x="220" 
d="M182 -181q-17 -14 -41.5 -21.5t-48.5 -7.5q-18 0 -34.5 6t-28.5 17t-19.5 26t-7.5 33q0 36 24 69t62 59h-23v580h90v-580h-21q-30 -23 -50 -53.5t-20 -56.5t15 -40t43 -14q20 0 32.5 6t23.5 11z" />
    <glyph glyph-name="IJ.small" horiz-adv-x="555" 
d="M65 0v580h90v-580h-90zM395 580h95v-409q0 -50 -11 -84.5t-31.5 -56t-50.5 -31t-67 -9.5q-50 0 -93 8l9 80q17 -3 30.5 -4t28.5 -1q45 0 67.5 23t22.5 80v404z" />
    <glyph glyph-name="Scedilla.small" horiz-adv-x="570" 
d="M260 -9q-49 2 -99.5 9.5t-105.5 24.5l21 75q76 -19 126.5 -24.5t90.5 -5.5q35 0 59.5 7.5t39.5 20t21.5 28.5t6.5 32q0 27 -13.5 43.5t-35 26t-49.5 15t-57 11.5q-42 8 -77 20t-60 31t-39 48t-14 72q0 45 15 76t42.5 51t65 29t82.5 9q56 0 108.5 -8t116.5 -27l-21 -75
q-38 9 -66.5 15t-52 9.5t-43 4.5t-39.5 1q-35 0 -57 -6.5t-34.5 -17t-17 -25t-4.5 -29.5q0 -29 14.5 -45.5t37.5 -26t51 -14.5t55 -11q42 -8 76 -21t59 -33t38.5 -49t13.5 -69q0 -45 -17.5 -77.5t-47 -53.5t-69.5 -31t-85 -11v-45q14 -1 28.5 -5t26.5 -12.5t20 -21.5t8 -33
q0 -35 -25.5 -59t-71.5 -24q-36 0 -75 12l6 36q12 -3 24 -5.5t28 -2.5q33 0 45 16.5t12 31.5t-13 30t-49 17v66z" />
    <glyph glyph-name="Tbar.small" horiz-adv-x="520" 
d="M215 257v243h-170v80h430v-80h-170v-243h85v-55h-85v-202h-90v202h-85v55h85z" />
    <glyph glyph-name="Uogonek.small" 
d="M385 -181q-17 -14 -41.5 -21.5t-48.5 -7.5q-18 0 -34.5 6t-28.5 17t-19.5 26t-7.5 33q0 33 20 63t53 56q-104 4 -158.5 59t-54.5 180v350h90v-345q0 -34 4.5 -64.5t19.5 -54t44 -37.5t79 -14q49 0 77.5 15t43 39t18.5 54.5t4 61.5v345h90v-345q0 -124 -53.5 -181.5
t-156.5 -62.5q-26 -23 -42 -50t-16 -51q0 -26 15 -40t43 -14q20 0 32.5 6t23.5 11z" />
    <glyph glyph-name="c_t" horiz-adv-x="865" 
d="M45 250q0 58 12.5 106t41.5 82t75.5 53t115.5 19q47 0 86 -6t84 -17l-17 -72q-30 7 -52.5 11.5t-40.5 6t-32.5 2t-27.5 0.5q-75 0 -112.5 -49.5t-37.5 -135.5q0 -40 8.5 -74t26.5 -58.5t46.5 -38.5t68.5 -14q13 0 27.5 0.5t32.5 2t40.5 5.5t52.5 12l17 -73
q-45 -11 -84 -16.5t-86 -5.5q-69 0 -115.5 19t-75.5 53t-41.5 82t-12.5 106zM585 435h-75v59l75 6l11 140h79v-140h140v-65h-140v-275q0 -43 18 -70.5t67 -27.5q11 0 23 1.5l28 3.5l9 -69q-20 -2 -42 -5t-42 -3q-74 0 -112.5 34.5t-38.5 120.5v290z" />
    <glyph glyph-name="s_p" horiz-adv-x="1025" 
d="M245 63q34 0 55 9t32 21t14.5 24.5t3.5 19.5q0 12 -5 23t-18 20t-35 17t-55 14q-40 7 -74 18.5t-59 29.5t-39.5 45t-14.5 66q0 72 48 106t137 34q59 0 107 -6t93 -17l-16 -72q-60 15 -106.5 18.5t-72.5 3.5q-34 0 -53.5 -8t-30 -18.5t-13.5 -21.5t-3 -17q0 -12 4 -22.5
t15.5 -20t32.5 -18t55 -15.5q39 -8 74 -18.5t61.5 -28t42 -43t15.5 -63.5q0 -76 -48 -114.5t-137 -38.5q-59 0 -114.5 6t-100.5 17l16 72q60 -15 111.5 -18.5t77.5 -3.5zM640 450h2q26 26 67 43t86 17q52 0 87.5 -20t57.5 -55.5t31 -83t9 -101.5t-10 -101.5t-32.5 -83
t-59 -55.5t-88.5 -20q-43 0 -82.5 15.5t-65.5 41.5h-2v-247h-90v700h90v-50zM885 250q0 37 -6 71t-20 59t-38.5 40t-60.5 15q-42 0 -73.5 -15t-46.5 -28v-285q15 -12 46.5 -27t73.5 -15q36 0 60.5 15t38.5 40t20 58.5t6 71.5z" />
    <glyph glyph-name="s_t" horiz-adv-x="860" 
d="M245 63q34 0 55 9t32 21t14.5 24.5t3.5 19.5q0 12 -5 23t-18 20t-35 17t-55 14q-40 7 -74 18.5t-59 29.5t-39.5 45t-14.5 66q0 72 48 106t137 34q59 0 107 -6t93 -17l-16 -72q-60 15 -106.5 18.5t-72.5 3.5q-34 0 -53.5 -8t-30 -18.5t-13.5 -21.5t-3 -17q0 -12 4 -22.5
t15.5 -20t32.5 -18t55 -15.5q39 -8 74 -18.5t61.5 -28t42 -43t15.5 -63.5q0 -76 -48 -114.5t-137 -38.5q-59 0 -114.5 6t-100.5 17l16 72q60 -15 111.5 -18.5t77.5 -3.5zM580 435h-75v59l75 6l11 140h79v-140h140v-65h-140v-275q0 -43 18 -70.5t67 -27.5q11 0 23 1.5l28 3.5
l9 -69q-20 -2 -42 -5t-42 -3q-74 0 -112.5 34.5t-38.5 120.5v290z" />
    <glyph glyph-name="h.superior" horiz-adv-x="300" 
d="M90 430h-45v350h45v-135h1q18 18 40.5 29t48.5 11q38 0 56.5 -21.5t18.5 -60.5v-173h-45v163q0 23 -11.5 39t-38.5 16q-22 0 -40.5 -10.5t-29.5 -18.5v-189z" />
    <glyph glyph-name="Eng.small" horiz-adv-x="610" 
d="M450 0l-298 430h-2v-430h-85v580h95l298 -430h2v430h85v-620q0 -85 -31.5 -127.5t-113.5 -42.5q-18 0 -41.5 2t-43.5 6l8 70q17 -3 29 -4t23 -1q45 0 60 19.5t15 67.5v50z" />
    <glyph glyph-name="longs_h" horiz-adv-x="865" 
d="M95 524q0 85 44.5 130.5t145.5 45.5q25 0 60 -4t70 -18h65v-248h2q36 36 80.5 58t97.5 22q75 0 112.5 -43t37.5 -122v-345h-90v325q0 49 -22 79.5t-78 30.5q-21 0 -41.5 -6t-38.5 -14.5t-33.5 -18.5t-26.5 -19v-377h-90v607q-35 14 -58.5 17t-36.5 3q-35 0 -56.5 -8
t-33.5 -22t-16 -34t-4 -44v-559q0 -85 -31.5 -127.5t-113.5 -42.5q-37 0 -80 8l9 70q16 -3 28 -4t23 -1q45 0 60 25t15 73v563z" />
    <glyph glyph-name="longs_l" horiz-adv-x="535" 
d="M185 -40q0 -85 -31.5 -127.5t-113.5 -42.5q-37 0 -80 8l9 70q16 -3 28 -4t23 -1q45 0 60 25t15 73v563q0 85 44.5 130.5t145.5 45.5q25 0 60 -4t70 -18h65v-678h-90v607q-35 14 -58.5 17t-36.5 3q-35 0 -56.5 -8t-33.5 -22t-16 -34t-4 -44v-559z" />
    <glyph glyph-name="longs_t" horiz-adv-x="645" 
d="M95 545q0 84 34 119.5t111 35.5q18 0 39 -2t41 -6l-8 -70q-17 3 -29 4t-23 1q-45 0 -60 -25t-15 -73v-569q0 -85 -31.5 -127.5t-113.5 -42.5q-37 0 -80 8l9 70q16 -3 28 -4t23 -1q45 0 60 25t15 73v584zM365 435h-75v59l75 6l11 140h79v-140h140v-65h-140v-275
q0 -43 18 -70.5t67 -27.5q11 0 23 1.5l28 3.5l9 -69q-20 -2 -42 -5t-42 -3q-74 0 -112.5 34.5t-38.5 120.5v290z" />
    <glyph glyph-name="longs_i" horiz-adv-x="510" 
d="M455 500v-500h-90v500h90zM95 545q0 84 34 119.5t111 35.5q18 0 39 -2t41 -6l-8 -70q-17 3 -29 4t-23 1q-45 0 -60 -25t-15 -73v-569q0 -85 -31.5 -127.5t-113.5 -42.5q-37 0 -80 8l9 70q16 -3 28 -4t23 -1q45 0 60 25t15 73v584z" />
    <glyph glyph-name="longs_longs" horiz-adv-x="565" 
d="M95 545q0 84 34 119.5t111 35.5q18 0 39 -2t41 -6l-8 -70q-17 3 -29 4t-23 1q-45 0 -60 -25t-15 -73v-569q0 -85 -31.5 -127.5t-113.5 -42.5q-37 0 -80 8l9 70q16 -3 28 -4t23 -1q45 0 60 25t15 73v584zM360 545q0 84 34 119.5t111 35.5q18 0 39 -2t41 -6l-8 -70
q-17 3 -29 4t-23 1q-45 0 -60 -25t-15 -73v-569q0 -85 -31.5 -127.5t-113.5 -42.5q-37 0 -80 8l9 70q16 -3 28 -4t23 -1q45 0 60 25t15 73v584z" />
    <glyph glyph-name="zero.slash" horiz-adv-x="590" 
d="M295 -10q-69 0 -115 28.5t-73.5 77t-39.5 113t-12 136.5q0 71 12 134t39.5 110t73.5 74t115 27q68 0 114 -27t74 -74t40 -110t12 -134q0 -72 -12 -136.5t-40 -113t-74 -77t-114 -28.5zM295 65q46 0 74.5 25.5t44 65.5t20.5 90t5 99q0 33 -4 68.5t-12 64.5l-250 -315
q16 -45 45 -71.5t77 -26.5zM295 615q-47 0 -75 -24t-44 -63t-21 -88t-5 -98q0 -33 2.5 -68.5t8.5 -63.5l253 317q-16 40 -44.5 64t-74.5 24z" />
    <glyph glyph-name="zero.fitted" 
d="M300 615q-44 0 -72.5 -22t-44.5 -59t-22 -86t-6 -103t6 -104.5t22 -89.5t44.5 -62.5t72.5 -23.5t72 23.5t44.5 62.5t22.5 89.5t6 104.5t-6 103t-22.5 86t-44.5 59t-72 22zM300 -10q-72 0 -118.5 28.5t-73.5 77t-37.5 113t-10.5 136.5q0 71 10.5 134t37.5 110t73.5 74
t118.5 27t118.5 -27t73.5 -74t37.5 -110t10.5 -134q0 -72 -10.5 -136.5t-37.5 -113t-73.5 -77t-118.5 -28.5z" />
    <glyph glyph-name="one.fitted" 
d="M280 577l-159 -81l-32 69q60 26 118.5 57.5t97.5 62.5h65v-610h140v-75h-370v75h140v502z" />
    <glyph glyph-name="two.fitted" 
d="M275 607q-37 0 -75.5 -7.5t-92.5 -31.5l-27 72q27 12 52.5 21.5t51 15.5t52.5 9.5t59 3.5q55 0 96 -16t67 -44t39 -64.5t13 -78.5q0 -105 -76 -202t-226 -203v-2h312v-80h-440v88q107 71 173 128.5t102 104t48 82.5t12 64q0 47 -15.5 74.5t-37.5 42t-46 19t-41 4.5z" />
    <glyph glyph-name="three.fitted" 
d="M287 615q-47 0 -87.5 -10.5t-85.5 -31.5l-28 69q53 26 108 37t109 11q46 0 84.5 -12t65.5 -34.5t42 -55.5t15 -76q0 -62 -36.5 -102.5t-92.5 -58.5v-2q72 -14 110.5 -60t38.5 -109q0 -91 -60 -140.5t-177 -49.5q-61 0 -116 10.5t-107 37.5l28 69q45 -22 92 -32t97 -10
q49 0 78.5 13t45.5 31.5t21 39t5 36.5q0 54 -39 85.5t-123 31.5h-85v76h81q40 0 68.5 11t46.5 28.5t26 39.5t8 45q0 17 -5.5 36.5t-20 36.5t-40.5 28.5t-67 11.5z" />
    <glyph glyph-name="four.fitted" 
d="M365 250v312h-2q-46 -89 -101.5 -164t-118.5 -148h222zM455 680v-430h95v-75h-95v-175h-90v175h-315v75q83 91 160.5 200t131.5 230h113z" />
    <glyph glyph-name="five.fitted" 
d="M285 -10q-60 0 -110 12t-105 38l27 69q54 -26 96 -35t87 -9q70 0 112.5 40.5t42.5 109.5q0 25 -7 50.5t-23 46t-42 33t-63 12.5q-79 0 -130 -66l-66 6l16 383h370v-80h-292l-14 -228l2 -1q26 27 63 45.5t82 18.5q91 0 145 -56t54 -159q0 -113 -66 -171.5t-179 -58.5z" />
    <glyph glyph-name="six.fitted" 
d="M162 367q29 39 70.5 63.5t89.5 24.5q98 0 153 -61t55 -174q0 -54 -17 -96.5t-46.5 -72.5t-70 -45.5t-88.5 -15.5q-68 0 -114 26t-73.5 69.5t-39 99t-11.5 115.5q0 112 22.5 187t61.5 120t90.5 64t109.5 19q49 0 84.5 -7.5t70.5 -18.5l-12 -69q-41 11 -72 15.5t-64 4.5
q-53 0 -91 -23.5t-62.5 -60t-36 -80t-11.5 -83.5zM167 296q0 -8 -0.5 -17t-0.5 -17q0 -39 6 -74.5t21.5 -62.5t41.5 -43.5t67 -16.5q27 0 51 10t42 29.5t29 48.5t11 67q0 25 -5.5 53t-20.5 50.5t-41.5 37.5t-68.5 15q-41 0 -74.5 -23t-57.5 -57z" />
    <glyph glyph-name="seven.fitted" 
d="M406 600h-311v80h410v-65q-37 -62 -75.5 -132.5t-72 -147.5t-60.5 -161t-42 -174h-100q11 71 37 151t60.5 159.5t74.5 154t79 133.5v2z" />
    <glyph glyph-name="eight.fitted" 
d="M311 392q24 9 46 20t38 25.5t25.5 33t9.5 41.5q0 31 -12.5 52t-32 34t-43 18.5t-45.5 5.5q-20 0 -42.5 -5.5t-41 -17.5t-31 -32t-12.5 -50q0 -26 11.5 -45.5t31 -35t45 -26.5t53.5 -18zM287 311q-25 -9 -49 -21t-43 -28t-30.5 -36.5t-11.5 -47.5q0 -23 8 -44.5
t25.5 -38.5t46 -27t70.5 -10q40 0 68 9.5t44.5 25t24 35.5t7.5 42q0 31 -14.5 53t-38 38t-52 27.5t-55.5 22.5zM297 -10q-52 0 -95.5 11t-75 33.5t-49 56t-17.5 78.5q0 34 12 61t33 48.5t50 38t63 28.5v2q-30 13 -55.5 29t-44 36t-28.5 46t-10 58q0 42 17.5 74.5t47.5 54.5
t70.5 33.5t87.5 11.5q44 0 83.5 -11t69 -33t47 -53.5t17.5 -72.5q0 -31 -10 -54.5t-28 -42.5t-43.5 -34.5t-57.5 -29.5v-2q35 -15 64.5 -32.5t50.5 -39t32.5 -48t11.5 -59.5q0 -46 -18 -81t-50 -59t-76.5 -36t-98.5 -12z" />
    <glyph glyph-name="nine.fitted" 
d="M438 313q-29 -40 -70.5 -64t-90.5 -24q-97 0 -152 61t-55 174q0 54 16.5 96.5t46.5 72.5t70.5 45.5t88.5 15.5q68 0 114 -26t73.5 -69.5t39 -99t11.5 -115.5q0 -113 -22.5 -188t-61.5 -120t-90.5 -63.5t-109.5 -18.5q-49 0 -84.5 7t-70.5 18l11 70q41 -11 72.5 -15.5
t63.5 -4.5q53 0 91 23.5t62.5 60t36 80t12.5 83.5zM432 383q1 9 1 17.5v16.5q0 39 -6 75t-21.5 63.5t-42 43.5t-66.5 16q-27 0 -51 -10t-42 -29.5t-28.5 -48.5t-10.5 -67q0 -26 5.5 -53.5t20.5 -50.5t41.5 -38t68.5 -15q41 0 74 23t57 57z" />
    <glyph glyph-name="zero.taboldstyle" 
d="M300 435q-36 0 -63 -14t-45 -39t-27.5 -59t-9.5 -73t9.5 -73t27.5 -59t45 -39t63 -14q35 0 62 14t45.5 39t28 59t9.5 73t-9.5 73t-28 59t-45.5 39t-62 14zM300 -10q-57 0 -102 19t-75.5 53t-46.5 82t-16 106t16 106t46.5 82t75.5 53t102 19t101.5 -19t75.5 -53t47 -82
t16 -106t-16 -106t-47 -82t-75.5 -53t-101.5 -19z" />
    <glyph glyph-name="one.taboldstyle" 
d="M280 75v337l-157 -87l-34 70q60 26 118.5 57.5t97.5 62.5h65v-440h140v-75h-370v75h140z" />
    <glyph glyph-name="two.taboldstyle" 
d="M290 427q-37 0 -87 -9t-101 -30l-22 77q55 22 110 33.5t115 11.5q96 0 150.5 -44.5t54.5 -118.5q0 -57 -28 -98.5t-72 -72.5t-98 -54.5t-105 -44.5v-2q78 1 156.5 2t156.5 3v-80h-440v87q93 39 157 70t103.5 59t57 54.5t17.5 56.5q0 31 -13 50.5t-32.5 30.5t-41 15
t-38.5 4z" />
    <glyph glyph-name="three.taboldstyle" 
d="M287 435q-47 0 -87.5 -10.5t-85.5 -31.5l-28 69q53 26 108 37t109 11q46 0 84.5 -12t65.5 -34.5t42 -55.5t15 -76q0 -62 -36.5 -102.5t-92.5 -58.5v-2q72 -14 110.5 -60t38.5 -109q0 -91 -60 -140.5t-177 -49.5q-61 0 -116 10.5t-107 37.5l28 69q45 -22 92 -32t97 -10
q49 0 78.5 13t45.5 31.5t21 39t5 36.5q0 54 -39 85.5t-123 31.5h-85v76h81q40 0 68.5 11t46.5 28.5t26 39.5t8 45q0 17 -5.5 36.5t-20 36.5t-40.5 28.5t-67 11.5z" />
    <glyph glyph-name="four.taboldstyle" 
d="M365 75v330h-2q-46 -90 -101.5 -173.5t-118.5 -156.5h222zM455 505v-430h95v-75h-95v-170h-90v170h-315v75q83 91 160.5 200t131.5 230h113z" />
    <glyph glyph-name="five.taboldstyle" 
d="M285 -190q-60 0 -110 12t-105 38l27 70q54 -26 96 -35.5t87 -9.5q70 0 112.5 41t42.5 109q0 25 -7 50.5t-23 46t-42 33t-63 12.5q-79 0 -130 -66l-66 6l16 383h370v-80h-292l-14 -228l2 -1q26 27 63 45.5t82 18.5q91 0 145 -56t54 -159q0 -112 -66 -171t-179 -59z" />
    <glyph glyph-name="six.taboldstyle" 
d="M162 367q29 39 70.5 63.5t89.5 24.5q98 0 153 -61t55 -174q0 -54 -17 -96.5t-46.5 -72.5t-70 -45.5t-88.5 -15.5q-68 0 -114 26t-73.5 69.5t-39 99t-11.5 115.5q0 112 22.5 187t61.5 120t90.5 64t109.5 19q49 0 84.5 -7.5t70.5 -18.5l-12 -69q-41 11 -72 15.5t-64 4.5
q-53 0 -91 -23.5t-62.5 -60t-36 -80t-11.5 -83.5zM167 296q0 -8 -0.5 -17t-0.5 -17q0 -39 6 -74.5t21.5 -62.5t41.5 -43.5t67 -16.5q27 0 51 10t42 29.5t29 48.5t11 67q0 25 -5.5 53t-20.5 50.5t-41.5 37.5t-68.5 15q-41 0 -74.5 -23t-57.5 -57z" />
    <glyph glyph-name="seven.taboldstyle" 
d="M406 420h-311v80h410v-65q-37 -62 -75.5 -132.5t-72 -147.5t-60.5 -161t-42 -174h-100q11 71 37 151t60.5 159.5t74.5 154t79 133.5v2z" />
    </font>
</defs>
</svg>
